STARTFONT 2.1
COMMENT
COMMENT Converted from OpenType font "SourceSansPro-Light.otf" by "otf2bdf 3.0".
COMMENT
FONT -FreeType-Source Sans Pro Light-Medium-R-Normal--19-140-100-100-P-84-ISO10646-1
SIZE 14 100 100
FONTBOUNDINGBOX 51 24 -9 -5
STARTPROPERTIES 19
FOUNDRY "FreeType"
FAMILY_NAME "Source Sans Pro Light"
WEIGHT_NAME "Medium"
SLANT "R"
SETWIDTH_NAME "Normal"
ADD_STYLE_NAME ""
PIXEL_SIZE 19
POINT_SIZE 140
RESOLUTION_X 100
RESOLUTION_Y 100
SPACING "P"
AVERAGE_WIDTH 84
CHARSET_REGISTRY "ISO10646"
CHARSET_ENCODING "1"
FONT_ASCENT 18
FONT_DESCENT 5
COPYRIGHT "Copyright 2010, 2012, 2014 Adobe Systems Incorporated (http://www.adobe.com/), with Reserved Font Name Source."
_OTF_FONTFILE "SourceSansPro-Light.otf"
_OTF_PSNAME "SourceSansPro-Light"
ENDPROPERTIES
CHARS 1296
STARTCHAR 0020
ENCODING 32
SWIDTH 205 0
DWIDTH 4 0
BBX 0 0 0 0
BITMAP
ENDCHAR
STARTCHAR 0021
ENCODING 33
SWIDTH 257 0
DWIDTH 5 0
BBX 1 13 2 0
BITMAP
80
80
80
80
80
80
80
80
80
00
00
80
80
ENDCHAR
STARTCHAR 0022
ENCODING 34
SWIDTH 360 0
DWIDTH 7 0
BBX 3 4 2 9
BITMAP
A0
A0
A0
A0
ENDCHAR
STARTCHAR 0023
ENCODING 35
SWIDTH 462 0
DWIDTH 9 0
BBX 8 13 1 0
BITMAP
22
24
24
24
FF
44
44
44
FE
48
48
48
48
ENDCHAR
STARTCHAR 0024
ENCODING 36
SWIDTH 462 0
DWIDTH 9 0
BBX 7 17 1 -2
BITMAP
10
10
3C
42
40
40
40
20
18
04
02
02
02
82
7C
10
10
ENDCHAR
STARTCHAR 0025
ENCODING 37
SWIDTH 822 0
DWIDTH 16 0
BBX 14 13 1 0
BITMAP
7040
8840
8880
8880
8900
8938
8A48
7284
0484
0484
0884
1048
1038
ENDCHAR
STARTCHAR 0026
ENCODING 38
SWIDTH 565 0
DWIDTH 11 0
BBX 10 13 1 0
BITMAP
1C00
2400
4400
4400
2800
3000
3040
D080
8880
8500
8300
8300
7CC0
ENDCHAR
STARTCHAR 0027
ENCODING 39
SWIDTH 205 0
DWIDTH 4 0
BBX 2 4 1 9
BITMAP
40
40
40
80
ENDCHAR
STARTCHAR 0028
ENCODING 40
SWIDTH 257 0
DWIDTH 5 0
BBX 3 17 2 -4
BITMAP
20
40
40
80
80
80
80
80
80
80
80
80
80
80
80
40
40
ENDCHAR
STARTCHAR 0029
ENCODING 41
SWIDTH 257 0
DWIDTH 5 0
BBX 3 17 1 -4
BITMAP
80
80
80
40
40
40
20
20
20
20
20
40
40
40
40
80
80
ENDCHAR
STARTCHAR 002A
ENCODING 42
SWIDTH 411 0
DWIDTH 8 0
BBX 4 5 2 9
BITMAP
40
40
F0
60
90
ENDCHAR
STARTCHAR 002B
ENCODING 43
SWIDTH 462 0
DWIDTH 9 0
BBX 8 9 1 2
BITMAP
10
10
10
10
FF
10
10
10
10
ENDCHAR
STARTCHAR 002C
ENCODING 44
SWIDTH 205 0
DWIDTH 4 0
BBX 2 5 1 -3
BITMAP
40
C0
40
40
80
ENDCHAR
STARTCHAR 002D
ENCODING 45
SWIDTH 308 0
DWIDTH 6 0
BBX 4 1 1 4
BITMAP
F0
ENDCHAR
STARTCHAR 002E
ENCODING 46
SWIDTH 205 0
DWIDTH 4 0
BBX 2 2 1 0
BITMAP
40
C0
ENDCHAR
STARTCHAR 002F
ENCODING 47
SWIDTH 360 0
DWIDTH 7 0
BBX 7 17 0 -3
BITMAP
02
04
04
04
08
08
08
10
10
10
20
20
40
40
40
80
80
ENDCHAR
STARTCHAR 0030
ENCODING 48
SWIDTH 462 0
DWIDTH 9 0
BBX 7 13 1 0
BITMAP
38
44
82
82
82
82
82
82
82
82
82
44
38
ENDCHAR
STARTCHAR 0031
ENCODING 49
SWIDTH 462 0
DWIDTH 9 0
BBX 6 13 2 0
BITMAP
20
60
20
20
20
20
20
20
20
20
20
20
FC
ENDCHAR
STARTCHAR 0032
ENCODING 50
SWIDTH 462 0
DWIDTH 9 0
BBX 7 13 1 0
BITMAP
78
84
02
02
02
04
04
08
10
10
20
40
FE
ENDCHAR
STARTCHAR 0033
ENCODING 51
SWIDTH 462 0
DWIDTH 9 0
BBX 7 13 1 0
BITMAP
78
84
02
02
02
04
38
06
02
02
02
82
7C
ENDCHAR
STARTCHAR 0034
ENCODING 52
SWIDTH 462 0
DWIDTH 9 0
BBX 9 13 0 0
BITMAP
0200
0600
0A00
0A00
1200
2200
2200
4200
FF80
0200
0200
0200
0200
ENDCHAR
STARTCHAR 0035
ENCODING 53
SWIDTH 462 0
DWIDTH 9 0
BBX 7 13 1 0
BITMAP
7E
40
40
40
80
BC
42
02
02
02
02
86
78
ENDCHAR
STARTCHAR 0036
ENCODING 54
SWIDTH 462 0
DWIDTH 9 0
BBX 7 13 1 0
BITMAP
1C
62
40
80
80
98
E6
82
82
82
82
42
3C
ENDCHAR
STARTCHAR 0037
ENCODING 55
SWIDTH 462 0
DWIDTH 9 0
BBX 7 13 1 0
BITMAP
FE
02
04
04
08
08
10
10
10
10
10
10
10
ENDCHAR
STARTCHAR 0038
ENCODING 56
SWIDTH 462 0
DWIDTH 9 0
BBX 7 13 1 0
BITMAP
3C
42
82
82
42
24
38
C6
82
82
82
C2
3C
ENDCHAR
STARTCHAR 0039
ENCODING 57
SWIDTH 462 0
DWIDTH 9 0
BBX 7 13 1 0
BITMAP
38
44
82
82
82
82
46
3A
02
02
04
84
78
ENDCHAR
STARTCHAR 003A
ENCODING 58
SWIDTH 205 0
DWIDTH 4 0
BBX 2 9 1 0
BITMAP
C0
40
00
00
00
00
00
40
C0
ENDCHAR
STARTCHAR 003B
ENCODING 59
SWIDTH 205 0
DWIDTH 4 0
BBX 2 12 1 -3
BITMAP
C0
40
00
00
00
00
00
40
C0
40
40
80
ENDCHAR
STARTCHAR 003C
ENCODING 60
SWIDTH 462 0
DWIDTH 9 0
BBX 8 7 1 3
BITMAP
03
0C
70
80
60
18
07
ENDCHAR
STARTCHAR 003D
ENCODING 61
SWIDTH 462 0
DWIDTH 9 0
BBX 8 5 1 4
BITMAP
FF
00
00
00
FF
ENDCHAR
STARTCHAR 003E
ENCODING 62
SWIDTH 462 0
DWIDTH 9 0
BBX 8 7 1 3
BITMAP
80
60
1C
03
06
38
C0
ENDCHAR
STARTCHAR 003F
ENCODING 63
SWIDTH 411 0
DWIDTH 8 0
BBX 6 14 1 0
BITMAP
70
88
04
04
04
08
10
10
20
20
00
00
20
20
ENDCHAR
STARTCHAR 0040
ENCODING 64
SWIDTH 822 0
DWIDTH 16 0
BBX 14 15 1 -3
BITMAP
07C0
1830
2008
4008
43C4
8444
8884
8884
8888
8988
8670
4000
4000
3040
0F80
ENDCHAR
STARTCHAR 0041
ENCODING 65
SWIDTH 514 0
DWIDTH 10 0
BBX 10 13 0 0
BITMAP
0C00
0C00
0C00
1200
1200
1200
2100
2100
3F00
4080
4080
4040
8040
ENDCHAR
STARTCHAR 0042
ENCODING 66
SWIDTH 565 0
DWIDTH 11 0
BBX 8 13 2 0
BITMAP
FC
82
81
81
82
82
FC
83
81
81
81
83
FC
ENDCHAR
STARTCHAR 0043
ENCODING 67
SWIDTH 565 0
DWIDTH 11 0
BBX 9 13 1 0
BITMAP
1F00
2080
4000
4000
8000
8000
8000
8000
8000
4000
4000
2080
1F00
ENDCHAR
STARTCHAR 0044
ENCODING 68
SWIDTH 617 0
DWIDTH 12 0
BBX 9 13 2 0
BITMAP
FC00
8200
8100
8100
8100
8080
8080
8080
8100
8100
8100
8200
FC00
ENDCHAR
STARTCHAR 0045
ENCODING 69
SWIDTH 514 0
DWIDTH 10 0
BBX 7 13 2 0
BITMAP
FE
80
80
80
80
80
FC
80
80
80
80
80
FE
ENDCHAR
STARTCHAR 0046
ENCODING 70
SWIDTH 462 0
DWIDTH 9 0
BBX 7 13 2 0
BITMAP
FE
80
80
80
80
80
FC
80
80
80
80
80
80
ENDCHAR
STARTCHAR 0047
ENCODING 71
SWIDTH 617 0
DWIDTH 12 0
BBX 9 13 1 0
BITMAP
1F00
2080
4000
8000
8000
8000
8780
8080
8080
4080
4080
2080
1F00
ENDCHAR
STARTCHAR 0048
ENCODING 72
SWIDTH 617 0
DWIDTH 12 0
BBX 9 13 2 0
BITMAP
8080
8080
8080
8080
8080
8080
FF80
8080
8080
8080
8080
8080
8080
ENDCHAR
STARTCHAR 0049
ENCODING 73
SWIDTH 257 0
DWIDTH 5 0
BBX 1 13 2 0
BITMAP
80
80
80
80
80
80
80
80
80
80
80
80
80
ENDCHAR
STARTCHAR 004A
ENCODING 74
SWIDTH 462 0
DWIDTH 9 0
BBX 6 13 1 0
BITMAP
04
04
04
04
04
04
04
04
04
04
04
84
78
ENDCHAR
STARTCHAR 004B
ENCODING 75
SWIDTH 565 0
DWIDTH 11 0
BBX 8 13 2 0
BITMAP
81
82
84
88
90
B0
E8
CC
84
82
82
81
81
ENDCHAR
STARTCHAR 004C
ENCODING 76
SWIDTH 462 0
DWIDTH 9 0
BBX 7 13 2 0
BITMAP
80
80
80
80
80
80
80
80
80
80
80
80
FE
ENDCHAR
STARTCHAR 004D
ENCODING 77
SWIDTH 720 0
DWIDTH 14 0
BBX 10 13 2 0
BITMAP
80C0
C0C0
C140
C140
A140
A240
A240
9240
9440
9440
8C40
8840
8040
ENDCHAR
STARTCHAR 004E
ENCODING 78
SWIDTH 617 0
DWIDTH 12 0
BBX 8 13 2 0
BITMAP
81
C1
C1
A1
A1
91
89
89
85
85
83
81
81
ENDCHAR
STARTCHAR 004F
ENCODING 79
SWIDTH 668 0
DWIDTH 13 0
BBX 11 13 1 0
BITMAP
1F00
2080
4040
4040
8040
8020
8020
8020
8040
4040
4040
2080
1F00
ENDCHAR
STARTCHAR 0050
ENCODING 80
SWIDTH 565 0
DWIDTH 11 0
BBX 8 13 2 0
BITMAP
FC
82
81
81
81
82
82
FC
80
80
80
80
80
ENDCHAR
STARTCHAR 0051
ENCODING 81
SWIDTH 668 0
DWIDTH 13 0
BBX 11 16 1 -3
BITMAP
1F00
2080
4040
4040
8040
8020
8020
8020
8040
4040
4040
2080
1F00
0400
0200
01E0
ENDCHAR
STARTCHAR 0052
ENCODING 82
SWIDTH 565 0
DWIDTH 11 0
BBX 8 13 2 0
BITMAP
FC
82
81
81
81
82
FC
88
88
84
82
82
81
ENDCHAR
STARTCHAR 0053
ENCODING 83
SWIDTH 514 0
DWIDTH 10 0
BBX 8 13 1 0
BITMAP
3C
43
40
40
40
30
0C
03
01
01
01
C1
3E
ENDCHAR
STARTCHAR 0054
ENCODING 84
SWIDTH 514 0
DWIDTH 10 0
BBX 9 13 1 0
BITMAP
FF80
0800
0800
0800
0800
0800
0800
0800
0800
0800
0800
0800
0800
ENDCHAR
STARTCHAR 0055
ENCODING 85
SWIDTH 617 0
DWIDTH 12 0
BBX 8 13 2 0
BITMAP
81
81
81
81
81
81
81
81
81
81
81
43
3C
ENDCHAR
STARTCHAR 0056
ENCODING 86
SWIDTH 514 0
DWIDTH 10 0
BBX 9 13 0 0
BITMAP
8080
8080
4080
4100
4100
2100
2200
2200
1200
1400
1400
0C00
0800
ENDCHAR
STARTCHAR 0057
ENCODING 87
SWIDTH 771 0
DWIDTH 15 0
BBX 13 13 1 0
BITMAP
8208
8608
8508
8508
8510
4910
4890
4890
4890
50A0
3060
3060
3060
ENDCHAR
STARTCHAR 0058
ENCODING 88
SWIDTH 462 0
DWIDTH 9 0
BBX 8 13 1 0
BITMAP
82
82
44
44
28
18
10
28
28
44
42
82
81
ENDCHAR
STARTCHAR 0059
ENCODING 89
SWIDTH 462 0
DWIDTH 9 0
BBX 8 13 0 0
BITMAP
81
41
42
22
24
14
18
08
08
08
08
08
08
ENDCHAR
STARTCHAR 005A
ENCODING 90
SWIDTH 514 0
DWIDTH 10 0
BBX 9 13 1 0
BITMAP
7F00
0100
0200
0200
0400
0800
0800
1000
2000
2000
4000
4000
FF80
ENDCHAR
STARTCHAR 005B
ENCODING 91
SWIDTH 257 0
DWIDTH 5 0
BBX 3 17 2 -3
BITMAP
E0
80
80
80
80
80
80
80
80
80
80
80
80
80
80
80
E0
ENDCHAR
STARTCHAR 005C
ENCODING 92
SWIDTH 360 0
DWIDTH 7 0
BBX 7 17 0 -3
BITMAP
80
80
40
40
40
20
20
20
10
10
10
08
08
04
04
04
02
ENDCHAR
STARTCHAR 005D
ENCODING 93
SWIDTH 257 0
DWIDTH 5 0
BBX 4 17 0 -3
BITMAP
F0
10
10
10
10
10
10
10
10
10
10
10
10
10
10
10
F0
ENDCHAR
STARTCHAR 005E
ENCODING 94
SWIDTH 462 0
DWIDTH 9 0
BBX 7 7 1 6
BITMAP
10
28
28
28
44
44
82
ENDCHAR
STARTCHAR 005F
ENCODING 95
SWIDTH 514 0
DWIDTH 10 0
BBX 9 1 0 -2
BITMAP
FF80
ENDCHAR
STARTCHAR 0060
ENCODING 96
SWIDTH 514 0
DWIDTH 10 0
BBX 3 3 3 11
BITMAP
80
40
20
ENDCHAR
STARTCHAR 0061
ENCODING 97
SWIDTH 514 0
DWIDTH 10 0
BBX 7 10 1 0
BITMAP
3C
42
02
02
1E
62
82
82
86
7A
ENDCHAR
STARTCHAR 0062
ENCODING 98
SWIDTH 565 0
DWIDTH 11 0
BBX 8 14 2 0
BITMAP
80
80
80
80
BC
C2
82
82
81
81
82
82
84
F8
ENDCHAR
STARTCHAR 0063
ENCODING 99
SWIDTH 462 0
DWIDTH 9 0
BBX 7 10 1 0
BITMAP
3C
42
80
80
80
80
80
80
42
3C
ENDCHAR
STARTCHAR 0064
ENCODING 100
SWIDTH 565 0
DWIDTH 11 0
BBX 8 14 1 0
BITMAP
01
01
01
01
3D
43
41
81
81
81
81
81
43
3D
ENDCHAR
STARTCHAR 0065
ENCODING 101
SWIDTH 462 0
DWIDTH 9 0
BBX 8 10 1 0
BITMAP
3C
42
82
81
FF
80
80
80
40
3E
ENDCHAR
STARTCHAR 0066
ENCODING 102
SWIDTH 257 0
DWIDTH 5 0
BBX 5 14 1 0
BITMAP
38
40
40
40
F0
40
40
40
40
40
40
40
40
40
ENDCHAR
STARTCHAR 0067
ENCODING 103
SWIDTH 462 0
DWIDTH 9 0
BBX 8 15 1 -5
BITMAP
3F
42
82
82
42
44
78
80
40
7E
81
81
81
42
3C
ENDCHAR
STARTCHAR 0068
ENCODING 104
SWIDTH 514 0
DWIDTH 10 0
BBX 7 14 2 0
BITMAP
80
80
80
80
BC
C4
82
82
82
82
82
82
82
82
ENDCHAR
STARTCHAR 0069
ENCODING 105
SWIDTH 205 0
DWIDTH 4 0
BBX 2 14 1 0
BITMAP
C0
00
00
00
40
40
40
40
40
40
40
40
40
40
ENDCHAR
STARTCHAR 006A
ENCODING 106
SWIDTH 205 0
DWIDTH 4 0
BBX 4 18 -1 -4
BITMAP
30
00
00
00
10
10
10
10
10
10
10
10
10
10
10
10
10
E0
ENDCHAR
STARTCHAR 006B
ENCODING 107
SWIDTH 462 0
DWIDTH 9 0
BBX 6 14 2 0
BITMAP
80
80
80
80
84
88
90
90
B0
D0
88
88
84
84
ENDCHAR
STARTCHAR 006C
ENCODING 108
SWIDTH 257 0
DWIDTH 5 0
BBX 1 14 2 0
BITMAP
80
80
80
80
80
80
80
80
80
80
80
80
80
80
ENDCHAR
STARTCHAR 006D
ENCODING 109
SWIDTH 822 0
DWIDTH 16 0
BBX 12 10 2 0
BITMAP
B8E0
C510
8610
8410
8410
8410
8410
8410
8410
8410
ENDCHAR
STARTCHAR 006E
ENCODING 110
SWIDTH 514 0
DWIDTH 10 0
BBX 7 10 2 0
BITMAP
BC
C4
82
82
82
82
82
82
82
82
ENDCHAR
STARTCHAR 006F
ENCODING 111
SWIDTH 514 0
DWIDTH 10 0
BBX 8 10 1 0
BITMAP
3C
42
81
81
81
81
81
81
42
3C
ENDCHAR
STARTCHAR 0070
ENCODING 112
SWIDTH 565 0
DWIDTH 11 0
BBX 8 14 2 -4
BITMAP
BC
C2
82
82
81
81
82
82
84
F8
80
80
80
80
ENDCHAR
STARTCHAR 0071
ENCODING 113
SWIDTH 565 0
DWIDTH 11 0
BBX 8 14 1 -4
BITMAP
3D
43
41
81
81
81
81
81
43
3D
01
01
01
01
ENDCHAR
STARTCHAR 0072
ENCODING 114
SWIDTH 308 0
DWIDTH 6 0
BBX 4 10 2 0
BITMAP
B0
C0
80
80
80
80
80
80
80
80
ENDCHAR
STARTCHAR 0073
ENCODING 115
SWIDTH 411 0
DWIDTH 8 0
BBX 6 10 1 0
BITMAP
78
80
80
80
60
18
04
04
84
78
ENDCHAR
STARTCHAR 0074
ENCODING 116
SWIDTH 308 0
DWIDTH 6 0
BBX 5 13 1 0
BITMAP
40
40
40
F8
40
40
40
40
40
40
40
40
38
ENDCHAR
STARTCHAR 0075
ENCODING 117
SWIDTH 514 0
DWIDTH 10 0
BBX 6 10 2 0
BITMAP
84
84
84
84
84
84
84
84
8C
74
ENDCHAR
STARTCHAR 0076
ENCODING 118
SWIDTH 411 0
DWIDTH 8 0
BBX 8 10 0 0
BITMAP
81
41
42
42
22
24
24
14
18
08
ENDCHAR
STARTCHAR 0077
ENCODING 119
SWIDTH 668 0
DWIDTH 13 0
BBX 12 10 1 0
BITMAP
8410
8A20
8A20
8A20
4A20
5140
5140
5140
3140
2080
ENDCHAR
STARTCHAR 0078
ENCODING 120
SWIDTH 411 0
DWIDTH 8 0
BBX 7 10 0 0
BITMAP
42
44
24
18
18
18
28
24
42
82
ENDCHAR
STARTCHAR 0079
ENCODING 121
SWIDTH 411 0
DWIDTH 8 0
BBX 8 14 0 -4
BITMAP
81
41
42
42
22
24
14
14
18
08
08
10
10
60
ENDCHAR
STARTCHAR 007A
ENCODING 122
SWIDTH 411 0
DWIDTH 8 0
BBX 6 10 1 0
BITMAP
FC
08
08
10
10
20
40
40
80
FC
ENDCHAR
STARTCHAR 007B
ENCODING 123
SWIDTH 257 0
DWIDTH 5 0
BBX 4 17 1 -3
BITMAP
10
60
40
40
40
40
40
40
80
40
40
40
40
40
40
40
30
ENDCHAR
STARTCHAR 007C
ENCODING 124
SWIDTH 205 0
DWIDTH 4 0
BBX 1 19 2 -5
BITMAP
80
80
80
80
80
80
80
80
80
80
80
80
80
80
80
80
80
80
80
ENDCHAR
STARTCHAR 007D
ENCODING 125
SWIDTH 257 0
DWIDTH 5 0
BBX 5 17 0 -3
BITMAP
C0
20
20
20
20
20
20
20
18
20
20
20
20
20
20
20
E0
ENDCHAR
STARTCHAR 007E
ENCODING 126
SWIDTH 462 0
DWIDTH 9 0
BBX 7 3 1 5
BITMAP
60
92
0C
ENDCHAR
STARTCHAR 00A0
ENCODING 160
SWIDTH 205 0
DWIDTH 4 0
BBX 0 0 0 0
BITMAP
ENDCHAR
STARTCHAR 00A1
ENCODING 161
SWIDTH 257 0
DWIDTH 5 0
BBX 1 13 2 -3
BITMAP
80
80
00
00
80
80
80
80
80
80
80
80
80
ENDCHAR
STARTCHAR 00A2
ENCODING 162
SWIDTH 462 0
DWIDTH 9 0
BBX 7 14 1 -1
BITMAP
08
08
1C
6A
48
88
88
88
88
48
6A
1C
08
08
ENDCHAR
STARTCHAR 00A3
ENCODING 163
SWIDTH 462 0
DWIDTH 9 0
BBX 7 13 1 0
BITMAP
1C
22
40
40
40
40
FC
20
20
20
20
40
FE
ENDCHAR
STARTCHAR 00A4
ENCODING 164
SWIDTH 462 0
DWIDTH 9 0
BBX 8 8 1 2
BITMAP
BA
44
82
82
82
82
46
B9
ENDCHAR
STARTCHAR 00A5
ENCODING 165
SWIDTH 462 0
DWIDTH 9 0
BBX 7 13 1 0
BITMAP
82
82
42
44
24
28
28
FE
10
FE
10
10
10
ENDCHAR
STARTCHAR 00A6
ENCODING 166
SWIDTH 205 0
DWIDTH 4 0
BBX 1 19 2 -5
BITMAP
80
80
80
80
80
80
80
80
80
00
80
80
80
80
80
80
80
80
80
ENDCHAR
STARTCHAR 00A7
ENCODING 167
SWIDTH 462 0
DWIDTH 9 0
BBX 7 14 1 -1
BITMAP
3C
40
40
60
58
84
82
82
62
1C
04
04
04
78
ENDCHAR
STARTCHAR 00A8
ENCODING 168
SWIDTH 514 0
DWIDTH 10 0
BBX 5 1 3 12
BITMAP
98
ENDCHAR
STARTCHAR 00A9
ENCODING 169
SWIDTH 720 0
DWIDTH 14 0
BBX 12 13 1 0
BITMAP
0F80
3040
4020
8710
9810
9010
9010
9010
9090
8F10
4020
2040
1F80
ENDCHAR
STARTCHAR 00AA
ENCODING 170
SWIDTH 360 0
DWIDTH 7 0
BBX 5 7 1 7
BITMAP
70
10
08
F8
88
98
60
ENDCHAR
STARTCHAR 00AB
ENCODING 171
SWIDTH 411 0
DWIDTH 8 0
BBX 6 7 1 1
BITMAP
24
48
90
A0
90
48
24
ENDCHAR
STARTCHAR 00AC
ENCODING 172
SWIDTH 462 0
DWIDTH 9 0
BBX 8 5 1 2
BITMAP
FF
01
01
01
01
ENDCHAR
STARTCHAR 00AD
ENCODING 173
SWIDTH 308 0
DWIDTH 6 0
BBX 4 1 1 4
BITMAP
F0
ENDCHAR
STARTCHAR 00AE
ENCODING 174
SWIDTH 411 0
DWIDTH 8 0
BBX 7 8 0 6
BITMAP
10
6C
9A
AA
9A
AA
42
3C
ENDCHAR
STARTCHAR 00AF
ENCODING 175
SWIDTH 514 0
DWIDTH 10 0
BBX 5 1 3 12
BITMAP
F8
ENDCHAR
STARTCHAR 00B0
ENCODING 176
SWIDTH 308 0
DWIDTH 6 0
BBX 4 4 1 9
BITMAP
60
90
90
60
ENDCHAR
STARTCHAR 00B1
ENCODING 177
SWIDTH 462 0
DWIDTH 9 0
BBX 8 11 1 0
BITMAP
10
10
10
10
FF
10
10
10
10
00
FF
ENDCHAR
STARTCHAR 00B2
ENCODING 178
SWIDTH 360 0
DWIDTH 7 0
BBX 5 8 1 8
BITMAP
60
90
08
10
10
20
40
F8
ENDCHAR
STARTCHAR 00B3
ENCODING 179
SWIDTH 360 0
DWIDTH 7 0
BBX 5 9 1 7
BITMAP
20
D0
08
10
30
08
08
88
70
ENDCHAR
STARTCHAR 00B4
ENCODING 180
SWIDTH 514 0
DWIDTH 10 0
BBX 3 3 4 11
BITMAP
20
40
80
ENDCHAR
STARTCHAR 00B5
ENCODING 181
SWIDTH 565 0
DWIDTH 11 0
BBX 8 13 2 -3
BITMAP
82
82
82
82
82
82
82
86
8A
F3
80
80
80
ENDCHAR
STARTCHAR 00B6
ENCODING 182
SWIDTH 514 0
DWIDTH 10 0
BBX 7 14 1 -1
BITMAP
3A
7A
FA
FA
FA
FA
7A
3A
02
02
02
02
02
02
ENDCHAR
STARTCHAR 00B7
ENCODING 183
SWIDTH 205 0
DWIDTH 4 0
BBX 2 2 1 5
BITMAP
C0
40
ENDCHAR
STARTCHAR 00B8
ENCODING 184
SWIDTH 514 0
DWIDTH 10 0
BBX 3 4 4 -4
BITMAP
40
40
20
C0
ENDCHAR
STARTCHAR 00B9
ENCODING 185
SWIDTH 360 0
DWIDTH 7 0
BBX 2 7 2 8
BITMAP
C0
40
40
40
40
40
40
ENDCHAR
STARTCHAR 00BA
ENCODING 186
SWIDTH 360 0
DWIDTH 7 0
BBX 5 7 1 7
BITMAP
70
88
88
88
88
88
70
ENDCHAR
STARTCHAR 00BB
ENCODING 187
SWIDTH 411 0
DWIDTH 8 0
BBX 6 7 1 1
BITMAP
90
48
28
24
28
48
90
ENDCHAR
STARTCHAR 00BC
ENCODING 188
SWIDTH 771 0
DWIDTH 15 0
BBX 12 13 2 0
BITMAP
C080
4100
4100
4200
4200
4420
4460
08A0
08A0
1120
11F0
2020
4020
ENDCHAR
STARTCHAR 00BD
ENCODING 189
SWIDTH 771 0
DWIDTH 15 0
BBX 12 13 2 0
BITMAP
C100
4100
4200
4200
4400
44E0
4910
4810
1010
1020
2040
2080
41F0
ENDCHAR
STARTCHAR 00BE
ENCODING 190
SWIDTH 771 0
DWIDTH 15 0
BBX 13 13 1 0
BITMAP
7020
0840
1040
3080
0880
0910
8930
7230
0250
0490
08F8
0810
1010
ENDCHAR
STARTCHAR 00BF
ENCODING 191
SWIDTH 411 0
DWIDTH 8 0
BBX 6 14 1 -4
BITMAP
30
10
00
00
10
10
20
20
40
80
80
80
84
78
ENDCHAR
STARTCHAR 00C0
ENCODING 192
SWIDTH 514 0
DWIDTH 10 0
BBX 10 17 0 0
BITMAP
1000
0800
0400
0000
0C00
0C00
0C00
1200
1200
1200
2100
2100
3F00
4080
4080
4040
8040
ENDCHAR
STARTCHAR 00C1
ENCODING 193
SWIDTH 514 0
DWIDTH 10 0
BBX 10 17 0 0
BITMAP
0200
0600
0800
0000
0C00
0C00
0C00
1200
1200
1200
2100
2100
3F00
4080
4080
4040
8040
ENDCHAR
STARTCHAR 00C2
ENCODING 194
SWIDTH 514 0
DWIDTH 10 0
BBX 10 17 0 0
BITMAP
0400
0A00
3100
0000
0C00
0C00
0C00
1200
1200
1200
2100
2100
3F00
4080
4080
4040
8040
ENDCHAR
STARTCHAR 00C3
ENCODING 195
SWIDTH 514 0
DWIDTH 10 0
BBX 10 17 0 0
BITMAP
1000
2D00
2200
0000
0C00
0C00
0C00
1200
1200
1200
2100
2100
3F00
4080
4080
4040
8040
ENDCHAR
STARTCHAR 00C4
ENCODING 196
SWIDTH 514 0
DWIDTH 10 0
BBX 10 15 0 0
BITMAP
1300
0000
0C00
0C00
0C00
1200
1200
1200
2100
2100
3F00
4080
4080
4040
8040
ENDCHAR
STARTCHAR 00C5
ENCODING 197
SWIDTH 514 0
DWIDTH 10 0
BBX 10 17 0 0
BITMAP
0C00
1200
1200
0C00
0C00
0C00
0C00
1200
1200
1200
2100
2100
3F00
4080
4080
4040
8040
ENDCHAR
STARTCHAR 00C6
ENCODING 198
SWIDTH 822 0
DWIDTH 16 0
BBX 14 13 1 0
BITMAP
03FC
0300
0500
0500
0900
1900
11F8
2100
3F00
4100
4100
8100
81FC
ENDCHAR
STARTCHAR 00C7
ENCODING 199
SWIDTH 565 0
DWIDTH 11 0
BBX 9 17 1 -4
BITMAP
1F00
2080
4000
4000
8000
8000
8000
8000
8000
4000
4000
2080
1F00
0400
0600
0200
0C00
ENDCHAR
STARTCHAR 00C8
ENCODING 200
SWIDTH 514 0
DWIDTH 10 0
BBX 7 16 2 1
BITMAP
20
10
00
FE
80
80
80
80
80
FC
80
80
80
80
80
FE
ENDCHAR
STARTCHAR 00C9
ENCODING 201
SWIDTH 514 0
DWIDTH 10 0
BBX 7 16 2 1
BITMAP
08
10
00
FE
80
80
80
80
80
FC
80
80
80
80
80
FE
ENDCHAR
STARTCHAR 00CA
ENCODING 202
SWIDTH 514 0
DWIDTH 10 0
BBX 7 17 2 0
BITMAP
10
28
44
00
FE
80
80
80
80
80
FC
80
80
80
80
80
FE
ENDCHAR
STARTCHAR 00CB
ENCODING 203
SWIDTH 514 0
DWIDTH 10 0
BBX 7 15 2 0
BITMAP
44
00
FE
80
80
80
80
80
FC
80
80
80
80
80
FE
ENDCHAR
STARTCHAR 00CC
ENCODING 204
SWIDTH 257 0
DWIDTH 5 0
BBX 3 17 0 0
BITMAP
80
40
20
00
20
20
20
20
20
20
20
20
20
20
20
20
20
ENDCHAR
STARTCHAR 00CD
ENCODING 205
SWIDTH 257 0
DWIDTH 5 0
BBX 2 16 2 1
BITMAP
40
80
00
80
80
80
80
80
80
80
80
80
80
80
80
80
ENDCHAR
STARTCHAR 00CE
ENCODING 206
SWIDTH 257 0
DWIDTH 5 0
BBX 5 17 0 0
BITMAP
20
50
88
00
20
20
20
20
20
20
20
20
20
20
20
20
20
ENDCHAR
STARTCHAR 00CF
ENCODING 207
SWIDTH 257 0
DWIDTH 5 0
BBX 5 15 0 0
BITMAP
88
00
20
20
20
20
20
20
20
20
20
20
20
20
20
ENDCHAR
STARTCHAR 00D0
ENCODING 208
SWIDTH 617 0
DWIDTH 12 0
BBX 10 13 1 0
BITMAP
7E00
4100
4080
4040
4040
4040
F840
4040
4040
4040
4080
4100
7E00
ENDCHAR
STARTCHAR 00D1
ENCODING 209
SWIDTH 617 0
DWIDTH 12 0
BBX 8 17 2 0
BITMAP
30
4A
46
00
81
C1
C1
A1
A1
91
89
89
85
85
83
81
81
ENDCHAR
STARTCHAR 00D2
ENCODING 210
SWIDTH 668 0
DWIDTH 13 0
BBX 11 16 1 1
BITMAP
0800
0400
0000
1F00
2080
4040
4040
8040
8020
8020
8020
8040
4040
4040
2080
1F00
ENDCHAR
STARTCHAR 00D3
ENCODING 211
SWIDTH 668 0
DWIDTH 13 0
BBX 11 16 1 1
BITMAP
0200
0400
0000
1F00
2080
4040
4040
8040
8020
8020
8020
8040
4040
4040
2080
1F00
ENDCHAR
STARTCHAR 00D4
ENCODING 212
SWIDTH 668 0
DWIDTH 13 0
BBX 11 16 1 0
BITMAP
0C00
1200
0000
1F00
2080
4040
4040
8040
8020
8020
8020
8040
4040
4040
2080
1F00
ENDCHAR
STARTCHAR 00D5
ENCODING 213
SWIDTH 668 0
DWIDTH 13 0
BBX 11 16 1 0
BITMAP
1800
2700
0000
1F00
2080
4040
4040
8040
8020
8020
8020
8040
4040
4040
2080
1F00
ENDCHAR
STARTCHAR 00D6
ENCODING 214
SWIDTH 668 0
DWIDTH 13 0
BBX 11 15 1 0
BITMAP
1100
0000
1F00
2080
4040
4040
8040
8020
8020
8020
8040
4040
4040
2080
1F00
ENDCHAR
STARTCHAR 00D7
ENCODING 215
SWIDTH 462 0
DWIDTH 9 0
BBX 7 8 1 2
BITMAP
82
44
28
10
28
64
42
80
ENDCHAR
STARTCHAR 00D8
ENCODING 216
SWIDTH 668 0
DWIDTH 13 0
BBX 11 13 1 0
BITMAP
1F40
2080
40C0
4140
8220
8220
8420
8820
9040
6040
6040
6080
9F00
ENDCHAR
STARTCHAR 00D9
ENCODING 217
SWIDTH 617 0
DWIDTH 12 0
BBX 8 17 2 0
BITMAP
20
10
08
00
81
81
81
81
81
81
81
81
81
81
81
43
3C
ENDCHAR
STARTCHAR 00DA
ENCODING 218
SWIDTH 617 0
DWIDTH 12 0
BBX 8 16 2 1
BITMAP
04
18
00
81
81
81
81
81
81
81
81
81
81
81
43
3C
ENDCHAR
STARTCHAR 00DB
ENCODING 219
SWIDTH 617 0
DWIDTH 12 0
BBX 8 17 2 0
BITMAP
08
14
62
00
81
81
81
81
81
81
81
81
81
81
81
43
3C
ENDCHAR
STARTCHAR 00DC
ENCODING 220
SWIDTH 617 0
DWIDTH 12 0
BBX 8 15 2 0
BITMAP
26
00
81
81
81
81
81
81
81
81
81
81
81
43
3C
ENDCHAR
STARTCHAR 00DD
ENCODING 221
SWIDTH 462 0
DWIDTH 9 0
BBX 8 16 0 1
BITMAP
04
08
00
81
41
42
22
24
14
18
08
08
08
08
08
08
ENDCHAR
STARTCHAR 00DE
ENCODING 222
SWIDTH 565 0
DWIDTH 11 0
BBX 8 13 2 0
BITMAP
80
80
FC
82
81
81
81
81
82
FC
80
80
80
ENDCHAR
STARTCHAR 00DF
ENCODING 223
SWIDTH 565 0
DWIDTH 11 0
BBX 8 14 2 0
BITMAP
78
84
84
84
88
90
90
90
8C
82
81
81
81
9E
ENDCHAR
STARTCHAR 00E0
ENCODING 224
SWIDTH 514 0
DWIDTH 10 0
BBX 7 14 1 1
BITMAP
20
10
08
00
3C
42
02
02
1E
62
82
82
86
7A
ENDCHAR
STARTCHAR 00E1
ENCODING 225
SWIDTH 514 0
DWIDTH 10 0
BBX 7 15 1 0
BITMAP
04
04
08
10
00
3C
42
02
02
1E
62
82
82
86
7A
ENDCHAR
STARTCHAR 00E2
ENCODING 226
SWIDTH 514 0
DWIDTH 10 0
BBX 7 15 1 0
BITMAP
18
28
24
00
00
3C
42
02
02
1E
62
82
82
86
7A
ENDCHAR
STARTCHAR 00E3
ENCODING 227
SWIDTH 514 0
DWIDTH 10 0
BBX 7 14 1 0
BITMAP
72
0E
00
00
3C
42
02
02
1E
62
82
82
86
7A
ENDCHAR
STARTCHAR 00E4
ENCODING 228
SWIDTH 514 0
DWIDTH 10 0
BBX 7 13 1 0
BITMAP
24
00
00
3C
42
02
02
1E
62
82
82
86
7A
ENDCHAR
STARTCHAR 00E5
ENCODING 229
SWIDTH 514 0
DWIDTH 10 0
BBX 7 15 1 0
BITMAP
18
24
24
18
00
3C
42
02
02
1E
62
82
82
86
7A
ENDCHAR
STARTCHAR 00E6
ENCODING 230
SWIDTH 771 0
DWIDTH 15 0
BBX 13 10 1 0
BITMAP
3CF0
4308
0308
0208
1FF8
6200
8200
8300
8500
78F8
ENDCHAR
STARTCHAR 00E7
ENCODING 231
SWIDTH 462 0
DWIDTH 9 0
BBX 7 14 1 -4
BITMAP
3C
42
80
80
80
80
80
80
42
3C
10
08
08
18
ENDCHAR
STARTCHAR 00E8
ENCODING 232
SWIDTH 462 0
DWIDTH 9 0
BBX 8 15 1 0
BITMAP
20
20
10
00
00
3C
42
82
81
FF
80
80
80
40
3E
ENDCHAR
STARTCHAR 00E9
ENCODING 233
SWIDTH 462 0
DWIDTH 9 0
BBX 8 14 1 1
BITMAP
04
08
10
00
3C
42
82
81
FF
80
80
80
40
3E
ENDCHAR
STARTCHAR 00EA
ENCODING 234
SWIDTH 462 0
DWIDTH 9 0
BBX 8 15 1 0
BITMAP
18
18
24
00
00
3C
42
82
81
FF
80
80
80
40
3E
ENDCHAR
STARTCHAR 00EB
ENCODING 235
SWIDTH 462 0
DWIDTH 9 0
BBX 8 13 1 0
BITMAP
24
00
00
3C
42
82
81
FF
80
80
80
40
3E
ENDCHAR
STARTCHAR 00EC
ENCODING 236
SWIDTH 205 0
DWIDTH 4 0
BBX 3 14 0 1
BITMAP
C0
20
00
00
20
20
20
20
20
20
20
20
20
20
ENDCHAR
STARTCHAR 00ED
ENCODING 237
SWIDTH 205 0
DWIDTH 4 0
BBX 2 14 2 1
BITMAP
40
80
00
00
80
80
80
80
80
80
80
80
80
80
ENDCHAR
STARTCHAR 00EE
ENCODING 238
SWIDTH 205 0
DWIDTH 4 0
BBX 5 15 0 0
BITMAP
60
50
88
00
00
20
20
20
20
20
20
20
20
20
20
ENDCHAR
STARTCHAR 00EF
ENCODING 239
SWIDTH 205 0
DWIDTH 4 0
BBX 5 14 0 0
BITMAP
98
00
00
00
20
20
20
20
20
20
20
20
20
20
ENDCHAR
STARTCHAR 00F0
ENCODING 240
SWIDTH 514 0
DWIDTH 10 0
BBX 8 14 1 0
BITMAP
20
1B
0C
32
02
19
67
41
81
81
81
81
42
3C
ENDCHAR
STARTCHAR 00F1
ENCODING 241
SWIDTH 514 0
DWIDTH 10 0
BBX 7 14 2 0
BITMAP
62
9C
00
00
BC
C4
82
82
82
82
82
82
82
82
ENDCHAR
STARTCHAR 00F2
ENCODING 242
SWIDTH 514 0
DWIDTH 10 0
BBX 8 14 1 1
BITMAP
30
08
00
00
3C
42
81
81
81
81
81
81
42
3C
ENDCHAR
STARTCHAR 00F3
ENCODING 243
SWIDTH 514 0
DWIDTH 10 0
BBX 8 14 1 1
BITMAP
04
08
00
00
3C
42
81
81
81
81
81
81
42
3C
ENDCHAR
STARTCHAR 00F4
ENCODING 244
SWIDTH 514 0
DWIDTH 10 0
BBX 8 15 1 0
BITMAP
08
14
24
00
00
3C
42
81
81
81
81
81
81
42
3C
ENDCHAR
STARTCHAR 00F5
ENCODING 245
SWIDTH 514 0
DWIDTH 10 0
BBX 8 14 1 0
BITMAP
30
4E
00
00
3C
42
81
81
81
81
81
81
42
3C
ENDCHAR
STARTCHAR 00F6
ENCODING 246
SWIDTH 514 0
DWIDTH 10 0
BBX 8 13 1 0
BITMAP
26
00
00
3C
42
81
81
81
81
81
81
42
3C
ENDCHAR
STARTCHAR 00F7
ENCODING 247
SWIDTH 462 0
DWIDTH 9 0
BBX 8 9 1 2
BITMAP
10
10
00
00
FF
00
00
10
10
ENDCHAR
STARTCHAR 00F8
ENCODING 248
SWIDTH 514 0
DWIDTH 10 0
BBX 8 10 1 0
BITMAP
3D
42
83
85
89
91
A1
A1
42
BC
ENDCHAR
STARTCHAR 00F9
ENCODING 249
SWIDTH 514 0
DWIDTH 10 0
BBX 6 15 2 0
BITMAP
40
60
10
00
00
84
84
84
84
84
84
84
84
8C
74
ENDCHAR
STARTCHAR 00FA
ENCODING 250
SWIDTH 514 0
DWIDTH 10 0
BBX 6 14 2 1
BITMAP
08
10
00
00
84
84
84
84
84
84
84
84
8C
74
ENDCHAR
STARTCHAR 00FB
ENCODING 251
SWIDTH 514 0
DWIDTH 10 0
BBX 6 15 2 0
BITMAP
30
48
44
00
00
84
84
84
84
84
84
84
84
8C
74
ENDCHAR
STARTCHAR 00FC
ENCODING 252
SWIDTH 514 0
DWIDTH 10 0
BBX 6 14 2 0
BITMAP
4C
00
00
00
84
84
84
84
84
84
84
84
8C
74
ENDCHAR
STARTCHAR 00FD
ENCODING 253
SWIDTH 411 0
DWIDTH 8 0
BBX 8 18 0 -3
BITMAP
04
08
00
00
81
41
42
42
22
24
14
14
18
08
08
10
10
60
ENDCHAR
STARTCHAR 00FE
ENCODING 254
SWIDTH 565 0
DWIDTH 11 0
BBX 8 18 2 -4
BITMAP
80
80
80
80
BC
C2
82
82
81
81
82
82
84
F8
80
80
80
80
ENDCHAR
STARTCHAR 00FF
ENCODING 255
SWIDTH 411 0
DWIDTH 8 0
BBX 8 18 0 -4
BITMAP
26
00
00
00
81
41
42
42
22
24
14
14
18
08
08
10
10
60
ENDCHAR
STARTCHAR 0100
ENCODING 256
SWIDTH 514 0
DWIDTH 10 0
BBX 10 15 0 0
BITMAP
1F00
0000
0C00
0C00
0C00
1200
1200
1200
2100
2100
3F00
4080
4080
4040
8040
ENDCHAR
STARTCHAR 0101
ENCODING 257
SWIDTH 514 0
DWIDTH 10 0
BBX 7 13 1 0
BITMAP
3C
00
00
3C
42
02
02
1E
62
82
82
86
7A
ENDCHAR
STARTCHAR 0102
ENCODING 258
SWIDTH 514 0
DWIDTH 10 0
BBX 10 16 0 1
BITMAP
2100
1E00
0000
0C00
0C00
0C00
1200
1200
1200
2100
2100
3F00
4080
4080
4040
8040
ENDCHAR
STARTCHAR 0103
ENCODING 259
SWIDTH 514 0
DWIDTH 10 0
BBX 7 14 1 0
BITMAP
42
24
18
00
3C
42
02
02
1E
62
82
82
86
7A
ENDCHAR
STARTCHAR 0104
ENCODING 260
SWIDTH 514 0
DWIDTH 10 0
BBX 11 17 0 -4
BITMAP
0C00
0C00
0C00
1200
1200
1200
2100
2100
3F00
4080
4080
4040
8040
0080
0080
0080
00E0
ENDCHAR
STARTCHAR 0105
ENCODING 261
SWIDTH 514 0
DWIDTH 10 0
BBX 7 14 1 -4
BITMAP
3C
42
02
02
1E
62
82
82
86
7A
04
08
08
06
ENDCHAR
STARTCHAR 0106
ENCODING 262
SWIDTH 565 0
DWIDTH 11 0
BBX 9 16 1 1
BITMAP
0200
0400
0000
1F00
2080
4000
4000
8000
8000
8000
8000
8000
4000
4000
2080
1F00
ENDCHAR
STARTCHAR 0107
ENCODING 263
SWIDTH 462 0
DWIDTH 9 0
BBX 7 14 1 1
BITMAP
04
08
00
00
3C
42
80
80
80
80
80
80
42
3C
ENDCHAR
STARTCHAR 0108
ENCODING 264
SWIDTH 565 0
DWIDTH 11 0
BBX 9 16 1 0
BITMAP
0C00
1200
0000
1F00
2080
4000
4000
8000
8000
8000
8000
8000
4000
4000
2080
1F00
ENDCHAR
STARTCHAR 0109
ENCODING 265
SWIDTH 462 0
DWIDTH 9 0
BBX 7 15 1 0
BITMAP
08
14
22
00
00
3C
42
80
80
80
80
80
80
42
3C
ENDCHAR
STARTCHAR 010A
ENCODING 266
SWIDTH 565 0
DWIDTH 11 0
BBX 9 16 1 0
BITMAP
0400
0400
0000
1F00
2080
4000
4000
8000
8000
8000
8000
8000
4000
4000
2080
1F00
ENDCHAR
STARTCHAR 010B
ENCODING 267
SWIDTH 462 0
DWIDTH 9 0
BBX 7 14 1 0
BITMAP
08
08
00
00
3C
42
80
80
80
80
80
80
42
3C
ENDCHAR
STARTCHAR 010C
ENCODING 268
SWIDTH 565 0
DWIDTH 11 0
BBX 9 17 1 0
BITMAP
0100
1200
0C00
0000
1F00
2080
4000
4000
8000
8000
8000
8000
8000
4000
4000
2080
1F00
ENDCHAR
STARTCHAR 010D
ENCODING 269
SWIDTH 462 0
DWIDTH 9 0
BBX 7 14 1 0
BITMAP
22
14
08
00
3C
42
80
80
80
80
80
80
42
3C
ENDCHAR
STARTCHAR 010E
ENCODING 270
SWIDTH 617 0
DWIDTH 12 0
BBX 9 16 2 1
BITMAP
2400
1800
0000
FC00
8200
8100
8100
8100
8080
8080
8080
8100
8100
8100
8200
FC00
ENDCHAR
STARTCHAR 010F
ENCODING 271
SWIDTH 565 0
DWIDTH 11 0
BBX 10 15 1 0
BITMAP
0040
0140
0140
0140
0100
3D00
4300
4100
8100
8100
8100
8100
8100
4300
3D00
ENDCHAR
STARTCHAR 0110
ENCODING 272
SWIDTH 617 0
DWIDTH 12 0
BBX 10 13 1 0
BITMAP
7E00
4100
4080
4040
4040
4040
F840
4040
4040
4040
4080
4100
7E00
ENDCHAR
STARTCHAR 0111
ENCODING 273
SWIDTH 565 0
DWIDTH 11 0
BBX 9 14 1 0
BITMAP
0100
0100
0F80
0100
0100
3D00
4300
8100
8100
8100
8100
8100
4300
3D00
ENDCHAR
STARTCHAR 0112
ENCODING 274
SWIDTH 514 0
DWIDTH 10 0
BBX 7 15 2 0
BITMAP
7C
00
FE
80
80
80
80
80
FC
80
80
80
80
80
FE
ENDCHAR
STARTCHAR 0113
ENCODING 275
SWIDTH 462 0
DWIDTH 9 0
BBX 8 13 1 0
BITMAP
3C
00
00
3C
42
82
81
FF
80
80
80
40
3E
ENDCHAR
STARTCHAR 0114
ENCODING 276
SWIDTH 514 0
DWIDTH 10 0
BBX 7 16 2 1
BITMAP
44
38
00
FE
80
80
80
80
80
FC
80
80
80
80
80
FE
ENDCHAR
STARTCHAR 0115
ENCODING 277
SWIDTH 462 0
DWIDTH 9 0
BBX 8 14 1 0
BITMAP
42
24
18
00
3C
42
82
81
FF
80
80
80
40
3E
ENDCHAR
STARTCHAR 0116
ENCODING 278
SWIDTH 514 0
DWIDTH 10 0
BBX 7 16 2 0
BITMAP
10
10
00
FE
80
80
80
80
80
FC
80
80
80
80
80
FE
ENDCHAR
STARTCHAR 0117
ENCODING 279
SWIDTH 462 0
DWIDTH 9 0
BBX 8 13 1 1
BITMAP
18
00
00
3C
42
82
81
FF
80
80
80
40
3E
ENDCHAR
STARTCHAR 0118
ENCODING 280
SWIDTH 514 0
DWIDTH 10 0
BBX 7 17 2 -4
BITMAP
FE
80
80
80
80
80
FC
80
80
80
80
80
FE
04
08
08
06
ENDCHAR
STARTCHAR 0119
ENCODING 281
SWIDTH 462 0
DWIDTH 9 0
BBX 8 14 1 -4
BITMAP
3C
42
82
81
FF
80
80
80
40
3E
04
08
08
06
ENDCHAR
STARTCHAR 011A
ENCODING 282
SWIDTH 514 0
DWIDTH 10 0
BBX 7 16 2 1
BITMAP
4C
30
00
FE
80
80
80
80
80
FC
80
80
80
80
80
FE
ENDCHAR
STARTCHAR 011B
ENCODING 283
SWIDTH 462 0
DWIDTH 9 0
BBX 8 14 1 0
BITMAP
24
14
18
00
3C
42
82
81
FF
80
80
80
40
3E
ENDCHAR
STARTCHAR 011C
ENCODING 284
SWIDTH 617 0
DWIDTH 12 0
BBX 9 16 1 0
BITMAP
0600
0900
0000
1F00
2080
4000
8000
8000
8000
8780
8080
8080
4080
4080
2080
1F00
ENDCHAR
STARTCHAR 011D
ENCODING 285
SWIDTH 462 0
DWIDTH 9 0
BBX 8 20 1 -5
BITMAP
18
24
44
00
00
3F
42
82
82
42
44
78
80
40
7E
81
81
81
42
3C
ENDCHAR
STARTCHAR 011E
ENCODING 286
SWIDTH 617 0
DWIDTH 12 0
BBX 9 16 1 1
BITMAP
1100
0E00
0000
1F00
2080
4000
8000
8000
8000
8780
8080
8080
4080
4080
2080
1F00
ENDCHAR
STARTCHAR 011F
ENCODING 287
SWIDTH 462 0
DWIDTH 9 0
BBX 8 19 1 -5
BITMAP
42
24
18
00
3F
42
82
82
42
44
78
80
40
7E
81
81
81
42
3C
ENDCHAR
STARTCHAR 0120
ENCODING 288
SWIDTH 617 0
DWIDTH 12 0
BBX 9 16 1 0
BITMAP
0400
0400
0000
1F00
2080
4000
8000
8000
8000
8780
8080
8080
4080
4080
2080
1F00
ENDCHAR
STARTCHAR 0121
ENCODING 289
SWIDTH 462 0
DWIDTH 9 0
BBX 8 19 1 -5
BITMAP
18
00
00
00
3F
42
82
82
42
44
78
80
40
7E
81
81
81
42
3C
ENDCHAR
STARTCHAR 0122
ENCODING 290
SWIDTH 617 0
DWIDTH 12 0
BBX 9 17 1 -4
BITMAP
1F00
2080
4000
8000
8000
8000
8780
8080
8080
4080
4080
2080
1F00
0000
0600
0200
0C00
ENDCHAR
STARTCHAR 0123
ENCODING 291
SWIDTH 462 0
DWIDTH 9 0
BBX 8 20 1 -5
BITMAP
1C
10
18
00
00
3F
42
82
82
42
44
78
80
40
7E
81
81
81
42
3C
ENDCHAR
STARTCHAR 0124
ENCODING 292
SWIDTH 617 0
DWIDTH 12 0
BBX 9 17 2 0
BITMAP
0800
1400
2200
0000
8080
8080
8080
8080
8080
8080
FF80
8080
8080
8080
8080
8080
8080
ENDCHAR
STARTCHAR 0125
ENCODING 293
SWIDTH 514 0
DWIDTH 10 0
BBX 9 17 0 0
BITMAP
6000
9000
0000
2000
2000
2000
2000
2F00
3100
2080
2080
2080
2080
2080
2080
2080
2080
ENDCHAR
STARTCHAR 0126
ENCODING 294
SWIDTH 668 0
DWIDTH 13 0
BBX 11 13 1 0
BITMAP
4040
4040
FFE0
4040
4040
4040
7FC0
4040
4040
4040
4040
4040
4040
ENDCHAR
STARTCHAR 0127
ENCODING 295
SWIDTH 514 0
DWIDTH 10 0
BBX 9 14 0 0
BITMAP
2000
2000
FC00
2000
2000
2F00
3100
2080
2080
2080
2080
2080
2080
2080
ENDCHAR
STARTCHAR 0128
ENCODING 296
SWIDTH 257 0
DWIDTH 5 0
BBX 7 17 -1 0
BITMAP
62
94
8C
00
10
10
10
10
10
10
10
10
10
10
10
10
10
ENDCHAR
STARTCHAR 0129
ENCODING 297
SWIDTH 205 0
DWIDTH 4 0
BBX 6 15 -1 0
BITMAP
40
B4
8C
00
00
10
10
10
10
10
10
10
10
10
10
ENDCHAR
STARTCHAR 012A
ENCODING 298
SWIDTH 257 0
DWIDTH 5 0
BBX 5 15 0 0
BITMAP
F8
00
20
20
20
20
20
20
20
20
20
20
20
20
20
ENDCHAR
STARTCHAR 012B
ENCODING 299
SWIDTH 205 0
DWIDTH 4 0
BBX 5 13 0 0
BITMAP
F8
00
00
20
20
20
20
20
20
20
20
20
20
ENDCHAR
STARTCHAR 012C
ENCODING 300
SWIDTH 257 0
DWIDTH 5 0
BBX 5 16 0 1
BITMAP
88
70
00
20
20
20
20
20
20
20
20
20
20
20
20
20
ENDCHAR
STARTCHAR 012D
ENCODING 301
SWIDTH 205 0
DWIDTH 4 0
BBX 6 14 -1 0
BITMAP
84
44
38
00
10
10
10
10
10
10
10
10
10
10
ENDCHAR
STARTCHAR 012E
ENCODING 302
SWIDTH 257 0
DWIDTH 5 0
BBX 3 17 1 -4
BITMAP
40
40
40
40
40
40
40
40
40
40
40
40
40
80
80
80
E0
ENDCHAR
STARTCHAR 012F
ENCODING 303
SWIDTH 205 0
DWIDTH 4 0
BBX 3 18 1 -4
BITMAP
C0
00
00
00
40
40
40
40
40
40
40
40
40
40
80
80
80
E0
ENDCHAR
STARTCHAR 0130
ENCODING 304
SWIDTH 257 0
DWIDTH 5 0
BBX 1 16 2 0
BITMAP
80
80
00
80
80
80
80
80
80
80
80
80
80
80
80
80
ENDCHAR
STARTCHAR 0131
ENCODING 305
SWIDTH 205 0
DWIDTH 4 0
BBX 1 10 2 0
BITMAP
80
80
80
80
80
80
80
80
80
80
ENDCHAR
STARTCHAR 0132
ENCODING 306
SWIDTH 462 0
DWIDTH 9 0
BBX 5 16 2 -3
BITMAP
88
88
88
88
88
88
88
88
88
88
88
88
88
08
08
38
ENDCHAR
STARTCHAR 0133
ENCODING 307
SWIDTH 462 0
DWIDTH 9 0
BBX 6 17 1 -4
BITMAP
C4
04
00
00
44
44
44
44
44
44
44
44
44
04
04
04
18
ENDCHAR
STARTCHAR 0134
ENCODING 308
SWIDTH 462 0
DWIDTH 9 0
BBX 8 17 1 0
BITMAP
04
0A
11
00
04
04
04
04
04
04
04
04
04
04
04
84
78
ENDCHAR
STARTCHAR 0135
ENCODING 309
SWIDTH 205 0
DWIDTH 4 0
BBX 6 19 -1 -4
BITMAP
30
28
44
00
00
10
10
10
10
10
10
10
10
10
10
10
10
10
E0
ENDCHAR
STARTCHAR 0136
ENCODING 310
SWIDTH 565 0
DWIDTH 11 0
BBX 8 17 2 -4
BITMAP
81
82
84
88
90
B0
E8
CC
84
82
82
81
81
00
18
04
18
ENDCHAR
STARTCHAR 0137
ENCODING 311
SWIDTH 462 0
DWIDTH 9 0
BBX 6 18 2 -4
BITMAP
80
80
80
80
84
88
90
90
B0
D0
88
88
84
84
00
30
10
70
ENDCHAR
STARTCHAR 0138
ENCODING 312
SWIDTH 462 0
DWIDTH 9 0
BBX 6 10 2 0
BITMAP
84
88
90
90
B0
D0
88
88
84
84
ENDCHAR
STARTCHAR 0139
ENCODING 313
SWIDTH 462 0
DWIDTH 9 0
BBX 7 16 2 1
BITMAP
40
80
00
80
80
80
80
80
80
80
80
80
80
80
80
FE
ENDCHAR
STARTCHAR 013A
ENCODING 314
SWIDTH 257 0
DWIDTH 5 0
BBX 2 17 2 1
BITMAP
40
80
00
80
80
80
80
80
80
80
80
80
80
80
80
80
80
ENDCHAR
STARTCHAR 013B
ENCODING 315
SWIDTH 462 0
DWIDTH 9 0
BBX 7 17 2 -4
BITMAP
80
80
80
80
80
80
80
80
80
80
80
80
FE
00
10
08
30
ENDCHAR
STARTCHAR 013C
ENCODING 316
SWIDTH 257 0
DWIDTH 5 0
BBX 3 18 1 -4
BITMAP
40
40
40
40
40
40
40
40
40
40
40
40
40
40
00
60
20
C0
ENDCHAR
STARTCHAR 013D
ENCODING 317
SWIDTH 462 0
DWIDTH 9 0
BBX 7 14 2 0
BITMAP
08
88
88
88
80
80
80
80
80
80
80
80
80
FE
ENDCHAR
STARTCHAR 013E
ENCODING 318
SWIDTH 257 0
DWIDTH 5 0
BBX 3 15 2 0
BITMAP
20
A0
A0
C0
80
80
80
80
80
80
80
80
80
80
80
ENDCHAR
STARTCHAR 013F
ENCODING 319
SWIDTH 462 0
DWIDTH 9 0
BBX 7 13 2 0
BITMAP
80
80
80
80
80
80
8C
8C
80
80
80
80
FE
ENDCHAR
STARTCHAR 0140
ENCODING 320
SWIDTH 308 0
DWIDTH 6 0
BBX 4 14 2 0
BITMAP
80
80
80
80
80
80
80
B0
90
80
80
80
80
80
ENDCHAR
STARTCHAR 0141
ENCODING 321
SWIDTH 462 0
DWIDTH 9 0
BBX 9 13 0 0
BITMAP
2000
2000
2000
2000
2000
2600
3800
6000
A000
2000
2000
2000
3F80
ENDCHAR
STARTCHAR 0142
ENCODING 322
SWIDTH 257 0
DWIDTH 5 0
BBX 4 14 0 0
BITMAP
20
20
20
20
20
30
60
A0
20
20
20
20
20
20
ENDCHAR
STARTCHAR 0143
ENCODING 323
SWIDTH 617 0
DWIDTH 12 0
BBX 8 16 2 1
BITMAP
04
08
00
81
C1
C1
A1
A1
91
89
89
85
85
83
81
81
ENDCHAR
STARTCHAR 0144
ENCODING 324
SWIDTH 514 0
DWIDTH 10 0
BBX 7 14 2 1
BITMAP
08
10
00
00
BC
C4
82
82
82
82
82
82
82
82
ENDCHAR
STARTCHAR 0145
ENCODING 325
SWIDTH 617 0
DWIDTH 12 0
BBX 8 17 2 -4
BITMAP
81
C1
C1
A1
A1
91
89
89
85
85
83
81
81
00
18
04
18
ENDCHAR
STARTCHAR 0146
ENCODING 326
SWIDTH 514 0
DWIDTH 10 0
BBX 7 14 2 -4
BITMAP
BC
C4
82
82
82
82
82
82
82
82
00
30
08
30
ENDCHAR
STARTCHAR 0147
ENCODING 327
SWIDTH 617 0
DWIDTH 12 0
BBX 8 17 2 0
BITMAP
02
24
18
00
81
C1
C1
A1
A1
91
89
89
85
85
83
81
81
ENDCHAR
STARTCHAR 0148
ENCODING 328
SWIDTH 514 0
DWIDTH 10 0
BBX 7 14 2 0
BITMAP
44
28
10
00
BC
C4
82
82
82
82
82
82
82
82
ENDCHAR
STARTCHAR 0149
ENCODING 329
SWIDTH 720 0
DWIDTH 14 0
BBX 11 14 1 0
BITMAP
4000
4000
4000
8000
09C0
0E20
0820
0820
0820
0820
0820
0820
0820
0820
ENDCHAR
STARTCHAR 014A
ENCODING 330
SWIDTH 617 0
DWIDTH 12 0
BBX 9 13 2 0
BITMAP
9E00
E300
8100
8080
8080
8080
8080
8080
8080
8080
8100
8100
8600
ENDCHAR
STARTCHAR 014B
ENCODING 331
SWIDTH 514 0
DWIDTH 10 0
BBX 7 14 2 -4
BITMAP
BC
C4
82
82
82
82
82
82
82
82
02
02
04
1C
ENDCHAR
STARTCHAR 014C
ENCODING 332
SWIDTH 668 0
DWIDTH 13 0
BBX 11 15 1 0
BITMAP
1F00
0000
1F00
2080
4040
4040
8040
8020
8020
8020
8040
4040
4040
2080
1F00
ENDCHAR
STARTCHAR 014D
ENCODING 333
SWIDTH 514 0
DWIDTH 10 0
BBX 8 13 1 0
BITMAP
3E
00
00
3C
42
81
81
81
81
81
81
42
3C
ENDCHAR
STARTCHAR 014E
ENCODING 334
SWIDTH 668 0
DWIDTH 13 0
BBX 11 16 1 1
BITMAP
1100
0E00
0000
1F00
2080
4040
4040
8040
8020
8020
8020
8040
4040
4040
2080
1F00
ENDCHAR
STARTCHAR 014F
ENCODING 335
SWIDTH 514 0
DWIDTH 10 0
BBX 8 14 1 0
BITMAP
42
22
1C
00
3C
42
81
81
81
81
81
81
42
3C
ENDCHAR
STARTCHAR 0150
ENCODING 336
SWIDTH 668 0
DWIDTH 13 0
BBX 11 17 1 0
BITMAP
0480
0900
0900
0000
1F00
2080
4040
4040
8040
8020
8020
8020
8040
4040
4040
2080
1F00
ENDCHAR
STARTCHAR 0151
ENCODING 337
SWIDTH 514 0
DWIDTH 10 0
BBX 8 14 1 0
BITMAP
0A
12
04
00
3C
42
81
81
81
81
81
81
42
3C
ENDCHAR
STARTCHAR 0152
ENCODING 338
SWIDTH 822 0
DWIDTH 16 0
BBX 14 13 1 0
BITMAP
1FFC
2100
4100
4100
8100
8100
81F8
8100
8100
4100
4100
2100
1FFC
ENDCHAR
STARTCHAR 0153
ENCODING 339
SWIDTH 822 0
DWIDTH 16 0
BBX 15 10 1 0
BITMAP
3C38
42C4
8182
8102
81FE
8100
8100
8180
42C0
3C3C
ENDCHAR
STARTCHAR 0154
ENCODING 340
SWIDTH 565 0
DWIDTH 11 0
BBX 8 16 2 1
BITMAP
08
10
00
FC
82
81
81
81
82
FC
88
88
84
82
82
81
ENDCHAR
STARTCHAR 0155
ENCODING 341
SWIDTH 308 0
DWIDTH 6 0
BBX 4 15 2 0
BITMAP
10
30
40
00
00
B0
C0
80
80
80
80
80
80
80
80
ENDCHAR
STARTCHAR 0156
ENCODING 342
SWIDTH 565 0
DWIDTH 11 0
BBX 8 17 2 -4
BITMAP
FC
82
81
81
81
82
FC
88
88
84
82
82
81
00
10
08
30
ENDCHAR
STARTCHAR 0157
ENCODING 343
SWIDTH 308 0
DWIDTH 6 0
BBX 5 14 1 -4
BITMAP
58
60
40
40
40
40
40
40
40
40
00
C0
40
C0
ENDCHAR
STARTCHAR 0158
ENCODING 344
SWIDTH 565 0
DWIDTH 11 0
BBX 8 16 2 1
BITMAP
48
30
00
FC
82
81
81
81
82
FC
88
88
84
82
82
81
ENDCHAR
STARTCHAR 0159
ENCODING 345
SWIDTH 308 0
DWIDTH 6 0
BBX 5 14 1 0
BITMAP
88
50
20
00
58
60
40
40
40
40
40
40
40
40
ENDCHAR
STARTCHAR 015A
ENCODING 346
SWIDTH 514 0
DWIDTH 10 0
BBX 8 16 1 1
BITMAP
04
08
00
3C
43
40
40
40
30
0C
03
01
01
01
C1
3E
ENDCHAR
STARTCHAR 015B
ENCODING 347
SWIDTH 411 0
DWIDTH 8 0
BBX 6 14 1 1
BITMAP
08
10
20
00
78
80
80
80
60
18
04
04
84
78
ENDCHAR
STARTCHAR 015C
ENCODING 348
SWIDTH 514 0
DWIDTH 10 0
BBX 8 16 1 0
BITMAP
18
24
00
3C
43
40
40
40
30
0C
03
01
01
01
C1
3E
ENDCHAR
STARTCHAR 015D
ENCODING 349
SWIDTH 411 0
DWIDTH 8 0
BBX 6 15 1 0
BITMAP
30
28
48
00
00
78
80
80
80
60
18
04
04
84
78
ENDCHAR
STARTCHAR 015E
ENCODING 350
SWIDTH 514 0
DWIDTH 10 0
BBX 8 17 1 -4
BITMAP
3C
43
40
40
40
30
0C
03
01
01
01
C1
3E
10
08
04
18
ENDCHAR
STARTCHAR 015F
ENCODING 351
SWIDTH 411 0
DWIDTH 8 0
BBX 6 14 1 -4
BITMAP
78
80
80
80
60
18
04
04
84
78
20
10
10
30
ENDCHAR
STARTCHAR 0160
ENCODING 352
SWIDTH 514 0
DWIDTH 10 0
BBX 8 17 1 0
BITMAP
02
24
18
00
3C
43
40
40
40
30
0C
03
01
01
01
C1
3E
ENDCHAR
STARTCHAR 0161
ENCODING 353
SWIDTH 411 0
DWIDTH 8 0
BBX 6 14 1 0
BITMAP
48
28
30
00
78
80
80
80
60
18
04
04
84
78
ENDCHAR
STARTCHAR 0162
ENCODING 354
SWIDTH 514 0
DWIDTH 10 0
BBX 9 17 1 -4
BITMAP
FF80
0800
0800
0800
0800
0800
0800
0800
0800
0800
0800
0800
0800
1000
1800
0800
3800
ENDCHAR
STARTCHAR 0163
ENCODING 355
SWIDTH 308 0
DWIDTH 6 0
BBX 5 17 1 -4
BITMAP
40
40
40
F8
40
40
40
40
40
40
40
40
38
20
30
10
70
ENDCHAR
STARTCHAR 0164
ENCODING 356
SWIDTH 514 0
DWIDTH 10 0
BBX 9 16 1 1
BITMAP
2400
1800
0000
FF80
0800
0800
0800
0800
0800
0800
0800
0800
0800
0800
0800
0800
ENDCHAR
STARTCHAR 0165
ENCODING 357
SWIDTH 308 0
DWIDTH 6 0
BBX 5 15 1 1
BITMAP
10
10
50
40
40
F8
40
40
40
40
40
40
40
40
38
ENDCHAR
STARTCHAR 0166
ENCODING 358
SWIDTH 514 0
DWIDTH 10 0
BBX 9 13 1 0
BITMAP
FF80
0800
0800
0800
0800
0800
7E00
0800
0800
0800
0800
0800
0800
ENDCHAR
STARTCHAR 0167
ENCODING 359
SWIDTH 308 0
DWIDTH 6 0
BBX 5 13 1 0
BITMAP
40
40
40
F8
40
40
40
F8
40
40
40
40
38
ENDCHAR
STARTCHAR 0168
ENCODING 360
SWIDTH 617 0
DWIDTH 12 0
BBX 8 17 2 0
BITMAP
30
4A
44
00
81
81
81
81
81
81
81
81
81
81
81
43
3C
ENDCHAR
STARTCHAR 0169
ENCODING 361
SWIDTH 514 0
DWIDTH 10 0
BBX 6 15 2 0
BITMAP
40
A4
9C
00
00
84
84
84
84
84
84
84
84
8C
74
ENDCHAR
STARTCHAR 016A
ENCODING 362
SWIDTH 617 0
DWIDTH 12 0
BBX 8 15 2 0
BITMAP
3E
00
81
81
81
81
81
81
81
81
81
81
81
43
3C
ENDCHAR
STARTCHAR 016B
ENCODING 363
SWIDTH 514 0
DWIDTH 10 0
BBX 6 13 2 0
BITMAP
78
00
00
84
84
84
84
84
84
84
84
8C
74
ENDCHAR
STARTCHAR 016C
ENCODING 364
SWIDTH 617 0
DWIDTH 12 0
BBX 8 16 2 1
BITMAP
22
1C
00
81
81
81
81
81
81
81
81
81
81
81
43
3C
ENDCHAR
STARTCHAR 016D
ENCODING 365
SWIDTH 514 0
DWIDTH 10 0
BBX 6 14 2 0
BITMAP
84
44
38
00
84
84
84
84
84
84
84
84
8C
74
ENDCHAR
STARTCHAR 016E
ENCODING 366
SWIDTH 617 0
DWIDTH 12 0
BBX 8 17 2 0
BITMAP
18
24
24
18
81
81
81
81
81
81
81
81
81
81
81
43
3C
ENDCHAR
STARTCHAR 016F
ENCODING 367
SWIDTH 514 0
DWIDTH 10 0
BBX 6 15 2 0
BITMAP
30
48
48
30
00
84
84
84
84
84
84
84
84
8C
74
ENDCHAR
STARTCHAR 0170
ENCODING 368
SWIDTH 617 0
DWIDTH 12 0
BBX 8 17 2 0
BITMAP
09
12
24
00
81
81
81
81
81
81
81
81
81
81
81
43
3C
ENDCHAR
STARTCHAR 0171
ENCODING 369
SWIDTH 514 0
DWIDTH 10 0
BBX 6 14 2 0
BITMAP
14
24
00
00
84
84
84
84
84
84
84
84
8C
74
ENDCHAR
STARTCHAR 0172
ENCODING 370
SWIDTH 617 0
DWIDTH 12 0
BBX 8 17 2 -4
BITMAP
81
81
81
81
81
81
81
81
81
81
81
42
3C
08
10
10
0C
ENDCHAR
STARTCHAR 0173
ENCODING 371
SWIDTH 514 0
DWIDTH 10 0
BBX 6 14 2 -4
BITMAP
84
84
84
84
84
84
84
84
8C
74
04
08
08
04
ENDCHAR
STARTCHAR 0174
ENCODING 372
SWIDTH 771 0
DWIDTH 15 0
BBX 13 17 1 0
BITMAP
0200
0500
0880
0000
8208
8608
8508
8508
8510
4910
4890
4890
4890
50A0
3060
3060
3060
ENDCHAR
STARTCHAR 0175
ENCODING 373
SWIDTH 668 0
DWIDTH 13 0
BBX 12 15 1 0
BITMAP
0400
0A00
1100
0000
0000
8410
8A20
8A20
8A20
4A20
5140
5140
5140
3140
2080
ENDCHAR
STARTCHAR 0176
ENCODING 374
SWIDTH 462 0
DWIDTH 9 0
BBX 8 17 0 0
BITMAP
08
14
22
00
81
41
42
22
24
14
18
08
08
08
08
08
08
ENDCHAR
STARTCHAR 0177
ENCODING 375
SWIDTH 411 0
DWIDTH 8 0
BBX 8 19 0 -4
BITMAP
08
14
22
00
00
81
41
42
42
22
24
14
14
18
08
08
10
10
60
ENDCHAR
STARTCHAR 0178
ENCODING 376
SWIDTH 462 0
DWIDTH 9 0
BBX 8 15 0 0
BITMAP
22
00
81
41
42
22
24
14
18
08
08
08
08
08
08
ENDCHAR
STARTCHAR 0179
ENCODING 377
SWIDTH 514 0
DWIDTH 10 0
BBX 9 16 1 1
BITMAP
0400
0800
0000
7F00
0100
0200
0200
0400
0800
0800
1000
2000
2000
4000
4000
FF80
ENDCHAR
STARTCHAR 017A
ENCODING 378
SWIDTH 411 0
DWIDTH 8 0
BBX 6 14 1 1
BITMAP
08
10
00
00
FC
08
08
10
10
20
40
40
80
FC
ENDCHAR
STARTCHAR 017B
ENCODING 379
SWIDTH 514 0
DWIDTH 10 0
BBX 9 16 1 0
BITMAP
0800
0800
0000
7F00
0100
0200
0200
0400
0800
0800
1000
2000
2000
4000
4000
FF80
ENDCHAR
STARTCHAR 017C
ENCODING 380
SWIDTH 411 0
DWIDTH 8 0
BBX 6 14 1 0
BITMAP
10
10
00
00
FC
08
08
10
10
20
40
40
80
FC
ENDCHAR
STARTCHAR 017D
ENCODING 381
SWIDTH 514 0
DWIDTH 10 0
BBX 9 16 1 1
BITMAP
2600
1800
0000
7F00
0100
0200
0200
0400
0800
0800
1000
2000
2000
4000
4000
FF80
ENDCHAR
STARTCHAR 017E
ENCODING 382
SWIDTH 411 0
DWIDTH 8 0
BBX 6 15 1 0
BITMAP
44
28
30
00
00
FC
08
08
10
10
20
40
40
80
FC
ENDCHAR
STARTCHAR 0180
ENCODING 384
SWIDTH 514 0
DWIDTH 10 0
BBX 10 14 0 0
BITMAP
2000
2000
FC00
2000
2000
2F00
3080
2080
2040
2040
2080
2080
2180
3E00
ENDCHAR
STARTCHAR 018F
ENCODING 399
SWIDTH 668 0
DWIDTH 13 0
BBX 11 13 1 0
BITMAP
1F00
2080
0040
0040
0040
0040
FFE0
8040
8040
4040
4040
2080
1F00
ENDCHAR
STARTCHAR 0192
ENCODING 402
SWIDTH 462 0
DWIDTH 9 0
BBX 9 15 0 -2
BITMAP
0380
0400
0800
0800
0800
3F00
0800
0800
0800
0800
1000
1000
1000
1000
E000
ENDCHAR
STARTCHAR 0193
ENCODING 403
SWIDTH 617 0
DWIDTH 12 0
BBX 11 16 1 0
BITMAP
0060
0080
0080
1F80
2080
4000
8000
8000
8000
8780
8080
8080
4080
4080
2080
1F00
ENDCHAR
STARTCHAR 01A0
ENCODING 416
SWIDTH 668 0
DWIDTH 13 0
BBX 11 15 1 1
BITMAP
0020
0040
1FC0
2080
4040
4040
8040
8020
8020
8020
8040
4040
4040
2080
1F00
ENDCHAR
STARTCHAR 01A1
ENCODING 417
SWIDTH 514 0
DWIDTH 10 0
BBX 9 13 1 0
BITMAP
0080
0080
0080
3F00
4200
8100
8100
8100
8100
8100
8100
4200
3C00
ENDCHAR
STARTCHAR 01AF
ENCODING 431
SWIDTH 668 0
DWIDTH 13 0
BBX 11 16 2 0
BITMAP
0040
0020
0040
8080
8100
8100
8100
8100
8100
8100
8100
8100
8100
8100
4300
3C00
ENDCHAR
STARTCHAR 01B0
ENCODING 432
SWIDTH 514 0
DWIDTH 10 0
BBX 8 13 2 0
BITMAP
01
01
01
86
84
84
84
84
84
84
84
8C
74
ENDCHAR
STARTCHAR 01C2
ENCODING 450
SWIDTH 257 0
DWIDTH 5 0
BBX 5 19 0 -5
BITMAP
20
20
20
20
20
20
20
F8
20
20
F8
20
20
20
20
20
20
20
20
ENDCHAR
STARTCHAR 01CD
ENCODING 461
SWIDTH 514 0
DWIDTH 10 0
BBX 10 16 0 1
BITMAP
1200
0C00
0000
0C00
0C00
0C00
1200
1200
1200
2100
2100
3F00
4080
4080
4040
8040
ENDCHAR
STARTCHAR 01CE
ENCODING 462
SWIDTH 514 0
DWIDTH 10 0
BBX 7 14 1 0
BITMAP
24
28
18
00
3C
42
02
02
1E
62
82
82
86
7A
ENDCHAR
STARTCHAR 01CF
ENCODING 463
SWIDTH 257 0
DWIDTH 5 0
BBX 5 17 0 0
BITMAP
08
90
60
00
20
20
20
20
20
20
20
20
20
20
20
20
20
ENDCHAR
STARTCHAR 01D0
ENCODING 464
SWIDTH 205 0
DWIDTH 4 0
BBX 5 15 0 0
BITMAP
88
90
60
00
00
20
20
20
20
20
20
20
20
20
20
ENDCHAR
STARTCHAR 01D1
ENCODING 465
SWIDTH 668 0
DWIDTH 13 0
BBX 11 17 1 0
BITMAP
0100
1200
0C00
0000
1F00
2080
4040
4040
8040
8020
8020
8020
8040
4040
4040
2080
1F00
ENDCHAR
STARTCHAR 01D2
ENCODING 466
SWIDTH 514 0
DWIDTH 10 0
BBX 8 14 1 0
BITMAP
24
14
08
00
3C
42
81
81
81
81
81
81
42
3C
ENDCHAR
STARTCHAR 01D3
ENCODING 467
SWIDTH 617 0
DWIDTH 12 0
BBX 8 16 2 1
BITMAP
24
18
00
81
81
81
81
81
81
81
81
81
81
81
43
3C
ENDCHAR
STARTCHAR 01D4
ENCODING 468
SWIDTH 514 0
DWIDTH 10 0
BBX 6 15 2 0
BITMAP
44
48
30
00
00
84
84
84
84
84
84
84
84
8C
74
ENDCHAR
STARTCHAR 01D5
ENCODING 469
SWIDTH 617 0
DWIDTH 12 0
BBX 8 18 2 0
BITMAP
3E
00
00
26
00
81
81
81
81
81
81
81
81
81
81
81
43
3C
ENDCHAR
STARTCHAR 01D6
ENCODING 470
SWIDTH 514 0
DWIDTH 10 0
BBX 6 15 2 0
BITMAP
7C
00
4C
00
00
84
84
84
84
84
84
84
84
8C
74
ENDCHAR
STARTCHAR 01D7
ENCODING 471
SWIDTH 617 0
DWIDTH 12 0
BBX 8 18 2 0
BITMAP
04
08
00
26
00
81
81
81
81
81
81
81
81
81
81
81
43
3C
ENDCHAR
STARTCHAR 01D8
ENCODING 472
SWIDTH 514 0
DWIDTH 10 0
BBX 6 16 2 0
BITMAP
08
10
00
4C
00
00
84
84
84
84
84
84
84
84
8C
74
ENDCHAR
STARTCHAR 01D9
ENCODING 473
SWIDTH 617 0
DWIDTH 12 0
BBX 8 18 2 0
BITMAP
24
18
00
26
00
81
81
81
81
81
81
81
81
81
81
81
43
3C
ENDCHAR
STARTCHAR 01DA
ENCODING 474
SWIDTH 514 0
DWIDTH 10 0
BBX 6 16 2 0
BITMAP
48
30
00
4C
00
00
84
84
84
84
84
84
84
84
8C
74
ENDCHAR
STARTCHAR 01DB
ENCODING 475
SWIDTH 617 0
DWIDTH 12 0
BBX 8 18 2 0
BITMAP
10
10
00
26
00
81
81
81
81
81
81
81
81
81
81
81
43
3C
ENDCHAR
STARTCHAR 01DC
ENCODING 476
SWIDTH 514 0
DWIDTH 10 0
BBX 6 16 2 0
BITMAP
20
20
00
4C
00
00
84
84
84
84
84
84
84
84
8C
74
ENDCHAR
STARTCHAR 01E2
ENCODING 482
SWIDTH 822 0
DWIDTH 16 0
BBX 14 16 1 0
BITMAP
00F8
0000
0000
03FC
0300
0500
0500
0900
1900
11F8
2100
3F00
4100
4100
8100
81FC
ENDCHAR
STARTCHAR 01E3
ENCODING 483
SWIDTH 771 0
DWIDTH 15 0
BBX 13 13 1 0
BITMAP
0780
0000
0000
3CF0
4308
0308
0208
1FF8
6200
8200
8300
8500
78F8
ENDCHAR
STARTCHAR 01E6
ENCODING 486
SWIDTH 617 0
DWIDTH 12 0
BBX 9 17 1 0
BITMAP
1000
0900
0600
0000
1F00
2080
4000
8000
8000
8000
8780
8080
8080
4080
4080
2080
1F00
ENDCHAR
STARTCHAR 01E7
ENCODING 487
SWIDTH 462 0
DWIDTH 9 0
BBX 8 20 1 -5
BITMAP
42
24
18
00
00
3F
42
82
82
42
44
78
80
40
7E
81
81
81
42
3C
ENDCHAR
STARTCHAR 01EA
ENCODING 490
SWIDTH 668 0
DWIDTH 13 0
BBX 11 17 1 -4
BITMAP
1F00
2080
4040
4040
8040
8020
8020
8020
8040
4040
4040
2080
1F00
0400
0800
0800
0600
ENDCHAR
STARTCHAR 01EB
ENCODING 491
SWIDTH 514 0
DWIDTH 10 0
BBX 8 14 1 -4
BITMAP
3C
42
81
81
81
81
81
81
42
3C
08
10
10
0C
ENDCHAR
STARTCHAR 01F4
ENCODING 500
SWIDTH 617 0
DWIDTH 12 0
BBX 9 16 1 1
BITMAP
0200
0400
0000
1F00
2080
4000
8000
8000
8000
8780
8080
8080
4080
4080
2080
1F00
ENDCHAR
STARTCHAR 01F5
ENCODING 501
SWIDTH 462 0
DWIDTH 9 0
BBX 8 19 1 -4
BITMAP
04
08
10
00
3F
42
82
82
42
44
78
80
40
7E
81
81
81
42
3C
ENDCHAR
STARTCHAR 01F8
ENCODING 504
SWIDTH 617 0
DWIDTH 12 0
BBX 8 17 2 0
BITMAP
20
10
08
00
81
C1
C1
A1
A1
91
89
89
85
85
83
81
81
ENDCHAR
STARTCHAR 01F9
ENCODING 505
SWIDTH 514 0
DWIDTH 10 0
BBX 7 14 2 1
BITMAP
20
10
00
00
BC
C4
82
82
82
82
82
82
82
82
ENDCHAR
STARTCHAR 01FC
ENCODING 508
SWIDTH 822 0
DWIDTH 16 0
BBX 14 16 1 1
BITMAP
0010
0020
0000
03FC
0300
0500
0500
0900
1900
11F8
2100
3F00
4100
4100
8100
81FC
ENDCHAR
STARTCHAR 01FD
ENCODING 509
SWIDTH 771 0
DWIDTH 15 0
BBX 13 15 1 0
BITMAP
0080
0100
0200
0000
0000
3CF0
4308
0308
0208
1FF8
6200
8200
8300
8500
78F8
ENDCHAR
STARTCHAR 0218
ENCODING 536
SWIDTH 514 0
DWIDTH 10 0
BBX 8 17 1 -4
BITMAP
3C
43
40
40
40
30
0C
03
01
01
01
C1
3E
00
18
04
18
ENDCHAR
STARTCHAR 0219
ENCODING 537
SWIDTH 411 0
DWIDTH 8 0
BBX 6 14 1 -4
BITMAP
78
80
80
80
60
18
04
04
84
78
00
30
08
30
ENDCHAR
STARTCHAR 021A
ENCODING 538
SWIDTH 514 0
DWIDTH 10 0
BBX 9 17 1 -4
BITMAP
FF80
0800
0800
0800
0800
0800
0800
0800
0800
0800
0800
0800
0800
0000
1800
0800
3800
ENDCHAR
STARTCHAR 021B
ENCODING 539
SWIDTH 308 0
DWIDTH 6 0
BBX 5 17 1 -4
BITMAP
40
40
40
F8
40
40
40
40
40
40
40
40
38
00
30
10
60
ENDCHAR
STARTCHAR 0237
ENCODING 567
SWIDTH 205 0
DWIDTH 4 0
BBX 4 14 -1 -4
BITMAP
10
10
10
10
10
10
10
10
10
10
10
10
10
E0
ENDCHAR
STARTCHAR 0243
ENCODING 579
SWIDTH 565 0
DWIDTH 11 0
BBX 10 13 1 0
BITMAP
7E00
4100
4080
4080
4080
4100
7E00
4180
4040
F840
4080
4080
7F00
ENDCHAR
STARTCHAR 0250
ENCODING 592
SWIDTH 514 0
DWIDTH 10 0
BBX 6 10 2 0
BITMAP
3C
C4
84
84
8C
F0
80
80
80
7C
ENDCHAR
STARTCHAR 0251
ENCODING 593
SWIDTH 565 0
DWIDTH 11 0
BBX 8 10 1 0
BITMAP
3D
43
41
81
81
81
81
81
43
3D
ENDCHAR
STARTCHAR 0252
ENCODING 594
SWIDTH 565 0
DWIDTH 11 0
BBX 8 10 2 0
BITMAP
BC
C2
82
82
81
81
82
82
84
F8
ENDCHAR
STARTCHAR 0253
ENCODING 595
SWIDTH 565 0
DWIDTH 11 0
BBX 8 14 2 0
BITMAP
70
80
80
80
BC
C2
82
82
81
81
82
82
84
F8
ENDCHAR
STARTCHAR 0254
ENCODING 596
SWIDTH 462 0
DWIDTH 9 0
BBX 7 10 1 0
BITMAP
78
8C
04
02
02
02
02
04
0C
70
ENDCHAR
STARTCHAR 0255
ENCODING 597
SWIDTH 462 0
DWIDTH 9 0
BBX 7 11 1 -1
BITMAP
3C
42
80
80
80
80
8C
92
62
7C
80
ENDCHAR
STARTCHAR 0256
ENCODING 598
SWIDTH 565 0
DWIDTH 11 0
BBX 10 17 1 -3
BITMAP
0100
0100
0100
0100
3D00
4300
4100
8100
8100
8100
8100
8100
4300
3D00
0100
0100
01C0
ENDCHAR
STARTCHAR 0257
ENCODING 599
SWIDTH 565 0
DWIDTH 11 0
BBX 10 14 1 0
BITMAP
01C0
0100
0100
0100
3D00
4300
4100
8100
8100
8100
8100
8100
4300
3D00
ENDCHAR
STARTCHAR 0258
ENCODING 600
SWIDTH 462 0
DWIDTH 9 0
BBX 7 10 1 0
BITMAP
38
C4
82
82
FE
02
02
02
84
78
ENDCHAR
STARTCHAR 0259
ENCODING 601
SWIDTH 462 0
DWIDTH 9 0
BBX 7 10 1 0
BITMAP
78
04
02
02
02
FE
82
82
84
78
ENDCHAR
STARTCHAR 025A
ENCODING 602
SWIDTH 617 0
DWIDTH 12 0
BBX 11 10 1 0
BITMAP
7800
0400
0280
0380
1E60
6200
8200
8200
4400
3800
ENDCHAR
STARTCHAR 025B
ENCODING 603
SWIDTH 411 0
DWIDTH 8 0
BBX 7 10 1 0
BITMAP
3C
40
80
40
38
40
80
80
82
7C
ENDCHAR
STARTCHAR 025C
ENCODING 604
SWIDTH 462 0
DWIDTH 9 0
BBX 7 10 1 0
BITMAP
78
04
04
04
38
04
02
02
84
78
ENDCHAR
STARTCHAR 025E
ENCODING 606
SWIDTH 514 0
DWIDTH 10 0
BBX 8 10 1 0
BITMAP
3C
42
81
41
39
41
81
81
C2
3C
ENDCHAR
STARTCHAR 025F
ENCODING 607
SWIDTH 257 0
DWIDTH 5 0
BBX 5 14 0 -4
BITMAP
20
20
20
20
F8
20
20
20
20
20
20
20
20
C0
ENDCHAR
STARTCHAR 0260
ENCODING 608
SWIDTH 565 0
DWIDTH 11 0
BBX 10 17 1 -4
BITMAP
00C0
0100
0100
3D00
4300
4100
8100
8100
8100
8100
8100
4300
3D00
0100
0100
0200
7C00
ENDCHAR
STARTCHAR 0261
ENCODING 609
SWIDTH 565 0
DWIDTH 11 0
BBX 8 14 1 -4
BITMAP
3D
43
41
81
81
81
81
81
43
3D
01
01
02
7C
ENDCHAR
STARTCHAR 0262
ENCODING 610
SWIDTH 462 0
DWIDTH 9 0
BBX 7 10 1 0
BITMAP
3C
42
80
80
80
8E
82
82
42
3C
ENDCHAR
STARTCHAR 0263
ENCODING 611
SWIDTH 411 0
DWIDTH 8 0
BBX 8 14 0 -5
BITMAP
81
41
42
22
24
24
14
18
08
18
14
24
14
18
ENDCHAR
STARTCHAR 0264
ENCODING 612
SWIDTH 462 0
DWIDTH 9 0
BBX 9 10 0 0
BITMAP
E380
1400
0800
1400
2200
2200
4100
4100
2200
1E00
ENDCHAR
STARTCHAR 0265
ENCODING 613
SWIDTH 514 0
DWIDTH 10 0
BBX 7 14 2 -4
BITMAP
82
82
82
82
82
82
82
82
8E
72
02
02
02
02
ENDCHAR
STARTCHAR 0266
ENCODING 614
SWIDTH 514 0
DWIDTH 10 0
BBX 7 14 2 0
BITMAP
70
80
80
80
BC
C4
82
82
82
82
82
82
82
82
ENDCHAR
STARTCHAR 0267
ENCODING 615
SWIDTH 514 0
DWIDTH 10 0
BBX 7 18 2 -4
BITMAP
70
80
80
80
BC
C4
82
82
82
82
82
82
82
82
02
02
04
1C
ENDCHAR
STARTCHAR 0268
ENCODING 616
SWIDTH 257 0
DWIDTH 5 0
BBX 5 14 0 0
BITMAP
20
20
00
00
20
20
20
20
F8
20
20
20
20
20
ENDCHAR
STARTCHAR 026A
ENCODING 618
SWIDTH 308 0
DWIDTH 6 0
BBX 4 10 1 0
BITMAP
F0
40
40
40
40
40
40
40
40
F0
ENDCHAR
STARTCHAR 026C
ENCODING 620
SWIDTH 257 0
DWIDTH 5 0
BBX 5 15 0 0
BITMAP
20
20
20
20
20
E0
A0
F8
20
20
20
20
20
20
10
ENDCHAR
STARTCHAR 026D
ENCODING 621
SWIDTH 257 0
DWIDTH 5 0
BBX 3 18 2 -4
BITMAP
80
80
80
80
80
80
80
80
80
80
80
80
80
80
80
80
80
60
ENDCHAR
STARTCHAR 026E
ENCODING 622
SWIDTH 565 0
DWIDTH 11 0
BBX 8 19 2 -4
BITMAP
80
80
80
80
80
FF
82
84
84
88
90
9E
83
81
01
01
01
42
3C
ENDCHAR
STARTCHAR 026F
ENCODING 623
SWIDTH 822 0
DWIDTH 16 0
BBX 12 10 2 0
BITMAP
8410
8410
8410
8410
8410
8410
8410
8410
8A30
73D0
ENDCHAR
STARTCHAR 0270
ENCODING 624
SWIDTH 822 0
DWIDTH 16 0
BBX 12 14 2 -4
BITMAP
8410
8410
8410
8410
8410
8410
8410
8410
8A30
73D0
0010
0010
0010
0010
ENDCHAR
STARTCHAR 0271
ENCODING 625
SWIDTH 822 0
DWIDTH 16 0
BBX 12 14 2 -4
BITMAP
B8E0
C510
8610
8410
8410
8410
8410
8410
8410
8410
0010
0010
0010
0060
ENDCHAR
STARTCHAR 0272
ENCODING 626
SWIDTH 514 0
DWIDTH 10 0
BBX 9 14 0 -4
BITMAP
2F00
3100
2080
2080
2080
2080
2080
2080
2080
2080
2000
2000
4000
C000
ENDCHAR
STARTCHAR 0273
ENCODING 627
SWIDTH 514 0
DWIDTH 10 0
BBX 9 14 2 -4
BITMAP
BC00
C400
8200
8200
8200
8200
8200
8200
8200
8200
0200
0200
0200
0180
ENDCHAR
STARTCHAR 0274
ENCODING 628
SWIDTH 514 0
DWIDTH 10 0
BBX 7 10 2 0
BITMAP
82
C2
C2
A2
A2
92
92
8A
86
86
ENDCHAR
STARTCHAR 0275
ENCODING 629
SWIDTH 514 0
DWIDTH 10 0
BBX 8 10 1 0
BITMAP
3C
42
81
81
FF
81
81
81
42
3C
ENDCHAR
STARTCHAR 0276
ENCODING 630
SWIDTH 668 0
DWIDTH 13 0
BBX 12 10 1 0
BITMAP
3FF0
4200
8200
8200
83E0
8200
8200
4200
4200
3FF0
ENDCHAR
STARTCHAR 0278
ENCODING 632
SWIDTH 668 0
DWIDTH 13 0
BBX 11 18 1 -4
BITMAP
0400
0400
0400
0400
1F00
6480
4440
8440
8420
8420
8440
4440
6480
1F00
0400
0400
0400
0400
ENDCHAR
STARTCHAR 0279
ENCODING 633
SWIDTH 308 0
DWIDTH 6 0
BBX 4 9 0 1
BITMAP
10
10
10
10
10
10
10
30
C0
ENDCHAR
STARTCHAR 027A
ENCODING 634
SWIDTH 308 0
DWIDTH 6 0
BBX 4 14 0 0
BITMAP
10
10
10
10
10
10
10
10
10
10
10
10
30
C0
ENDCHAR
STARTCHAR 027B
ENCODING 635
SWIDTH 308 0
DWIDTH 6 0
BBX 6 12 0 -2
BITMAP
10
10
10
10
10
10
10
30
D0
10
10
0C
ENDCHAR
STARTCHAR 027D
ENCODING 637
SWIDTH 308 0
DWIDTH 6 0
BBX 4 14 2 -4
BITMAP
B0
C0
80
80
80
80
80
80
80
80
80
80
80
60
ENDCHAR
STARTCHAR 027E
ENCODING 638
SWIDTH 308 0
DWIDTH 6 0
BBX 4 10 2 0
BITMAP
70
80
80
80
80
80
80
80
80
80
ENDCHAR
STARTCHAR 0280
ENCODING 640
SWIDTH 462 0
DWIDTH 9 0
BBX 6 10 2 0
BITMAP
F8
84
84
84
8C
F0
90
88
84
84
ENDCHAR
STARTCHAR 0281
ENCODING 641
SWIDTH 462 0
DWIDTH 9 0
BBX 6 9 1 0
BITMAP
84
44
44
24
7C
84
84
84
7C
ENDCHAR
STARTCHAR 0282
ENCODING 642
SWIDTH 411 0
DWIDTH 8 0
BBX 6 13 1 -3
BITMAP
78
80
80
80
60
18
04
04
04
F8
80
80
E0
ENDCHAR
STARTCHAR 0283
ENCODING 643
SWIDTH 205 0
DWIDTH 4 0
BBX 6 18 -1 -4
BITMAP
0C
10
10
10
10
10
10
10
10
10
10
10
10
10
10
10
10
E0
ENDCHAR
STARTCHAR 0284
ENCODING 644
SWIDTH 257 0
DWIDTH 5 0
BBX 5 18 0 -4
BITMAP
18
20
20
20
20
20
20
20
20
F8
20
20
20
20
20
20
20
C0
ENDCHAR
STARTCHAR 0288
ENCODING 648
SWIDTH 308 0
DWIDTH 6 0
BBX 5 17 1 -4
BITMAP
40
40
40
F8
40
40
40
40
40
40
40
40
40
40
40
40
38
ENDCHAR
STARTCHAR 0289
ENCODING 649
SWIDTH 565 0
DWIDTH 11 0
BBX 10 10 0 0
BITMAP
2080
2080
2080
FFC0
2080
2080
2080
2080
2180
1E80
ENDCHAR
STARTCHAR 028A
ENCODING 650
SWIDTH 514 0
DWIDTH 10 0
BBX 9 10 1 0
BITMAP
E780
4200
4100
8100
8100
8100
8100
8100
4200
3C00
ENDCHAR
STARTCHAR 028B
ENCODING 651
SWIDTH 514 0
DWIDTH 10 0
BBX 7 10 2 0
BITMAP
9C
86
82
82
82
82
82
84
84
78
ENDCHAR
STARTCHAR 028C
ENCODING 652
SWIDTH 411 0
DWIDTH 8 0
BBX 8 9 0 1
BITMAP
08
18
14
24
24
42
42
41
81
ENDCHAR
STARTCHAR 028D
ENCODING 653
SWIDTH 668 0
DWIDTH 13 0
BBX 13 10 0 0
BITMAP
1040
28C0
28A0
28A0
28A0
4510
4510
4510
4510
8208
ENDCHAR
STARTCHAR 028E
ENCODING 654
SWIDTH 411 0
DWIDTH 8 0
BBX 8 14 0 0
BITMAP
03
04
08
08
10
18
18
24
24
24
42
42
41
81
ENDCHAR
STARTCHAR 028F
ENCODING 655
SWIDTH 360 0
DWIDTH 7 0
BBX 7 9 0 0
BITMAP
82
44
44
28
18
10
10
10
10
ENDCHAR
STARTCHAR 0290
ENCODING 656
SWIDTH 411 0
DWIDTH 8 0
BBX 8 14 1 -4
BITMAP
FC
08
08
10
10
20
40
40
80
FC
04
04
04
03
ENDCHAR
STARTCHAR 0291
ENCODING 657
SWIDTH 411 0
DWIDTH 8 0
BBX 7 11 1 -2
BITMAP
FC
08
08
10
10
20
46
4A
92
FE
20
ENDCHAR
STARTCHAR 0292
ENCODING 658
SWIDTH 411 0
DWIDTH 8 0
BBX 8 14 0 -4
BITMAP
7E
04
04
08
10
20
3C
02
02
01
02
02
82
7C
ENDCHAR
STARTCHAR 0294
ENCODING 660
SWIDTH 411 0
DWIDTH 8 0
BBX 7 14 0 0
BITMAP
7C
82
02
02
02
02
04
08
10
10
10
10
10
10
ENDCHAR
STARTCHAR 0295
ENCODING 661
SWIDTH 411 0
DWIDTH 8 0
BBX 8 14 0 0
BITMAP
3C
43
40
80
80
40
20
10
08
08
08
08
08
08
ENDCHAR
STARTCHAR 0298
ENCODING 664
SWIDTH 514 0
DWIDTH 10 0
BBX 8 14 1 0
BITMAP
3C
44
42
82
82
81
99
81
81
82
82
42
44
3C
ENDCHAR
STARTCHAR 0299
ENCODING 665
SWIDTH 514 0
DWIDTH 10 0
BBX 7 10 2 0
BITMAP
F8
84
84
84
F8
84
82
82
86
FC
ENDCHAR
STARTCHAR 029C
ENCODING 668
SWIDTH 565 0
DWIDTH 11 0
BBX 7 9 2 0
BITMAP
82
82
82
82
FE
82
82
82
82
ENDCHAR
STARTCHAR 029D
ENCODING 669
SWIDTH 257 0
DWIDTH 5 0
BBX 7 18 -2 -5
BITMAP
08
08
00
00
08
08
08
08
08
08
08
08
08
08
F8
88
74
02
ENDCHAR
STARTCHAR 029F
ENCODING 671
SWIDTH 411 0
DWIDTH 8 0
BBX 5 9 2 0
BITMAP
80
80
80
80
80
80
80
80
F8
ENDCHAR
STARTCHAR 02A1
ENCODING 673
SWIDTH 411 0
DWIDTH 8 0
BBX 8 14 0 0
BITMAP
3C
C2
02
01
01
02
06
08
FF
10
10
10
10
10
ENDCHAR
STARTCHAR 02A2
ENCODING 674
SWIDTH 411 0
DWIDTH 8 0
BBX 8 14 0 0
BITMAP
3C
43
40
80
40
40
20
10
FF
08
08
08
08
08
ENDCHAR
STARTCHAR 02B0
ENCODING 688
SWIDTH 360 0
DWIDTH 7 0
BBX 5 9 1 8
BITMAP
80
80
80
B0
C8
88
88
88
88
ENDCHAR
STARTCHAR 02B2
ENCODING 690
SWIDTH 154 0
DWIDTH 3 0
BBX 2 12 0 5
BITMAP
40
00
00
40
40
40
40
40
40
40
40
C0
ENDCHAR
STARTCHAR 02B3
ENCODING 691
SWIDTH 205 0
DWIDTH 4 0
BBX 3 6 1 8
BITMAP
E0
80
80
80
80
80
ENDCHAR
STARTCHAR 02B7
ENCODING 695
SWIDTH 462 0
DWIDTH 9 0
BBX 9 6 0 8
BITMAP
8880
5900
5500
5500
6600
2200
ENDCHAR
STARTCHAR 02B8
ENCODING 696
SWIDTH 308 0
DWIDTH 6 0
BBX 5 9 0 5
BITMAP
88
48
48
50
30
10
20
20
C0
ENDCHAR
STARTCHAR 02B9
ENCODING 697
SWIDTH 205 0
DWIDTH 4 0
BBX 1 4 2 9
BITMAP
80
80
80
80
ENDCHAR
STARTCHAR 02BB
ENCODING 699
SWIDTH 205 0
DWIDTH 4 0
BBX 2 4 1 10
BITMAP
40
80
80
C0
ENDCHAR
STARTCHAR 02BC
ENCODING 700
SWIDTH 205 0
DWIDTH 4 0
BBX 2 4 1 9
BITMAP
40
40
40
80
ENDCHAR
STARTCHAR 02BE
ENCODING 702
SWIDTH 154 0
DWIDTH 3 0
BBX 2 4 1 11
BITMAP
80
40
40
80
ENDCHAR
STARTCHAR 02BF
ENCODING 703
SWIDTH 154 0
DWIDTH 3 0
BBX 2 4 0 11
BITMAP
40
80
80
40
ENDCHAR
STARTCHAR 02C1
ENCODING 705
SWIDTH 257 0
DWIDTH 5 0
BBX 5 9 0 8
BITMAP
78
80
80
80
40
20
20
20
20
ENDCHAR
STARTCHAR 02C6
ENCODING 710
SWIDTH 514 0
DWIDTH 10 0
BBX 5 3 3 11
BITMAP
60
90
88
ENDCHAR
STARTCHAR 02C7
ENCODING 711
SWIDTH 514 0
DWIDTH 10 0
BBX 4 3 3 11
BITMAP
90
50
20
ENDCHAR
STARTCHAR 02C8
ENCODING 712
SWIDTH 102 0
DWIDTH 2 0
BBX 1 3 0 10
BITMAP
80
80
80
ENDCHAR
STARTCHAR 02C9
ENCODING 713
SWIDTH 257 0
DWIDTH 5 0
BBX 5 1 0 12
BITMAP
F8
ENDCHAR
STARTCHAR 02CA
ENCODING 714
SWIDTH 205 0
DWIDTH 4 0
BBX 3 3 1 11
BITMAP
20
40
80
ENDCHAR
STARTCHAR 02CB
ENCODING 715
SWIDTH 205 0
DWIDTH 4 0
BBX 3 3 0 11
BITMAP
80
40
20
ENDCHAR
STARTCHAR 02CC
ENCODING 716
SWIDTH 102 0
DWIDTH 2 0
BBX 1 3 0 -4
BITMAP
80
80
80
ENDCHAR
STARTCHAR 02D0
ENCODING 720
SWIDTH 205 0
DWIDTH 4 0
BBX 2 9 1 0
BITMAP
C0
80
00
00
00
00
00
80
C0
ENDCHAR
STARTCHAR 02D1
ENCODING 721
SWIDTH 205 0
DWIDTH 4 0
BBX 2 2 1 5
BITMAP
C0
80
ENDCHAR
STARTCHAR 02D8
ENCODING 728
SWIDTH 514 0
DWIDTH 10 0
BBX 6 3 2 11
BITMAP
84
44
38
ENDCHAR
STARTCHAR 02D9
ENCODING 729
SWIDTH 514 0
DWIDTH 10 0
BBX 2 1 4 11
BITMAP
C0
ENDCHAR
STARTCHAR 02DA
ENCODING 730
SWIDTH 514 0
DWIDTH 10 0
BBX 4 4 3 11
BITMAP
70
90
90
60
ENDCHAR
STARTCHAR 02DB
ENCODING 731
SWIDTH 514 0
DWIDTH 10 0
BBX 3 4 4 -4
BITMAP
40
80
80
E0
ENDCHAR
STARTCHAR 02DC
ENCODING 732
SWIDTH 514 0
DWIDTH 10 0
BBX 6 3 2 11
BITMAP
40
B4
88
ENDCHAR
STARTCHAR 02DD
ENCODING 733
SWIDTH 514 0
DWIDTH 10 0
BBX 4 3 4 12
BITMAP
50
90
A0
ENDCHAR
STARTCHAR 02DE
ENCODING 734
SWIDTH 102 0
DWIDTH 2 0
BBX 3 3 -1 4
BITMAP
C0
40
20
ENDCHAR
STARTCHAR 02E0
ENCODING 736
SWIDTH 308 0
DWIDTH 6 0
BBX 5 9 0 5
BITMAP
88
48
48
50
30
20
30
50
30
ENDCHAR
STARTCHAR 02E1
ENCODING 737
SWIDTH 154 0
DWIDTH 3 0
BBX 1 9 1 8
BITMAP
80
80
80
80
80
80
80
80
80
ENDCHAR
STARTCHAR 02E2
ENCODING 738
SWIDTH 257 0
DWIDTH 5 0
BBX 5 7 0 7
BITMAP
70
80
40
30
08
08
70
ENDCHAR
STARTCHAR 02E3
ENCODING 739
SWIDTH 308 0
DWIDTH 6 0
BBX 5 6 0 8
BITMAP
88
50
30
30
50
88
ENDCHAR
STARTCHAR 0300
ENCODING 768
SWIDTH 0 0
DWIDTH 0 0
BBX 3 3 -2 11
BITMAP
80
40
20
ENDCHAR
STARTCHAR 0301
ENCODING 769
SWIDTH 0 0
DWIDTH 0 0
BBX 3 3 -1 11
BITMAP
20
40
80
ENDCHAR
STARTCHAR 0302
ENCODING 770
SWIDTH 0 0
DWIDTH 0 0
BBX 5 3 -3 11
BITMAP
30
48
88
ENDCHAR
STARTCHAR 0303
ENCODING 771
SWIDTH 0 0
DWIDTH 0 0
BBX 6 3 -3 11
BITMAP
40
A4
18
ENDCHAR
STARTCHAR 0304
ENCODING 772
SWIDTH 0 0
DWIDTH 0 0
BBX 4 1 -2 12
BITMAP
F0
ENDCHAR
STARTCHAR 0305
ENCODING 773
SWIDTH 0 0
DWIDTH 0 0
BBX 4 1 -2 12
BITMAP
F0
ENDCHAR
STARTCHAR 0306
ENCODING 774
SWIDTH 0 0
DWIDTH 0 0
BBX 6 3 -3 11
BITMAP
84
88
78
ENDCHAR
STARTCHAR 0307
ENCODING 775
SWIDTH 0 0
DWIDTH 0 0
BBX 2 1 -1 11
BITMAP
C0
ENDCHAR
STARTCHAR 0308
ENCODING 776
SWIDTH 0 0
DWIDTH 0 0
BBX 4 1 -2 12
BITMAP
90
ENDCHAR
STARTCHAR 0309
ENCODING 777
SWIDTH 0 0
DWIDTH 0 0
BBX 2 4 -1 11
BITMAP
80
40
40
80
ENDCHAR
STARTCHAR 030A
ENCODING 778
SWIDTH 0 0
DWIDTH 0 0
BBX 4 4 -2 11
BITMAP
60
90
90
60
ENDCHAR
STARTCHAR 030B
ENCODING 779
SWIDTH 0 0
DWIDTH 0 0
BBX 4 3 -1 12
BITMAP
90
A0
A0
ENDCHAR
STARTCHAR 030C
ENCODING 780
SWIDTH 0 0
DWIDTH 0 0
BBX 4 3 -2 11
BITMAP
90
A0
60
ENDCHAR
STARTCHAR 030F
ENCODING 783
SWIDTH 0 0
DWIDTH 0 0
BBX 4 3 -3 12
BITMAP
A0
90
50
ENDCHAR
STARTCHAR 0311
ENCODING 785
SWIDTH 0 0
DWIDTH 0 0
BBX 6 3 -3 11
BITMAP
78
88
84
ENDCHAR
STARTCHAR 0312
ENCODING 786
SWIDTH 0 0
DWIDTH 0 0
BBX 2 3 -1 11
BITMAP
40
80
C0
ENDCHAR
STARTCHAR 0313
ENCODING 787
SWIDTH 0 0
DWIDTH 0 0
BBX 2 3 -1 11
BITMAP
C0
40
80
ENDCHAR
STARTCHAR 0318
ENCODING 792
SWIDTH 0 0
DWIDTH 0 0
BBX 2 3 -1 -4
BITMAP
40
C0
40
ENDCHAR
STARTCHAR 0319
ENCODING 793
SWIDTH 0 0
DWIDTH 0 0
BBX 2 1 -1 -3
BITMAP
C0
ENDCHAR
STARTCHAR 031A
ENCODING 794
SWIDTH 0 0
DWIDTH 0 0
BBX 2 3 -1 11
BITMAP
C0
40
40
ENDCHAR
STARTCHAR 031B
ENCODING 795
SWIDTH 0 0
DWIDTH 0 0
BBX 2 4 0 8
BITMAP
40
40
40
80
ENDCHAR
STARTCHAR 031C
ENCODING 796
SWIDTH 0 0
DWIDTH 0 0
BBX 2 3 -1 -4
BITMAP
80
80
C0
ENDCHAR
STARTCHAR 031D
ENCODING 797
SWIDTH 0 0
DWIDTH 0 0
BBX 4 2 -2 -3
BITMAP
40
F0
ENDCHAR
STARTCHAR 031E
ENCODING 798
SWIDTH 0 0
DWIDTH 0 0
BBX 4 2 -2 -5
BITMAP
F0
40
ENDCHAR
STARTCHAR 031F
ENCODING 799
SWIDTH 0 0
DWIDTH 0 0
BBX 4 3 -2 -4
BITMAP
40
F0
40
ENDCHAR
STARTCHAR 0320
ENCODING 800
SWIDTH 0 0
DWIDTH 0 0
BBX 4 1 -2 -3
BITMAP
F0
ENDCHAR
STARTCHAR 0323
ENCODING 803
SWIDTH 0 0
DWIDTH 0 0
BBX 2 1 -1 -3
BITMAP
C0
ENDCHAR
STARTCHAR 0324
ENCODING 804
SWIDTH 0 0
DWIDTH 0 0
BBX 4 1 -2 -4
BITMAP
90
ENDCHAR
STARTCHAR 0325
ENCODING 805
SWIDTH 0 0
DWIDTH 0 0
BBX 4 3 -2 -4
BITMAP
F0
90
60
ENDCHAR
STARTCHAR 0326
ENCODING 806
SWIDTH 0 0
DWIDTH 0 0
BBX 3 3 -2 -4
BITMAP
60
20
E0
ENDCHAR
STARTCHAR 0327
ENCODING 807
SWIDTH 0 0
DWIDTH 0 0
BBX 3 4 -2 -4
BITMAP
40
20
20
E0
ENDCHAR
STARTCHAR 0328
ENCODING 808
SWIDTH 0 0
DWIDTH 0 0
BBX 3 4 -1 -4
BITMAP
40
80
80
E0
ENDCHAR
STARTCHAR 0329
ENCODING 809
SWIDTH 0 0
DWIDTH 0 0
BBX 1 3 -1 -4
BITMAP
80
80
80
ENDCHAR
STARTCHAR 032A
ENCODING 810
SWIDTH 0 0
DWIDTH 0 0
BBX 4 3 -2 -4
BITMAP
F0
90
90
ENDCHAR
STARTCHAR 032C
ENCODING 812
SWIDTH 0 0
DWIDTH 0 0
BBX 5 3 -3 -4
BITMAP
88
48
30
ENDCHAR
STARTCHAR 032E
ENCODING 814
SWIDTH 0 0
DWIDTH 0 0
BBX 6 3 -3 -5
BITMAP
84
48
30
ENDCHAR
STARTCHAR 032F
ENCODING 815
SWIDTH 0 0
DWIDTH 0 0
BBX 6 3 -3 -4
BITMAP
30
48
84
ENDCHAR
STARTCHAR 0330
ENCODING 816
SWIDTH 0 0
DWIDTH 0 0
BBX 6 3 -3 -4
BITMAP
40
A4
9C
ENDCHAR
STARTCHAR 0331
ENCODING 817
SWIDTH 0 0
DWIDTH 0 0
BBX 4 1 -2 -3
BITMAP
F0
ENDCHAR
STARTCHAR 0334
ENCODING 820
SWIDTH 0 0
DWIDTH 0 0
BBX 6 2 -3 4
BITMAP
E4
9C
ENDCHAR
STARTCHAR 0339
ENCODING 825
SWIDTH 0 0
DWIDTH 0 0
BBX 2 3 -1 -4
BITMAP
40
40
C0
ENDCHAR
STARTCHAR 033A
ENCODING 826
SWIDTH 0 0
DWIDTH 0 0
BBX 4 3 -2 -5
BITMAP
90
90
F0
ENDCHAR
STARTCHAR 033B
ENCODING 827
SWIDTH 0 0
DWIDTH 0 0
BBX 4 4 -2 -5
BITMAP
F0
90
90
F0
ENDCHAR
STARTCHAR 033C
ENCODING 828
SWIDTH 0 0
DWIDTH 0 0
BBX 6 3 -3 -4
BITMAP
48
B4
A4
ENDCHAR
STARTCHAR 033D
ENCODING 829
SWIDTH 0 0
DWIDTH 0 0
BBX 2 2 -1 12
BITMAP
C0
C0
ENDCHAR
STARTCHAR 0342
ENCODING 834
SWIDTH 0 0
DWIDTH 0 0
BBX 6 3 -3 11
BITMAP
40
A4
18
ENDCHAR
STARTCHAR 0345
ENCODING 837
SWIDTH 0 0
DWIDTH 0 0
BBX 1 2 0 -3
BITMAP
80
80
ENDCHAR
STARTCHAR 0361
ENCODING 865
SWIDTH 0 0
DWIDTH 0 0
BBX 18 3 -9 11
BITMAP
07F800
380700
C000C0
ENDCHAR
STARTCHAR 0374
ENCODING 884
SWIDTH 205 0
DWIDTH 4 0
BBX 1 4 2 9
BITMAP
80
80
80
80
ENDCHAR
STARTCHAR 0375
ENCODING 885
SWIDTH 205 0
DWIDTH 4 0
BBX 2 4 1 0
BITMAP
40
80
80
80
ENDCHAR
STARTCHAR 037A
ENCODING 890
SWIDTH 514 0
DWIDTH 10 0
BBX 2 3 5 -4
BITMAP
80
80
C0
ENDCHAR
STARTCHAR 037E
ENCODING 894
SWIDTH 205 0
DWIDTH 4 0
BBX 2 12 1 -3
BITMAP
C0
40
00
00
00
00
00
40
C0
40
40
80
ENDCHAR
STARTCHAR 0384
ENCODING 900
SWIDTH 514 0
DWIDTH 10 0
BBX 2 4 5 11
BITMAP
40
80
80
80
ENDCHAR
STARTCHAR 0385
ENCODING 901
SWIDTH 514 0
DWIDTH 10 0
BBX 5 4 3 11
BITMAP
10
20
A8
40
ENDCHAR
STARTCHAR 0386
ENCODING 902
SWIDTH 514 0
DWIDTH 10 0
BBX 10 13 0 0
BITMAP
4400
8C00
8A00
9200
1200
1100
2100
2100
3F80
4080
4080
4040
8040
ENDCHAR
STARTCHAR 0387
ENCODING 903
SWIDTH 205 0
DWIDTH 4 0
BBX 2 2 1 7
BITMAP
C0
40
ENDCHAR
STARTCHAR 0388
ENCODING 904
SWIDTH 565 0
DWIDTH 11 0
BBX 10 13 0 0
BITMAP
BFC0
A000
A000
2000
2000
2000
3F80
2000
2000
2000
2000
2000
3FC0
ENDCHAR
STARTCHAR 0389
ENCODING 905
SWIDTH 668 0
DWIDTH 13 0
BBX 11 13 0 0
BITMAP
A020
A020
A020
2020
2020
2020
3FE0
2020
2020
2020
2020
2020
2020
ENDCHAR
STARTCHAR 038A
ENCODING 906
SWIDTH 257 0
DWIDTH 5 0
BBX 3 13 0 0
BITMAP
A0
A0
A0
20
20
20
20
20
20
20
20
20
20
ENDCHAR
STARTCHAR 038C
ENCODING 908
SWIDTH 668 0
DWIDTH 13 0
BBX 12 13 0 0
BITMAP
8780
9840
A020
2010
2010
4010
4010
4010
2010
2020
2020
1040
0F80
ENDCHAR
STARTCHAR 038E
ENCODING 910
SWIDTH 514 0
DWIDTH 10 0
BBX 10 13 0 0
BITMAP
A040
9040
9080
1080
0900
0900
0600
0200
0200
0200
0200
0200
0200
ENDCHAR
STARTCHAR 038F
ENCODING 911
SWIDTH 668 0
DWIDTH 13 0
BBX 12 13 0 0
BITMAP
8780
9840
B020
2010
2010
4010
4010
2010
2010
2020
1020
1040
78F0
ENDCHAR
STARTCHAR 0390
ENCODING 912
SWIDTH 257 0
DWIDTH 5 0
BBX 5 15 0 0
BITMAP
20
20
A8
00
00
20
20
20
20
20
20
20
20
20
30
ENDCHAR
STARTCHAR 0391
ENCODING 913
SWIDTH 514 0
DWIDTH 10 0
BBX 10 13 0 0
BITMAP
0C00
0C00
0C00
1200
1200
1200
2100
2100
3F00
4080
4080
4040
8040
ENDCHAR
STARTCHAR 0392
ENCODING 914
SWIDTH 565 0
DWIDTH 11 0
BBX 8 13 2 0
BITMAP
FC
82
81
81
82
82
FC
83
81
81
81
83
FC
ENDCHAR
STARTCHAR 0393
ENCODING 915
SWIDTH 462 0
DWIDTH 9 0
BBX 7 13 2 0
BITMAP
FE
80
80
80
80
80
80
80
80
80
80
80
80
ENDCHAR
STARTCHAR 0394
ENCODING 916
SWIDTH 565 0
DWIDTH 11 0
BBX 9 13 1 0
BITMAP
0800
1800
1400
1400
2400
2200
4200
4100
4100
8100
8080
8080
FF80
ENDCHAR
STARTCHAR 0395
ENCODING 917
SWIDTH 514 0
DWIDTH 10 0
BBX 7 13 2 0
BITMAP
FE
80
80
80
80
80
FC
80
80
80
80
80
FE
ENDCHAR
STARTCHAR 0396
ENCODING 918
SWIDTH 514 0
DWIDTH 10 0
BBX 9 13 1 0
BITMAP
7F00
0100
0200
0200
0400
0800
0800
1000
2000
2000
4000
4000
FF80
ENDCHAR
STARTCHAR 0397
ENCODING 919
SWIDTH 617 0
DWIDTH 12 0
BBX 9 13 2 0
BITMAP
8080
8080
8080
8080
8080
8080
FF80
8080
8080
8080
8080
8080
8080
ENDCHAR
STARTCHAR 0398
ENCODING 920
SWIDTH 668 0
DWIDTH 13 0
BBX 11 13 1 0
BITMAP
1F00
2080
4040
4040
8040
8020
9F20
8020
8040
8040
4040
2080
1F00
ENDCHAR
STARTCHAR 0399
ENCODING 921
SWIDTH 257 0
DWIDTH 5 0
BBX 1 13 2 0
BITMAP
80
80
80
80
80
80
80
80
80
80
80
80
80
ENDCHAR
STARTCHAR 039A
ENCODING 922
SWIDTH 565 0
DWIDTH 11 0
BBX 8 13 2 0
BITMAP
81
82
84
88
90
B0
E8
CC
84
82
82
81
81
ENDCHAR
STARTCHAR 039B
ENCODING 923
SWIDTH 514 0
DWIDTH 10 0
BBX 9 13 0 0
BITMAP
0800
0C00
1400
1400
1200
2200
2200
2100
4100
4100
4080
8080
8080
ENDCHAR
STARTCHAR 039C
ENCODING 924
SWIDTH 720 0
DWIDTH 14 0
BBX 10 13 2 0
BITMAP
80C0
C0C0
C140
C140
A140
A240
A240
9240
9440
9440
8C40
8840
8040
ENDCHAR
STARTCHAR 039D
ENCODING 925
SWIDTH 617 0
DWIDTH 12 0
BBX 8 13 2 0
BITMAP
81
C1
C1
A1
A1
91
89
89
85
85
83
81
81
ENDCHAR
STARTCHAR 039E
ENCODING 926
SWIDTH 514 0
DWIDTH 10 0
BBX 8 13 1 0
BITMAP
FF
00
00
00
00
00
7C
00
00
00
00
00
FF
ENDCHAR
STARTCHAR 039F
ENCODING 927
SWIDTH 668 0
DWIDTH 13 0
BBX 11 13 1 0
BITMAP
1F00
2080
4040
4040
8040
8020
8020
8020
8040
4040
4040
2080
1F00
ENDCHAR
STARTCHAR 03A0
ENCODING 928
SWIDTH 617 0
DWIDTH 12 0
BBX 8 13 2 0
BITMAP
FF
81
81
81
81
81
81
81
81
81
81
81
81
ENDCHAR
STARTCHAR 03A1
ENCODING 929
SWIDTH 565 0
DWIDTH 11 0
BBX 8 13 2 0
BITMAP
FC
82
81
81
81
82
82
FC
80
80
80
80
80
ENDCHAR
STARTCHAR 03A3
ENCODING 931
SWIDTH 514 0
DWIDTH 10 0
BBX 9 13 1 0
BITMAP
FF00
4000
2000
2000
1000
0800
0800
0800
1000
2000
4000
4000
FF80
ENDCHAR
STARTCHAR 03A4
ENCODING 932
SWIDTH 514 0
DWIDTH 10 0
BBX 9 13 1 0
BITMAP
FF80
0800
0800
0800
0800
0800
0800
0800
0800
0800
0800
0800
0800
ENDCHAR
STARTCHAR 03A5
ENCODING 933
SWIDTH 462 0
DWIDTH 9 0
BBX 8 13 0 0
BITMAP
81
41
42
22
24
14
18
08
08
08
08
08
08
ENDCHAR
STARTCHAR 03A6
ENCODING 934
SWIDTH 720 0
DWIDTH 14 0
BBX 12 15 1 -1
BITMAP
0400
0400
1F80
6440
4420
8420
8410
8410
8420
8420
4420
24C0
1F00
0400
0400
ENDCHAR
STARTCHAR 03A7
ENCODING 935
SWIDTH 462 0
DWIDTH 9 0
BBX 8 13 1 0
BITMAP
82
82
44
44
28
18
10
28
28
44
42
82
81
ENDCHAR
STARTCHAR 03A8
ENCODING 936
SWIDTH 668 0
DWIDTH 13 0
BBX 11 13 1 0
BITMAP
8420
8420
8420
8420
8440
4440
6480
1F00
0400
0400
0400
0400
0400
ENDCHAR
STARTCHAR 03A9
ENCODING 937
SWIDTH 668 0
DWIDTH 13 0
BBX 11 13 1 0
BITMAP
1F00
2080
4040
4040
8040
8020
8020
8020
8040
4040
4040
2080
F1E0
ENDCHAR
STARTCHAR 03AA
ENCODING 938
SWIDTH 257 0
DWIDTH 5 0
BBX 5 15 0 0
BITMAP
88
00
20
20
20
20
20
20
20
20
20
20
20
20
20
ENDCHAR
STARTCHAR 03AB
ENCODING 939
SWIDTH 462 0
DWIDTH 9 0
BBX 8 15 0 0
BITMAP
22
00
81
41
42
22
24
14
18
08
08
08
08
08
08
ENDCHAR
STARTCHAR 03AC
ENCODING 940
SWIDTH 565 0
DWIDTH 11 0
BBX 9 15 1 0
BITMAP
0400
0800
0800
0800
0000
3D00
4300
4300
8100
8100
8100
8200
8200
4600
3980
ENDCHAR
STARTCHAR 03AD
ENCODING 941
SWIDTH 411 0
DWIDTH 8 0
BBX 7 15 1 0
BITMAP
08
08
10
10
00
3C
40
80
40
38
40
80
80
82
7C
ENDCHAR
STARTCHAR 03AE
ENCODING 942
SWIDTH 514 0
DWIDTH 10 0
BBX 7 18 2 -3
BITMAP
08
10
10
10
00
BC
C4
82
82
82
82
82
82
82
82
02
02
02
ENDCHAR
STARTCHAR 03AF
ENCODING 943
SWIDTH 257 0
DWIDTH 5 0
BBX 2 15 2 0
BITMAP
40
80
80
00
00
80
80
80
80
80
80
80
80
80
C0
ENDCHAR
STARTCHAR 03B0
ENCODING 944
SWIDTH 514 0
DWIDTH 10 0
BBX 7 15 1 0
BITMAP
08
10
54
10
00
82
82
82
82
82
82
82
82
42
3C
ENDCHAR
STARTCHAR 03B1
ENCODING 945
SWIDTH 565 0
DWIDTH 11 0
BBX 9 10 1 0
BITMAP
3D00
4300
4300
8100
8100
8100
8200
8200
4600
3980
ENDCHAR
STARTCHAR 03B2
ENCODING 946
SWIDTH 565 0
DWIDTH 11 0
BBX 8 17 2 -3
BITMAP
78
84
84
84
84
88
B8
86
82
81
81
82
82
FC
80
80
80
ENDCHAR
STARTCHAR 03B3
ENCODING 947
SWIDTH 462 0
DWIDTH 9 0
BBX 8 13 0 -3
BITMAP
81
41
41
21
22
12
14
14
18
08
08
08
08
ENDCHAR
STARTCHAR 03B4
ENCODING 948
SWIDTH 514 0
DWIDTH 10 0
BBX 8 14 1 0
BITMAP
3E
41
40
20
10
0C
32
41
81
81
81
81
42
3C
ENDCHAR
STARTCHAR 03B5
ENCODING 949
SWIDTH 411 0
DWIDTH 8 0
BBX 7 10 1 0
BITMAP
3C
40
80
40
38
40
80
80
82
7C
ENDCHAR
STARTCHAR 03B6
ENCODING 950
SWIDTH 411 0
DWIDTH 8 0
BBX 7 17 1 -4
BITMAP
7E
04
08
10
20
40
40
80
80
80
80
80
40
30
0E
02
04
ENDCHAR
STARTCHAR 03B7
ENCODING 951
SWIDTH 514 0
DWIDTH 10 0
BBX 7 13 2 -3
BITMAP
BC
C4
82
82
82
82
82
82
82
82
02
02
02
ENDCHAR
STARTCHAR 03B8
ENCODING 952
SWIDTH 514 0
DWIDTH 10 0
BBX 8 14 1 0
BITMAP
3C
44
42
82
82
81
FF
81
82
82
42
42
44
3C
ENDCHAR
STARTCHAR 03B9
ENCODING 953
SWIDTH 257 0
DWIDTH 5 0
BBX 2 10 2 0
BITMAP
80
80
80
80
80
80
80
80
80
C0
ENDCHAR
STARTCHAR 03BA
ENCODING 954
SWIDTH 462 0
DWIDTH 9 0
BBX 7 10 2 0
BITMAP
86
88
90
A0
E0
D0
90
88
84
82
ENDCHAR
STARTCHAR 03BB
ENCODING 955
SWIDTH 462 0
DWIDTH 9 0
BBX 9 14 0 0
BITMAP
E000
1000
0800
0800
0800
0C00
1400
1400
1200
2200
2200
4100
4100
8080
ENDCHAR
STARTCHAR 03BC
ENCODING 956
SWIDTH 565 0
DWIDTH 11 0
BBX 8 13 2 -3
BITMAP
82
82
82
82
82
82
82
86
8A
F3
80
80
80
ENDCHAR
STARTCHAR 03BD
ENCODING 957
SWIDTH 462 0
DWIDTH 9 0
BBX 8 10 0 0
BITMAP
81
41
41
22
22
22
14
14
14
08
ENDCHAR
STARTCHAR 03BE
ENCODING 958
SWIDTH 411 0
DWIDTH 8 0
BBX 7 17 1 -4
BITMAP
FE
20
40
40
40
20
1C
60
40
80
80
80
40
30
0E
02
02
ENDCHAR
STARTCHAR 03BF
ENCODING 959
SWIDTH 514 0
DWIDTH 10 0
BBX 8 10 1 0
BITMAP
3C
42
81
81
81
81
81
81
42
3C
ENDCHAR
STARTCHAR 03C0
ENCODING 960
SWIDTH 565 0
DWIDTH 11 0
BBX 10 10 0 0
BITMAP
FFC0
1100
2100
2100
2100
2100
2100
2100
2100
20C0
ENDCHAR
STARTCHAR 03C1
ENCODING 961
SWIDTH 514 0
DWIDTH 10 0
BBX 7 13 2 -3
BITMAP
3C
42
82
82
82
82
82
82
84
F8
80
80
80
ENDCHAR
STARTCHAR 03C2
ENCODING 962
SWIDTH 411 0
DWIDTH 8 0
BBX 6 13 1 -3
BITMAP
3C
40
80
80
80
80
80
40
30
0C
04
04
08
ENDCHAR
STARTCHAR 03C3
ENCODING 963
SWIDTH 514 0
DWIDTH 10 0
BBX 9 10 1 0
BITMAP
3F80
4200
8200
8100
8100
8100
8100
8100
4200
3C00
ENDCHAR
STARTCHAR 03C4
ENCODING 964
SWIDTH 462 0
DWIDTH 9 0
BBX 7 10 1 0
BITMAP
FE
10
10
10
10
10
10
10
10
18
ENDCHAR
STARTCHAR 03C5
ENCODING 965
SWIDTH 514 0
DWIDTH 10 0
BBX 7 10 1 0
BITMAP
82
82
82
82
82
82
82
82
42
3C
ENDCHAR
STARTCHAR 03C6
ENCODING 966
SWIDTH 668 0
DWIDTH 13 0
BBX 11 16 1 -3
BITMAP
0400
0400
0400
1F00
6480
4440
8440
8420
8420
8440
4440
6480
1F00
0400
0400
0400
ENDCHAR
STARTCHAR 03C7
ENCODING 967
SWIDTH 462 0
DWIDTH 9 0
BBX 9 13 0 -3
BITMAP
8100
4200
2200
2400
1400
1800
0800
1400
1400
2200
2200
4100
8080
ENDCHAR
STARTCHAR 03C8
ENCODING 968
SWIDTH 668 0
DWIDTH 13 0
BBX 10 15 1 -3
BITMAP
0400
0400
8440
8440
8440
8440
8440
8440
8440
4440
4480
3F00
0400
0400
0400
ENDCHAR
STARTCHAR 03C9
ENCODING 969
SWIDTH 668 0
DWIDTH 13 0
BBX 11 10 1 0
BITMAP
2080
4040
4040
8020
8420
8420
8420
8420
4C40
3BC0
ENDCHAR
STARTCHAR 03CA
ENCODING 970
SWIDTH 257 0
DWIDTH 5 0
BBX 5 14 0 0
BITMAP
98
00
00
00
20
20
20
20
20
20
20
20
20
30
ENDCHAR
STARTCHAR 03CB
ENCODING 971
SWIDTH 514 0
DWIDTH 10 0
BBX 7 13 1 0
BITMAP
44
00
00
82
82
82
82
82
82
82
82
42
3C
ENDCHAR
STARTCHAR 03CC
ENCODING 972
SWIDTH 514 0
DWIDTH 10 0
BBX 8 15 1 0
BITMAP
08
08
08
00
00
3C
42
81
81
81
81
81
81
42
3C
ENDCHAR
STARTCHAR 03CD
ENCODING 973
SWIDTH 514 0
DWIDTH 10 0
BBX 7 15 1 0
BITMAP
08
08
10
10
00
82
82
82
82
82
82
82
82
42
3C
ENDCHAR
STARTCHAR 03CE
ENCODING 974
SWIDTH 668 0
DWIDTH 13 0
BBX 11 15 1 0
BITMAP
0200
0200
0400
0400
0000
2080
4040
4040
8020
8420
8420
8420
8420
4C40
3BC0
ENDCHAR
STARTCHAR 03D0
ENCODING 976
SWIDTH 565 0
DWIDTH 11 0
BBX 8 14 2 0
BITMAP
78
84
84
84
84
88
B8
C6
82
81
81
82
42
3C
ENDCHAR
STARTCHAR 03D1
ENCODING 977
SWIDTH 514 0
DWIDTH 10 0
BBX 8 14 1 0
BITMAP
38
44
82
82
42
41
3F
01
42
42
42
42
44
3C
ENDCHAR
STARTCHAR 03D5
ENCODING 981
SWIDTH 668 0
DWIDTH 13 0
BBX 11 13 1 -3
BITMAP
2380
4440
8440
8440
8420
8420
8440
8440
4480
3F00
0400
0400
0400
ENDCHAR
STARTCHAR 03D7
ENCODING 983
SWIDTH 462 0
DWIDTH 9 0
BBX 7 13 2 -3
BITMAP
86
88
90
A0
E0
D0
88
88
84
82
04
04
08
ENDCHAR
STARTCHAR 03D9
ENCODING 985
SWIDTH 514 0
DWIDTH 10 0
BBX 8 13 1 -3
BITMAP
3C
42
81
81
81
81
81
81
42
3C
08
08
08
ENDCHAR
STARTCHAR 03DB
ENCODING 987
SWIDTH 462 0
DWIDTH 9 0
BBX 7 13 1 -3
BITMAP
3E
40
80
80
80
80
80
40
30
0C
02
04
04
ENDCHAR
STARTCHAR 03DD
ENCODING 989
SWIDTH 411 0
DWIDTH 8 0
BBX 5 13 2 -3
BITMAP
F8
80
80
80
80
80
F8
80
80
80
80
80
80
ENDCHAR
STARTCHAR 03E1
ENCODING 993
SWIDTH 462 0
DWIDTH 9 0
BBX 9 16 0 -4
BITMAP
4000
3000
0800
0400
0400
0200
0600
3900
C100
0100
0F00
3080
0080
0080
0080
0080
ENDCHAR
STARTCHAR 0400
ENCODING 1024
SWIDTH 514 0
DWIDTH 10 0
BBX 7 16 2 1
BITMAP
20
10
00
FE
80
80
80
80
80
FC
80
80
80
80
80
FE
ENDCHAR
STARTCHAR 0401
ENCODING 1025
SWIDTH 514 0
DWIDTH 10 0
BBX 7 15 2 0
BITMAP
44
00
FE
80
80
80
80
80
FC
80
80
80
80
80
FE
ENDCHAR
STARTCHAR 0402
ENCODING 1026
SWIDTH 668 0
DWIDTH 13 0
BBX 11 13 1 0
BITMAP
FF80
1000
1000
1000
1000
1F80
1040
1020
1020
1020
1020
1060
11C0
ENDCHAR
STARTCHAR 0403
ENCODING 1027
SWIDTH 462 0
DWIDTH 9 0
BBX 7 16 2 1
BITMAP
08
10
00
FE
80
80
80
80
80
80
80
80
80
80
80
80
ENDCHAR
STARTCHAR 0404
ENCODING 1028
SWIDTH 565 0
DWIDTH 11 0
BBX 9 13 1 0
BITMAP
1F00
2080
4000
4000
8000
8000
FE00
8000
8000
8000
4000
2080
1F00
ENDCHAR
STARTCHAR 0405
ENCODING 1029
SWIDTH 514 0
DWIDTH 10 0
BBX 8 13 1 0
BITMAP
3C
43
40
40
40
30
0C
03
01
01
01
C1
3E
ENDCHAR
STARTCHAR 0406
ENCODING 1030
SWIDTH 257 0
DWIDTH 5 0
BBX 1 13 2 0
BITMAP
80
80
80
80
80
80
80
80
80
80
80
80
80
ENDCHAR
STARTCHAR 0407
ENCODING 1031
SWIDTH 257 0
DWIDTH 5 0
BBX 5 15 0 0
BITMAP
88
00
20
20
20
20
20
20
20
20
20
20
20
20
20
ENDCHAR
STARTCHAR 0408
ENCODING 1032
SWIDTH 462 0
DWIDTH 9 0
BBX 6 13 1 0
BITMAP
04
04
04
04
04
04
04
04
04
04
04
84
78
ENDCHAR
STARTCHAR 0409
ENCODING 1033
SWIDTH 874 0
DWIDTH 17 0
BBX 16 13 0 0
BITMAP
0FC0
0840
0840
1040
1040
107C
1043
1041
1041
2041
2041
2041
C07E
ENDCHAR
STARTCHAR 040A
ENCODING 1034
SWIDTH 925 0
DWIDTH 18 0
BBX 15 13 2 0
BITMAP
8100
8100
8100
8100
8100
8100
FFF8
8106
8102
8102
8102
8104
81F8
ENDCHAR
STARTCHAR 040B
ENCODING 1035
SWIDTH 668 0
DWIDTH 13 0
BBX 11 13 1 0
BITMAP
FF80
1000
1000
1000
1000
1F80
1040
1020
1020
1020
1020
1020
1020
ENDCHAR
STARTCHAR 040C
ENCODING 1036
SWIDTH 565 0
DWIDTH 11 0
BBX 8 17 2 0
BITMAP
04
0C
10
00
81
82
84
84
88
88
F0
88
84
84
82
81
81
ENDCHAR
STARTCHAR 040D
ENCODING 1037
SWIDTH 668 0
DWIDTH 13 0
BBX 9 17 2 0
BITMAP
2000
1000
0800
0000
8180
8180
8280
8480
8480
8880
8880
9080
9080
A080
C080
C080
8080
ENDCHAR
STARTCHAR 040E
ENCODING 1038
SWIDTH 514 0
DWIDTH 10 0
BBX 9 16 0 0
BITMAP
2200
1C00
0000
8080
4080
4100
2100
2100
2200
1200
1400
0C00
0C00
0800
0800
7000
ENDCHAR
STARTCHAR 040F
ENCODING 1039
SWIDTH 617 0
DWIDTH 12 0
BBX 8 17 2 -4
BITMAP
81
81
81
81
81
81
81
81
81
81
81
81
FF
08
08
08
08
ENDCHAR
STARTCHAR 0410
ENCODING 1040
SWIDTH 514 0
DWIDTH 10 0
BBX 10 13 0 0
BITMAP
0C00
0C00
0C00
1200
1200
1200
2100
2100
3F00
4080
4080
4040
8040
ENDCHAR
STARTCHAR 0411
ENCODING 1041
SWIDTH 565 0
DWIDTH 11 0
BBX 8 13 2 0
BITMAP
FE
80
80
80
80
80
FC
83
81
81
81
83
FC
ENDCHAR
STARTCHAR 0412
ENCODING 1042
SWIDTH 565 0
DWIDTH 11 0
BBX 8 13 2 0
BITMAP
FC
82
81
81
82
82
FC
83
81
81
81
83
FC
ENDCHAR
STARTCHAR 0413
ENCODING 1043
SWIDTH 462 0
DWIDTH 9 0
BBX 7 13 2 0
BITMAP
FE
80
80
80
80
80
80
80
80
80
80
80
80
ENDCHAR
STARTCHAR 0414
ENCODING 1044
SWIDTH 617 0
DWIDTH 12 0
BBX 10 17 1 -4
BITMAP
1F80
1080
1080
2080
2080
2080
2080
2080
2080
4080
4080
4080
FFC0
8040
8040
8040
8040
ENDCHAR
STARTCHAR 0415
ENCODING 1045
SWIDTH 514 0
DWIDTH 10 0
BBX 7 13 2 0
BITMAP
FE
80
80
80
80
80
FC
80
80
80
80
80
FE
ENDCHAR
STARTCHAR 0416
ENCODING 1046
SWIDTH 771 0
DWIDTH 15 0
BBX 15 13 0 0
BITMAP
C106
2108
2110
1110
1110
0920
0FE0
1120
1110
2108
2108
4104
8104
ENDCHAR
STARTCHAR 0417
ENCODING 1047
SWIDTH 565 0
DWIDTH 11 0
BBX 9 13 1 0
BITMAP
3C00
4300
0100
0100
0100
0200
3E00
0100
0080
0080
0080
C100
3E00
ENDCHAR
STARTCHAR 0418
ENCODING 1048
SWIDTH 668 0
DWIDTH 13 0
BBX 9 13 2 0
BITMAP
8180
8180
8280
8480
8480
8880
8880
9080
9080
A080
C080
C080
8080
ENDCHAR
STARTCHAR 0419
ENCODING 1049
SWIDTH 668 0
DWIDTH 13 0
BBX 9 16 2 0
BITMAP
2200
1C00
0000
8180
8180
8280
8480
8480
8880
8880
9080
9080
A080
C080
C080
8080
ENDCHAR
STARTCHAR 041A
ENCODING 1050
SWIDTH 565 0
DWIDTH 11 0
BBX 8 13 2 0
BITMAP
81
82
84
84
88
88
F0
88
84
84
82
81
81
ENDCHAR
STARTCHAR 041B
ENCODING 1051
SWIDTH 617 0
DWIDTH 12 0
BBX 10 13 0 0
BITMAP
0FC0
0840
0840
1040
1040
1040
1040
1040
1040
2040
2040
2040
C040
ENDCHAR
STARTCHAR 041C
ENCODING 1052
SWIDTH 720 0
DWIDTH 14 0
BBX 10 13 2 0
BITMAP
80C0
C0C0
C140
C140
A140
A240
A240
9240
9440
9440
8C40
8840
8040
ENDCHAR
STARTCHAR 041D
ENCODING 1053
SWIDTH 617 0
DWIDTH 12 0
BBX 9 13 2 0
BITMAP
8080
8080
8080
8080
8080
8080
FF80
8080
8080
8080
8080
8080
8080
ENDCHAR
STARTCHAR 041E
ENCODING 1054
SWIDTH 668 0
DWIDTH 13 0
BBX 11 13 1 0
BITMAP
1F00
2080
4040
4040
8040
8020
8020
8020
8040
4040
4040
2080
1F00
ENDCHAR
STARTCHAR 041F
ENCODING 1055
SWIDTH 617 0
DWIDTH 12 0
BBX 8 13 2 0
BITMAP
FF
81
81
81
81
81
81
81
81
81
81
81
81
ENDCHAR
STARTCHAR 0420
ENCODING 1056
SWIDTH 565 0
DWIDTH 11 0
BBX 8 13 2 0
BITMAP
FC
82
81
81
81
82
82
FC
80
80
80
80
80
ENDCHAR
STARTCHAR 0421
ENCODING 1057
SWIDTH 565 0
DWIDTH 11 0
BBX 9 13 1 0
BITMAP
1F00
2080
4000
4000
8000
8000
8000
8000
8000
4000
4000
2080
1F00
ENDCHAR
STARTCHAR 0422
ENCODING 1058
SWIDTH 514 0
DWIDTH 10 0
BBX 9 13 1 0
BITMAP
FF80
0800
0800
0800
0800
0800
0800
0800
0800
0800
0800
0800
0800
ENDCHAR
STARTCHAR 0423
ENCODING 1059
SWIDTH 514 0
DWIDTH 10 0
BBX 9 13 0 0
BITMAP
8080
4080
4100
2100
2100
2200
1200
1400
0C00
0C00
0800
0800
7000
ENDCHAR
STARTCHAR 0424
ENCODING 1060
SWIDTH 720 0
DWIDTH 14 0
BBX 12 13 1 0
BITMAP
0400
1F80
6460
8420
8410
8410
8410
8410
4420
6460
1F80
0400
0400
ENDCHAR
STARTCHAR 0425
ENCODING 1061
SWIDTH 462 0
DWIDTH 9 0
BBX 8 13 1 0
BITMAP
82
82
44
44
28
18
10
28
28
44
42
82
81
ENDCHAR
STARTCHAR 0426
ENCODING 1062
SWIDTH 617 0
DWIDTH 12 0
BBX 10 16 2 -4
BITMAP
8100
8100
8100
8100
8100
8100
8100
8100
8100
8100
8100
8100
FFC0
0080
0080
0080
ENDCHAR
STARTCHAR 0427
ENCODING 1063
SWIDTH 565 0
DWIDTH 11 0
BBX 8 13 1 0
BITMAP
81
81
81
81
81
41
3F
01
01
01
01
01
01
ENDCHAR
STARTCHAR 0428
ENCODING 1064
SWIDTH 822 0
DWIDTH 16 0
BBX 12 13 2 0
BITMAP
8210
8210
8210
8210
8210
8210
8210
8210
8210
8210
8210
8210
FFF0
ENDCHAR
STARTCHAR 0429
ENCODING 1065
SWIDTH 822 0
DWIDTH 16 0
BBX 14 17 2 -4
BITMAP
8210
8210
8210
8210
8210
8210
8210
8210
8210
8210
8210
8210
FFFC
0004
0004
0004
0004
ENDCHAR
STARTCHAR 042A
ENCODING 1066
SWIDTH 720 0
DWIDTH 14 0
BBX 12 13 1 0
BITMAP
F800
0800
0800
0800
0800
0800
0FC0
0820
0810
0810
0810
0820
0FC0
ENDCHAR
STARTCHAR 042B
ENCODING 1067
SWIDTH 771 0
DWIDTH 15 0
BBX 11 13 2 0
BITMAP
8020
8020
8020
8020
8020
8020
FC20
8220
8120
8120
8120
8220
FC20
ENDCHAR
STARTCHAR 042C
ENCODING 1068
SWIDTH 565 0
DWIDTH 11 0
BBX 8 13 2 0
BITMAP
80
80
80
80
80
80
FC
83
81
81
81
82
FC
ENDCHAR
STARTCHAR 042D
ENCODING 1069
SWIDTH 565 0
DWIDTH 11 0
BBX 9 13 1 0
BITMAP
3C00
C200
0100
0100
0080
0080
3F80
0080
0080
0080
0100
8200
7C00
ENDCHAR
STARTCHAR 042E
ENCODING 1070
SWIDTH 874 0
DWIDTH 17 0
BBX 14 13 2 0
BITMAP
81E0
8210
8408
8804
8804
8804
F804
8804
8804
8804
8408
8218
81E0
ENDCHAR
STARTCHAR 042F
ENCODING 1071
SWIDTH 565 0
DWIDTH 11 0
BBX 8 13 1 0
BITMAP
3F
41
81
81
81
41
3F
11
21
21
41
C1
81
ENDCHAR
STARTCHAR 0430
ENCODING 1072
SWIDTH 514 0
DWIDTH 10 0
BBX 7 10 1 0
BITMAP
3C
42
02
02
1E
62
82
82
86
7A
ENDCHAR
STARTCHAR 0431
ENCODING 1073
SWIDTH 514 0
DWIDTH 10 0
BBX 8 14 1 0
BITMAP
03
1C
60
40
80
9C
E3
81
81
81
81
41
42
3C
ENDCHAR
STARTCHAR 0432
ENCODING 1074
SWIDTH 514 0
DWIDTH 10 0
BBX 7 10 2 0
BITMAP
F8
84
84
84
F8
84
82
82
86
FC
ENDCHAR
STARTCHAR 0433
ENCODING 1075
SWIDTH 411 0
DWIDTH 8 0
BBX 5 10 2 0
BITMAP
F8
80
80
80
80
80
80
80
80
80
ENDCHAR
STARTCHAR 0434
ENCODING 1076
SWIDTH 514 0
DWIDTH 10 0
BBX 9 13 0 -3
BITMAP
1F00
2100
2100
2100
2100
2100
2100
2100
4100
FF80
8080
8080
8080
ENDCHAR
STARTCHAR 0435
ENCODING 1077
SWIDTH 462 0
DWIDTH 9 0
BBX 8 10 1 0
BITMAP
3C
42
82
81
FF
80
80
80
40
3E
ENDCHAR
STARTCHAR 0436
ENCODING 1078
SWIDTH 617 0
DWIDTH 12 0
BBX 11 10 1 0
BITMAP
8460
4480
4480
2500
3F00
2480
4480
4440
8440
8420
ENDCHAR
STARTCHAR 0437
ENCODING 1079
SWIDTH 462 0
DWIDTH 9 0
BBX 7 10 1 0
BITMAP
78
84
04
04
38
04
02
02
84
78
ENDCHAR
STARTCHAR 0438
ENCODING 1080
SWIDTH 565 0
DWIDTH 11 0
BBX 7 10 2 0
BITMAP
82
86
8A
8A
92
A2
A2
C2
C2
82
ENDCHAR
STARTCHAR 0439
ENCODING 1081
SWIDTH 565 0
DWIDTH 11 0
BBX 7 14 2 0
BITMAP
84
44
38
00
82
86
8A
8A
92
A2
A2
C2
C2
82
ENDCHAR
STARTCHAR 043A
ENCODING 1082
SWIDTH 462 0
DWIDTH 9 0
BBX 7 10 2 0
BITMAP
84
88
88
90
F0
90
88
88
84
82
ENDCHAR
STARTCHAR 043B
ENCODING 1083
SWIDTH 514 0
DWIDTH 10 0
BBX 8 10 0 0
BITMAP
1F
11
21
21
21
21
21
21
21
C1
ENDCHAR
STARTCHAR 043C
ENCODING 1084
SWIDTH 617 0
DWIDTH 12 0
BBX 8 10 2 0
BITMAP
81
81
C3
C3
A5
A5
A9
99
99
81
ENDCHAR
STARTCHAR 043D
ENCODING 1085
SWIDTH 565 0
DWIDTH 11 0
BBX 7 10 2 0
BITMAP
82
82
82
82
FE
82
82
82
82
82
ENDCHAR
STARTCHAR 043E
ENCODING 1086
SWIDTH 514 0
DWIDTH 10 0
BBX 8 10 1 0
BITMAP
3C
42
81
81
81
81
81
81
42
3C
ENDCHAR
STARTCHAR 043F
ENCODING 1087
SWIDTH 565 0
DWIDTH 11 0
BBX 7 10 2 0
BITMAP
FE
82
82
82
82
82
82
82
82
82
ENDCHAR
STARTCHAR 0440
ENCODING 1088
SWIDTH 565 0
DWIDTH 11 0
BBX 8 14 2 -4
BITMAP
BC
C2
82
82
81
81
82
82
84
F8
80
80
80
80
ENDCHAR
STARTCHAR 0441
ENCODING 1089
SWIDTH 462 0
DWIDTH 9 0
BBX 7 10 1 0
BITMAP
3C
42
80
80
80
80
80
80
42
3C
ENDCHAR
STARTCHAR 0442
ENCODING 1090
SWIDTH 462 0
DWIDTH 9 0
BBX 7 10 1 0
BITMAP
FE
10
10
10
10
10
10
10
10
10
ENDCHAR
STARTCHAR 0443
ENCODING 1091
SWIDTH 411 0
DWIDTH 8 0
BBX 8 14 0 -4
BITMAP
81
41
42
42
22
24
14
14
18
08
08
10
10
60
ENDCHAR
STARTCHAR 0444
ENCODING 1092
SWIDTH 720 0
DWIDTH 14 0
BBX 12 18 1 -4
BITMAP
0400
0400
0400
0400
3DC0
4620
8420
8410
8410
8410
8410
8420
4420
3FC0
0400
0400
0400
0400
ENDCHAR
STARTCHAR 0445
ENCODING 1093
SWIDTH 411 0
DWIDTH 8 0
BBX 7 10 0 0
BITMAP
42
44
24
18
18
18
28
24
42
82
ENDCHAR
STARTCHAR 0446
ENCODING 1094
SWIDTH 514 0
DWIDTH 10 0
BBX 8 13 2 -3
BITMAP
82
82
82
82
82
82
82
82
82
FF
01
01
01
ENDCHAR
STARTCHAR 0447
ENCODING 1095
SWIDTH 514 0
DWIDTH 10 0
BBX 7 10 1 0
BITMAP
82
82
82
82
42
3E
02
02
02
02
ENDCHAR
STARTCHAR 0448
ENCODING 1096
SWIDTH 720 0
DWIDTH 14 0
BBX 10 10 2 0
BITMAP
8840
8840
8840
8840
8840
8840
8840
8840
8840
FFC0
ENDCHAR
STARTCHAR 0449
ENCODING 1097
SWIDTH 720 0
DWIDTH 14 0
BBX 11 13 2 -3
BITMAP
8840
8840
8840
8840
8840
8840
8840
8840
8840
FFE0
0020
0020
0020
ENDCHAR
STARTCHAR 044A
ENCODING 1098
SWIDTH 565 0
DWIDTH 11 0
BBX 9 10 1 0
BITMAP
F000
1000
1000
1000
1F00
1080
1080
1080
1080
1F00
ENDCHAR
STARTCHAR 044B
ENCODING 1099
SWIDTH 617 0
DWIDTH 12 0
BBX 9 10 2 0
BITMAP
8080
8080
8080
8080
F880
8480
8480
8480
8480
F880
ENDCHAR
STARTCHAR 044C
ENCODING 1100
SWIDTH 462 0
DWIDTH 9 0
BBX 6 10 2 0
BITMAP
80
80
80
80
F8
84
84
84
84
F8
ENDCHAR
STARTCHAR 044D
ENCODING 1101
SWIDTH 462 0
DWIDTH 9 0
BBX 7 10 1 0
BITMAP
78
84
04
02
7E
02
02
04
04
F8
ENDCHAR
STARTCHAR 044E
ENCODING 1102
SWIDTH 720 0
DWIDTH 14 0
BBX 11 10 2 0
BITMAP
8780
8840
9020
9020
F020
9020
9020
9040
8840
8780
ENDCHAR
STARTCHAR 044F
ENCODING 1103
SWIDTH 514 0
DWIDTH 10 0
BBX 7 10 1 0
BITMAP
3E
42
82
82
42
3E
22
22
42
82
ENDCHAR
STARTCHAR 0450
ENCODING 1104
SWIDTH 462 0
DWIDTH 9 0
BBX 8 15 1 0
BITMAP
20
10
08
00
00
3C
42
82
81
FF
80
80
80
40
3E
ENDCHAR
STARTCHAR 0451
ENCODING 1105
SWIDTH 462 0
DWIDTH 9 0
BBX 8 13 1 0
BITMAP
24
00
00
3C
42
82
81
FF
80
80
80
40
3E
ENDCHAR
STARTCHAR 0452
ENCODING 1106
SWIDTH 514 0
DWIDTH 10 0
BBX 9 18 0 -4
BITMAP
2000
2000
FC00
2000
2000
2F00
3100
2080
2080
2080
2080
2080
2080
2080
0080
0080
0100
0600
ENDCHAR
STARTCHAR 0453
ENCODING 1107
SWIDTH 411 0
DWIDTH 8 0
BBX 5 14 2 1
BITMAP
18
20
00
00
F8
80
80
80
80
80
80
80
80
80
ENDCHAR
STARTCHAR 0454
ENCODING 1108
SWIDTH 462 0
DWIDTH 9 0
BBX 7 10 1 0
BITMAP
3C
42
80
80
FC
80
80
80
42
3C
ENDCHAR
STARTCHAR 0455
ENCODING 1109
SWIDTH 411 0
DWIDTH 8 0
BBX 6 10 1 0
BITMAP
78
80
80
80
60
18
04
04
84
78
ENDCHAR
STARTCHAR 0456
ENCODING 1110
SWIDTH 205 0
DWIDTH 4 0
BBX 2 14 1 0
BITMAP
C0
00
00
00
40
40
40
40
40
40
40
40
40
40
ENDCHAR
STARTCHAR 0457
ENCODING 1111
SWIDTH 205 0
DWIDTH 4 0
BBX 5 14 0 0
BITMAP
98
00
00
00
20
20
20
20
20
20
20
20
20
20
ENDCHAR
STARTCHAR 0458
ENCODING 1112
SWIDTH 205 0
DWIDTH 4 0
BBX 4 18 -1 -4
BITMAP
30
00
00
00
10
10
10
10
10
10
10
10
10
10
10
10
10
E0
ENDCHAR
STARTCHAR 0459
ENCODING 1113
SWIDTH 720 0
DWIDTH 14 0
BBX 13 10 0 0
BITMAP
1F00
1100
1100
2100
21F0
2108
2108
2108
2108
C1F0
ENDCHAR
STARTCHAR 045A
ENCODING 1114
SWIDTH 720 0
DWIDTH 14 0
BBX 11 10 2 0
BITMAP
8400
8400
8400
8400
FFC0
8420
8420
8420
8420
83C0
ENDCHAR
STARTCHAR 045B
ENCODING 1115
SWIDTH 514 0
DWIDTH 10 0
BBX 9 14 0 0
BITMAP
2000
2000
FC00
2000
2000
2F00
3100
2080
2080
2080
2080
2080
2080
2080
ENDCHAR
STARTCHAR 045C
ENCODING 1116
SWIDTH 462 0
DWIDTH 9 0
BBX 7 14 2 1
BITMAP
08
10
00
00
84
88
88
90
F0
90
88
88
84
82
ENDCHAR
STARTCHAR 045D
ENCODING 1117
SWIDTH 565 0
DWIDTH 11 0
BBX 7 14 2 1
BITMAP
20
10
00
00
82
86
8A
8A
92
A2
A2
C2
C2
82
ENDCHAR
STARTCHAR 045E
ENCODING 1118
SWIDTH 411 0
DWIDTH 8 0
BBX 8 18 0 -3
BITMAP
22
1C
00
00
81
41
42
42
22
24
14
14
18
08
08
10
10
60
ENDCHAR
STARTCHAR 045F
ENCODING 1119
SWIDTH 565 0
DWIDTH 11 0
BBX 7 13 2 -3
BITMAP
82
82
82
82
82
82
82
82
82
FE
10
10
10
ENDCHAR
STARTCHAR 0462
ENCODING 1122
SWIDTH 617 0
DWIDTH 12 0
BBX 10 14 1 0
BITMAP
2000
2000
2000
FF00
2000
2000
2000
3F00
2080
2040
2040
2040
2080
3F00
ENDCHAR
STARTCHAR 0463
ENCODING 1123
SWIDTH 565 0
DWIDTH 11 0
BBX 9 13 1 0
BITMAP
1000
1000
1000
FE00
1000
1000
1000
1F00
1080
1080
1080
1080
1F00
ENDCHAR
STARTCHAR 0472
ENCODING 1138
SWIDTH 668 0
DWIDTH 13 0
BBX 11 13 1 0
BITMAP
1F00
2080
4040
4040
8040
8020
FFE0
8020
8040
8040
4040
2080
1F00
ENDCHAR
STARTCHAR 0473
ENCODING 1139
SWIDTH 514 0
DWIDTH 10 0
BBX 8 10 1 0
BITMAP
3C
42
81
81
FF
81
81
81
42
3C
ENDCHAR
STARTCHAR 0474
ENCODING 1140
SWIDTH 514 0
DWIDTH 10 0
BBX 10 13 0 0
BITMAP
80C0
8080
4100
4100
4100
2100
2200
2200
1200
1400
1400
0C00
0C00
ENDCHAR
STARTCHAR 0475
ENCODING 1141
SWIDTH 462 0
DWIDTH 9 0
BBX 9 10 0 0
BITMAP
8180
4100
4200
4200
2200
2400
2400
1400
1800
0800
ENDCHAR
STARTCHAR 0490
ENCODING 1168
SWIDTH 462 0
DWIDTH 9 0
BBX 7 16 2 0
BITMAP
02
02
02
FE
80
80
80
80
80
80
80
80
80
80
80
80
ENDCHAR
STARTCHAR 0491
ENCODING 1169
SWIDTH 411 0
DWIDTH 8 0
BBX 5 13 2 0
BITMAP
08
08
08
F8
80
80
80
80
80
80
80
80
80
ENDCHAR
STARTCHAR 0492
ENCODING 1170
SWIDTH 514 0
DWIDTH 10 0
BBX 8 13 1 0
BITMAP
7F
40
40
40
40
40
F8
40
40
40
40
40
40
ENDCHAR
STARTCHAR 0493
ENCODING 1171
SWIDTH 411 0
DWIDTH 8 0
BBX 6 9 1 1
BITMAP
7C
40
40
40
F8
40
40
40
40
ENDCHAR
STARTCHAR 0496
ENCODING 1174
SWIDTH 822 0
DWIDTH 16 0
BBX 15 17 0 -4
BITMAP
C106
2108
2110
1110
1110
0920
0FE0
1120
1110
2108
2108
4104
8106
0002
0002
0002
0002
ENDCHAR
STARTCHAR 0497
ENCODING 1175
SWIDTH 668 0
DWIDTH 13 0
BBX 12 13 1 -3
BITMAP
8460
4480
4480
2500
3F00
2480
4480
4440
8440
8430
0020
0020
0020
ENDCHAR
STARTCHAR 0498
ENCODING 1176
SWIDTH 565 0
DWIDTH 11 0
BBX 9 16 1 -3
BITMAP
3C00
4300
0100
0100
0100
0200
3E00
0100
0080
0080
0080
C100
3E00
0800
0800
0800
ENDCHAR
STARTCHAR 0499
ENCODING 1177
SWIDTH 462 0
DWIDTH 9 0
BBX 7 13 1 -3
BITMAP
78
84
04
04
38
04
02
02
84
78
10
10
10
ENDCHAR
STARTCHAR 049A
ENCODING 1178
SWIDTH 617 0
DWIDTH 12 0
BBX 9 17 2 -4
BITMAP
8100
8200
8400
8400
8800
8800
F000
8800
8400
8400
8200
8100
8180
0080
0080
0080
0080
ENDCHAR
STARTCHAR 049B
ENCODING 1179
SWIDTH 514 0
DWIDTH 10 0
BBX 7 13 2 -3
BITMAP
84
88
88
90
F0
90
88
88
84
82
02
02
02
ENDCHAR
STARTCHAR 04A0
ENCODING 1184
SWIDTH 720 0
DWIDTH 14 0
BBX 12 13 1 0
BITMAP
F830
0820
0840
0880
0880
0900
0F00
0880
0880
0840
0820
0820
0810
ENDCHAR
STARTCHAR 04A1
ENCODING 1185
SWIDTH 565 0
DWIDTH 11 0
BBX 10 9 1 1
BITMAP
F0C0
1100
1100
1200
1E00
1100
1100
1080
1000
ENDCHAR
STARTCHAR 04A2
ENCODING 1186
SWIDTH 668 0
DWIDTH 13 0
BBX 10 17 2 -4
BITMAP
8080
8080
8080
8080
8080
8080
FF80
8080
8080
8080
8080
8080
80C0
0040
0040
0040
0040
ENDCHAR
STARTCHAR 04A3
ENCODING 1187
SWIDTH 565 0
DWIDTH 11 0
BBX 8 12 2 -3
BITMAP
82
82
82
82
FE
82
82
82
83
01
01
01
ENDCHAR
STARTCHAR 04AA
ENCODING 1194
SWIDTH 565 0
DWIDTH 11 0
BBX 9 16 1 -3
BITMAP
1F00
2080
4000
4000
8000
8000
8000
8000
8000
4000
4000
2080
1F00
0400
0400
0400
ENDCHAR
STARTCHAR 04AB
ENCODING 1195
SWIDTH 462 0
DWIDTH 9 0
BBX 7 13 1 -3
BITMAP
3C
42
80
80
80
80
80
80
42
3C
08
08
08
ENDCHAR
STARTCHAR 04AE
ENCODING 1198
SWIDTH 462 0
DWIDTH 9 0
BBX 8 13 0 0
BITMAP
80
41
42
22
24
14
18
08
08
08
08
08
08
ENDCHAR
STARTCHAR 04AF
ENCODING 1199
SWIDTH 411 0
DWIDTH 8 0
BBX 8 14 0 -4
BITMAP
81
41
42
42
22
24
14
18
08
08
08
08
08
08
ENDCHAR
STARTCHAR 04B0
ENCODING 1200
SWIDTH 462 0
DWIDTH 9 0
BBX 8 13 0 0
BITMAP
80
41
42
22
24
14
18
7E
08
08
08
08
08
ENDCHAR
STARTCHAR 04B1
ENCODING 1201
SWIDTH 411 0
DWIDTH 8 0
BBX 8 13 0 -4
BITMAP
81
41
42
22
24
24
14
18
7F
08
08
08
08
ENDCHAR
STARTCHAR 04B2
ENCODING 1202
SWIDTH 514 0
DWIDTH 10 0
BBX 8 16 1 -4
BITMAP
81
82
44
44
28
18
10
28
28
44
42
82
81
01
01
01
ENDCHAR
STARTCHAR 04B3
ENCODING 1203
SWIDTH 462 0
DWIDTH 9 0
BBX 8 12 0 -3
BITMAP
42
24
24
18
18
28
24
42
83
01
01
01
ENDCHAR
STARTCHAR 04B6
ENCODING 1206
SWIDTH 565 0
DWIDTH 11 0
BBX 10 17 1 -4
BITMAP
8100
8100
8100
8100
8100
4100
3F00
0100
0100
0100
0100
0100
01C0
0040
0040
0040
0040
ENDCHAR
STARTCHAR 04B7
ENCODING 1207
SWIDTH 462 0
DWIDTH 9 0
BBX 8 13 1 -3
BITMAP
82
82
82
82
42
7E
02
02
02
03
01
01
01
ENDCHAR
STARTCHAR 04BA
ENCODING 1210
SWIDTH 565 0
DWIDTH 11 0
BBX 8 13 2 0
BITMAP
80
80
80
80
80
F8
86
81
81
81
81
81
81
ENDCHAR
STARTCHAR 04BB
ENCODING 1211
SWIDTH 514 0
DWIDTH 10 0
BBX 7 14 2 0
BITMAP
80
80
80
80
BC
C4
82
82
82
82
82
82
82
82
ENDCHAR
STARTCHAR 04C0
ENCODING 1216
SWIDTH 257 0
DWIDTH 5 0
BBX 1 13 2 0
BITMAP
80
80
80
80
80
80
80
80
80
80
80
80
80
ENDCHAR
STARTCHAR 04C1
ENCODING 1217
SWIDTH 771 0
DWIDTH 15 0
BBX 15 16 0 0
BITMAP
0440
0380
0000
C106
2108
2110
1110
1110
0920
0FE0
1120
1110
2108
2108
4104
4104
ENDCHAR
STARTCHAR 04C2
ENCODING 1218
SWIDTH 617 0
DWIDTH 12 0
BBX 11 13 1 1
BITMAP
2100
1200
0C00
0000
8460
4480
4480
2500
3F00
2480
4480
8440
8440
ENDCHAR
STARTCHAR 04CF
ENCODING 1231
SWIDTH 257 0
DWIDTH 5 0
BBX 1 14 2 0
BITMAP
80
80
80
80
80
80
80
80
80
80
80
80
80
80
ENDCHAR
STARTCHAR 04D0
ENCODING 1232
SWIDTH 514 0
DWIDTH 10 0
BBX 10 16 0 0
BITMAP
2100
1E00
0000
0C00
0C00
0C00
1200
1200
1200
2100
2100
3F00
4080
4080
4040
8040
ENDCHAR
STARTCHAR 04D1
ENCODING 1233
SWIDTH 514 0
DWIDTH 10 0
BBX 7 14 1 0
BITMAP
42
24
18
00
3C
42
02
02
1E
62
82
82
86
7A
ENDCHAR
STARTCHAR 04D4
ENCODING 1236
SWIDTH 822 0
DWIDTH 16 0
BBX 14 13 1 0
BITMAP
03FC
0300
0500
0500
0900
1900
11F8
2100
3F00
4100
4100
8100
81FC
ENDCHAR
STARTCHAR 04D5
ENCODING 1237
SWIDTH 771 0
DWIDTH 15 0
BBX 13 10 1 0
BITMAP
3CF0
4308
0308
0208
1FF8
6200
8200
8300
8500
78F8
ENDCHAR
STARTCHAR 04D6
ENCODING 1238
SWIDTH 514 0
DWIDTH 10 0
BBX 7 16 2 0
BITMAP
44
38
00
FE
80
80
80
80
80
FC
80
80
80
80
80
FE
ENDCHAR
STARTCHAR 04D7
ENCODING 1239
SWIDTH 462 0
DWIDTH 9 0
BBX 8 14 1 0
BITMAP
42
24
18
00
3C
42
82
81
FF
80
80
80
40
3E
ENDCHAR
STARTCHAR 04D8
ENCODING 1240
SWIDTH 668 0
DWIDTH 13 0
BBX 11 13 1 0
BITMAP
1F00
2080
0040
0040
0040
0040
FFE0
8040
8040
4040
4040
2080
1F00
ENDCHAR
STARTCHAR 04D9
ENCODING 1241
SWIDTH 462 0
DWIDTH 9 0
BBX 7 10 1 0
BITMAP
78
04
02
02
02
FE
82
82
84
78
ENDCHAR
STARTCHAR 04E2
ENCODING 1250
SWIDTH 668 0
DWIDTH 13 0
BBX 9 16 2 0
BITMAP
3E00
0000
0000
8180
8180
8280
8480
8480
8880
8880
9080
9080
A080
C080
C080
8080
ENDCHAR
STARTCHAR 04E3
ENCODING 1251
SWIDTH 565 0
DWIDTH 11 0
BBX 7 13 2 0
BITMAP
7C
00
00
82
86
8A
8A
92
A2
A2
C2
C2
82
ENDCHAR
STARTCHAR 04E6
ENCODING 1254
SWIDTH 668 0
DWIDTH 13 0
BBX 11 15 1 0
BITMAP
1100
0000
1F00
2080
4040
4040
8040
8020
8020
8020
8040
4040
4040
2080
1F00
ENDCHAR
STARTCHAR 04E7
ENCODING 1255
SWIDTH 514 0
DWIDTH 10 0
BBX 8 13 1 0
BITMAP
26
00
00
3C
42
81
81
81
81
81
81
42
3C
ENDCHAR
STARTCHAR 04E8
ENCODING 1256
SWIDTH 668 0
DWIDTH 13 0
BBX 11 13 1 0
BITMAP
1F00
2080
4040
4040
8040
8020
FFE0
8020
8040
8040
4040
2080
1F00
ENDCHAR
STARTCHAR 04E9
ENCODING 1257
SWIDTH 514 0
DWIDTH 10 0
BBX 8 10 1 0
BITMAP
3C
42
81
81
FF
81
81
81
42
3C
ENDCHAR
STARTCHAR 04EE
ENCODING 1262
SWIDTH 514 0
DWIDTH 10 0
BBX 9 15 0 0
BITMAP
3E00
0000
8080
4080
4100
2100
2100
2200
1200
1400
0C00
0C00
0800
0800
7000
ENDCHAR
STARTCHAR 04EF
ENCODING 1263
SWIDTH 411 0
DWIDTH 8 0
BBX 8 17 0 -4
BITMAP
3E
00
00
81
41
42
42
22
24
14
14
18
08
08
10
10
60
ENDCHAR
STARTCHAR 04F2
ENCODING 1266
SWIDTH 514 0
DWIDTH 10 0
BBX 9 17 0 0
BITMAP
0900
1200
1200
0000
8080
4080
4100
2100
2100
2200
1200
1400
0C00
0C00
0800
0800
7000
ENDCHAR
STARTCHAR 04F3
ENCODING 1267
SWIDTH 411 0
DWIDTH 8 0
BBX 8 19 0 -4
BITMAP
09
0A
12
10
00
81
41
41
42
22
24
24
14
18
08
08
10
10
60
ENDCHAR
STARTCHAR 1D43
ENCODING 7491
SWIDTH 360 0
DWIDTH 7 0
BBX 5 7 1 7
BITMAP
70
10
08
F8
88
98
60
ENDCHAR
STARTCHAR 1D47
ENCODING 7495
SWIDTH 360 0
DWIDTH 7 0
BBX 5 10 1 7
BITMAP
80
80
80
F0
88
88
88
88
88
F0
ENDCHAR
STARTCHAR 1D48
ENCODING 7496
SWIDTH 360 0
DWIDTH 7 0
BBX 5 10 1 7
BITMAP
08
08
08
78
88
88
88
88
88
78
ENDCHAR
STARTCHAR 1D49
ENCODING 7497
SWIDTH 308 0
DWIDTH 6 0
BBX 5 7 1 7
BITMAP
70
88
88
F8
80
80
70
ENDCHAR
STARTCHAR 1D4D
ENCODING 7501
SWIDTH 308 0
DWIDTH 6 0
BBX 5 9 1 5
BITMAP
78
90
90
70
80
F0
88
88
F0
ENDCHAR
STARTCHAR 1D4F
ENCODING 7503
SWIDTH 308 0
DWIDTH 6 0
BBX 5 9 1 8
BITMAP
80
80
80
90
A0
A0
E0
90
88
ENDCHAR
STARTCHAR 1D50
ENCODING 7504
SWIDTH 565 0
DWIDTH 11 0
BBX 9 6 1 8
BITMAP
F700
8880
8880
8880
8880
8880
ENDCHAR
STARTCHAR 1D52
ENCODING 7506
SWIDTH 360 0
DWIDTH 7 0
BBX 5 7 1 7
BITMAP
70
88
88
88
88
88
70
ENDCHAR
STARTCHAR 1D56
ENCODING 7510
SWIDTH 360 0
DWIDTH 7 0
BBX 5 9 1 5
BITMAP
F0
88
88
88
88
88
F0
80
80
ENDCHAR
STARTCHAR 1D57
ENCODING 7511
SWIDTH 205 0
DWIDTH 4 0
BBX 4 8 0 8
BITMAP
40
40
F0
40
40
40
40
30
ENDCHAR
STARTCHAR 1D58
ENCODING 7512
SWIDTH 360 0
DWIDTH 7 0
BBX 5 6 1 8
BITMAP
88
88
88
88
88
78
ENDCHAR
STARTCHAR 1D5B
ENCODING 7515
SWIDTH 308 0
DWIDTH 6 0
BBX 5 6 0 8
BITMAP
88
48
48
50
30
30
ENDCHAR
STARTCHAR 1D9C
ENCODING 7580
SWIDTH 308 0
DWIDTH 6 0
BBX 4 7 1 7
BITMAP
70
80
80
80
80
80
70
ENDCHAR
STARTCHAR 1DA0
ENCODING 7584
SWIDTH 205 0
DWIDTH 4 0
BBX 4 9 0 8
BITMAP
30
40
40
E0
40
40
40
40
40
ENDCHAR
STARTCHAR 1DBB
ENCODING 7611
SWIDTH 257 0
DWIDTH 5 0
BBX 5 6 0 8
BITMAP
78
10
20
20
40
F8
ENDCHAR
STARTCHAR 1E06
ENCODING 7686
SWIDTH 565 0
DWIDTH 11 0
BBX 8 16 2 -3
BITMAP
FC
82
81
81
82
82
FC
83
81
81
81
83
FC
00
00
7C
ENDCHAR
STARTCHAR 1E07
ENCODING 7687
SWIDTH 565 0
DWIDTH 11 0
BBX 8 17 2 -3
BITMAP
80
80
80
80
BC
C2
82
82
81
81
82
82
84
F8
00
00
7C
ENDCHAR
STARTCHAR 1E0C
ENCODING 7692
SWIDTH 617 0
DWIDTH 12 0
BBX 9 17 2 -4
BITMAP
FC00
8200
8100
8100
8100
8080
8080
8080
8100
8100
8100
8200
FC00
0000
0000
0000
1800
ENDCHAR
STARTCHAR 1E0D
ENCODING 7693
SWIDTH 565 0
DWIDTH 11 0
BBX 8 18 1 -4
BITMAP
01
01
01
01
3D
43
41
81
81
81
81
81
43
3D
00
00
08
08
ENDCHAR
STARTCHAR 1E0E
ENCODING 7694
SWIDTH 617 0
DWIDTH 12 0
BBX 9 16 2 -3
BITMAP
FC00
8200
8100
8100
8100
8080
8080
8080
8100
8100
8100
8200
FC00
0000
0000
7C00
ENDCHAR
STARTCHAR 1E0F
ENCODING 7695
SWIDTH 565 0
DWIDTH 11 0
BBX 8 17 1 -3
BITMAP
01
01
01
01
3D
43
41
81
81
81
81
81
43
3D
00
00
3E
ENDCHAR
STARTCHAR 1E16
ENCODING 7702
SWIDTH 514 0
DWIDTH 10 0
BBX 7 18 2 0
BITMAP
08
10
00
7C
00
FE
80
80
80
80
80
FC
80
80
80
80
80
FE
ENDCHAR
STARTCHAR 1E17
ENCODING 7703
SWIDTH 462 0
DWIDTH 9 0
BBX 8 16 1 0
BITMAP
04
08
10
3C
00
00
3C
42
82
81
FF
80
80
80
40
3E
ENDCHAR
STARTCHAR 1E20
ENCODING 7712
SWIDTH 617 0
DWIDTH 12 0
BBX 9 15 1 0
BITMAP
1F00
0000
1F00
2080
4000
8000
8000
8000
8780
8080
8080
4080
4080
2080
1F00
ENDCHAR
STARTCHAR 1E21
ENCODING 7713
SWIDTH 462 0
DWIDTH 9 0
BBX 8 18 1 -5
BITMAP
3C
00
00
3F
42
82
82
42
44
78
80
40
7E
81
81
81
42
3C
ENDCHAR
STARTCHAR 1E24
ENCODING 7716
SWIDTH 617 0
DWIDTH 12 0
BBX 9 17 2 -4
BITMAP
8080
8080
8080
8080
8080
8080
FF80
8080
8080
8080
8080
8080
8080
0000
0000
0000
1800
ENDCHAR
STARTCHAR 1E25
ENCODING 7717
SWIDTH 514 0
DWIDTH 10 0
BBX 7 18 2 -4
BITMAP
80
80
80
80
BC
C4
82
82
82
82
82
82
82
82
00
00
10
10
ENDCHAR
STARTCHAR 1E2A
ENCODING 7722
SWIDTH 617 0
DWIDTH 12 0
BBX 9 18 2 -5
BITMAP
8080
8080
8080
8080
8080
8080
FF80
8080
8080
8080
8080
8080
8080
0000
0000
4200
2400
1800
ENDCHAR
STARTCHAR 1E2B
ENCODING 7723
SWIDTH 514 0
DWIDTH 10 0
BBX 7 19 2 -5
BITMAP
80
80
80
80
BC
C4
82
82
82
82
82
82
82
82
00
00
84
44
38
ENDCHAR
STARTCHAR 1E32
ENCODING 7730
SWIDTH 565 0
DWIDTH 11 0
BBX 8 17 2 -4
BITMAP
81
82
84
88
90
B0
E8
CC
84
82
82
81
81
00
00
08
08
ENDCHAR
STARTCHAR 1E33
ENCODING 7731
SWIDTH 462 0
DWIDTH 9 0
BBX 6 18 2 -4
BITMAP
80
80
80
80
84
88
90
90
B0
D0
88
88
84
84
00
00
00
30
ENDCHAR
STARTCHAR 1E34
ENCODING 7732
SWIDTH 565 0
DWIDTH 11 0
BBX 8 16 2 -3
BITMAP
81
82
84
88
90
B0
E8
CC
84
82
82
81
81
00
00
3E
ENDCHAR
STARTCHAR 1E35
ENCODING 7733
SWIDTH 462 0
DWIDTH 9 0
BBX 6 17 2 -3
BITMAP
80
80
80
80
84
88
90
90
B0
D0
88
88
84
84
00
00
78
ENDCHAR
STARTCHAR 1E36
ENCODING 7734
SWIDTH 462 0
DWIDTH 9 0
BBX 7 17 2 -4
BITMAP
80
80
80
80
80
80
80
80
80
80
80
80
FE
00
00
10
10
ENDCHAR
STARTCHAR 1E37
ENCODING 7735
SWIDTH 257 0
DWIDTH 5 0
BBX 1 18 2 -4
BITMAP
80
80
80
80
80
80
80
80
80
80
80
80
80
80
00
00
80
80
ENDCHAR
STARTCHAR 1E38
ENCODING 7736
SWIDTH 462 0
DWIDTH 9 0
BBX 9 19 0 -4
BITMAP
F800
0000
2000
2000
2000
2000
2000
2000
2000
2000
2000
2000
2000
2000
3F80
0000
0000
0400
0400
ENDCHAR
STARTCHAR 1E39
ENCODING 7737
SWIDTH 257 0
DWIDTH 5 0
BBX 5 21 0 -4
BITMAP
F8
00
00
20
20
20
20
20
20
20
20
20
20
20
20
20
20
00
00
20
20
ENDCHAR
STARTCHAR 1E3A
ENCODING 7738
SWIDTH 462 0
DWIDTH 9 0
BBX 7 16 2 -3
BITMAP
80
80
80
80
80
80
80
80
80
80
80
80
FE
00
00
7C
ENDCHAR
STARTCHAR 1E3B
ENCODING 7739
SWIDTH 257 0
DWIDTH 5 0
BBX 5 17 0 -3
BITMAP
20
20
20
20
20
20
20
20
20
20
20
20
20
20
00
00
F8
ENDCHAR
STARTCHAR 1E3E
ENCODING 7742
SWIDTH 720 0
DWIDTH 14 0
BBX 10 17 2 0
BITMAP
0200
0400
0800
0000
80C0
C0C0
C140
C140
A140
A240
A240
9240
9440
9440
8C40
8840
8040
ENDCHAR
STARTCHAR 1E3F
ENCODING 7743
SWIDTH 822 0
DWIDTH 16 0
BBX 12 15 2 0
BITMAP
0100
0300
0400
0000
0000
B8E0
C510
8610
8410
8410
8410
8410
8410
8410
8410
ENDCHAR
STARTCHAR 1E40
ENCODING 7744
SWIDTH 720 0
DWIDTH 14 0
BBX 10 15 2 1
BITMAP
0C00
0000
80C0
C0C0
C140
C140
A140
A240
A240
9240
9440
9440
8C40
8840
8040
ENDCHAR
STARTCHAR 1E41
ENCODING 7745
SWIDTH 822 0
DWIDTH 16 0
BBX 12 13 2 1
BITMAP
0600
0000
0000
B8E0
C510
8610
8410
8410
8410
8410
8410
8410
8410
ENDCHAR
STARTCHAR 1E42
ENCODING 7746
SWIDTH 720 0
DWIDTH 14 0
BBX 10 17 2 -4
BITMAP
80C0
C0C0
C140
C140
A140
A240
A240
9240
9440
9440
8C40
8840
8040
0000
0000
0000
0C00
ENDCHAR
STARTCHAR 1E43
ENCODING 7747
SWIDTH 822 0
DWIDTH 16 0
BBX 12 14 2 -4
BITMAP
B8E0
C510
8610
8410
8410
8410
8410
8410
8410
8410
0000
0000
0000
0600
ENDCHAR
STARTCHAR 1E44
ENCODING 7748
SWIDTH 617 0
DWIDTH 12 0
BBX 8 16 2 0
BITMAP
08
08
00
81
C1
C1
A1
A1
91
89
89
85
85
83
81
81
ENDCHAR
STARTCHAR 1E45
ENCODING 7749
SWIDTH 514 0
DWIDTH 10 0
BBX 7 14 2 0
BITMAP
10
10
00
00
BC
C4
82
82
82
82
82
82
82
82
ENDCHAR
STARTCHAR 1E46
ENCODING 7750
SWIDTH 617 0
DWIDTH 12 0
BBX 8 17 2 -4
BITMAP
81
C1
C1
A1
A1
91
89
89
85
85
83
81
81
00
00
00
18
ENDCHAR
STARTCHAR 1E47
ENCODING 7751
SWIDTH 514 0
DWIDTH 10 0
BBX 7 14 2 -4
BITMAP
BC
C4
82
82
82
82
82
82
82
82
00
00
10
10
ENDCHAR
STARTCHAR 1E48
ENCODING 7752
SWIDTH 617 0
DWIDTH 12 0
BBX 8 16 2 -3
BITMAP
81
C1
C1
A1
A1
91
89
89
85
85
83
81
81
00
00
3E
ENDCHAR
STARTCHAR 1E49
ENCODING 7753
SWIDTH 514 0
DWIDTH 10 0
BBX 7 13 2 -3
BITMAP
BC
C4
82
82
82
82
82
82
82
82
00
00
7C
ENDCHAR
STARTCHAR 1E52
ENCODING 7762
SWIDTH 668 0
DWIDTH 13 0
BBX 11 18 1 0
BITMAP
0200
0400
0000
1F00
0000
1F00
2080
4040
4040
8040
8020
8020
8020
8040
4040
4040
2080
1F00
ENDCHAR
STARTCHAR 1E53
ENCODING 7763
SWIDTH 514 0
DWIDTH 10 0
BBX 8 16 1 0
BITMAP
04
08
10
3E
00
00
3C
42
81
81
81
81
81
81
42
3C
ENDCHAR
STARTCHAR 1E58
ENCODING 7768
SWIDTH 565 0
DWIDTH 11 0
BBX 8 16 2 0
BITMAP
10
10
00
FC
82
81
81
81
82
FC
88
88
84
82
82
81
ENDCHAR
STARTCHAR 1E59
ENCODING 7769
SWIDTH 308 0
DWIDTH 6 0
BBX 4 13 2 1
BITMAP
60
00
00
B0
C0
80
80
80
80
80
80
80
80
ENDCHAR
STARTCHAR 1E5A
ENCODING 7770
SWIDTH 565 0
DWIDTH 11 0
BBX 8 17 2 -4
BITMAP
FC
82
81
81
81
82
FC
88
88
84
82
82
81
00
00
10
10
ENDCHAR
STARTCHAR 1E5B
ENCODING 7771
SWIDTH 308 0
DWIDTH 6 0
BBX 5 14 1 -4
BITMAP
58
60
40
40
40
40
40
40
40
40
00
00
00
C0
ENDCHAR
STARTCHAR 1E5C
ENCODING 7772
SWIDTH 565 0
DWIDTH 11 0
BBX 8 19 2 -4
BITMAP
7C
00
FC
82
81
81
81
82
FC
88
88
84
82
82
81
00
00
10
10
ENDCHAR
STARTCHAR 1E5D
ENCODING 7773
SWIDTH 308 0
DWIDTH 6 0
BBX 5 17 1 -4
BITMAP
F8
00
00
58
60
40
40
40
40
40
40
40
40
00
00
00
C0
ENDCHAR
STARTCHAR 1E5E
ENCODING 7774
SWIDTH 565 0
DWIDTH 11 0
BBX 8 16 2 -3
BITMAP
FC
82
81
81
81
82
FC
88
88
84
82
82
81
00
00
7C
ENDCHAR
STARTCHAR 1E5F
ENCODING 7775
SWIDTH 308 0
DWIDTH 6 0
BBX 6 13 0 -3
BITMAP
2C
30
20
20
20
20
20
20
20
20
00
00
F8
ENDCHAR
STARTCHAR 1E60
ENCODING 7776
SWIDTH 514 0
DWIDTH 10 0
BBX 8 16 1 0
BITMAP
08
08
00
3C
43
40
40
40
30
0C
03
01
01
01
C1
3E
ENDCHAR
STARTCHAR 1E61
ENCODING 7777
SWIDTH 411 0
DWIDTH 8 0
BBX 6 13 1 1
BITMAP
30
00
00
78
80
80
80
60
18
04
04
84
78
ENDCHAR
STARTCHAR 1E62
ENCODING 7778
SWIDTH 514 0
DWIDTH 10 0
BBX 8 17 1 -4
BITMAP
3C
43
40
40
40
30
0C
03
01
01
01
C1
3E
00
00
08
08
ENDCHAR
STARTCHAR 1E63
ENCODING 7779
SWIDTH 411 0
DWIDTH 8 0
BBX 6 14 1 -4
BITMAP
78
80
80
80
60
18
04
04
84
78
00
00
10
10
ENDCHAR
STARTCHAR 1E6C
ENCODING 7788
SWIDTH 514 0
DWIDTH 10 0
BBX 9 17 1 -4
BITMAP
FF80
0800
0800
0800
0800
0800
0800
0800
0800
0800
0800
0800
0800
0000
0000
0000
1800
ENDCHAR
STARTCHAR 1E6D
ENCODING 7789
SWIDTH 308 0
DWIDTH 6 0
BBX 5 16 1 -4
BITMAP
40
40
40
F8
40
40
40
40
40
40
40
40
38
00
00
30
ENDCHAR
STARTCHAR 1E6E
ENCODING 7790
SWIDTH 514 0
DWIDTH 10 0
BBX 9 16 1 -3
BITMAP
FF80
0800
0800
0800
0800
0800
0800
0800
0800
0800
0800
0800
0800
0000
0000
3E00
ENDCHAR
STARTCHAR 1E6F
ENCODING 7791
SWIDTH 308 0
DWIDTH 6 0
BBX 5 16 1 -3
BITMAP
40
40
40
F8
40
40
40
40
40
40
40
40
38
00
00
F8
ENDCHAR
STARTCHAR 1E80
ENCODING 7808
SWIDTH 771 0
DWIDTH 15 0
BBX 13 16 1 1
BITMAP
0400
0200
0000
8208
8608
8508
8508
8510
4910
4890
4890
4890
50A0
3060
3060
3060
ENDCHAR
STARTCHAR 1E81
ENCODING 7809
SWIDTH 668 0
DWIDTH 13 0
BBX 12 14 1 1
BITMAP
0800
0400
0000
0000
8410
8A20
8A20
8A20
4A20
5140
5140
5140
3140
2080
ENDCHAR
STARTCHAR 1E82
ENCODING 7810
SWIDTH 771 0
DWIDTH 15 0
BBX 13 16 1 1
BITMAP
0100
0200
0000
8208
8608
8508
8508
8510
4910
4890
4890
4890
50A0
3060
3060
3060
ENDCHAR
STARTCHAR 1E83
ENCODING 7811
SWIDTH 668 0
DWIDTH 13 0
BBX 12 14 1 1
BITMAP
0200
0400
0000
0000
8410
8A20
8A20
8A20
4A20
5140
5140
5140
3140
2080
ENDCHAR
STARTCHAR 1E84
ENCODING 7812
SWIDTH 771 0
DWIDTH 15 0
BBX 13 15 1 0
BITMAP
0880
0000
8208
8608
8508
8508
8510
4910
4890
4890
4890
50A0
3060
3060
3060
ENDCHAR
STARTCHAR 1E85
ENCODING 7813
SWIDTH 668 0
DWIDTH 13 0
BBX 12 14 1 0
BITMAP
1900
0000
0000
0000
8410
8A20
8A20
8A20
4A20
5140
5140
5140
3140
2080
ENDCHAR
STARTCHAR 1E8E
ENCODING 7822
SWIDTH 462 0
DWIDTH 9 0
BBX 8 16 0 0
BITMAP
08
08
00
81
41
42
22
24
14
18
08
08
08
08
08
08
ENDCHAR
STARTCHAR 1E8F
ENCODING 7823
SWIDTH 411 0
DWIDTH 8 0
BBX 8 18 0 -4
BITMAP
08
08
00
00
81
41
42
42
22
24
14
14
18
08
08
10
10
60
ENDCHAR
STARTCHAR 1E92
ENCODING 7826
SWIDTH 514 0
DWIDTH 10 0
BBX 9 17 1 -4
BITMAP
7F00
0100
0200
0200
0400
0800
0800
1000
2000
2000
4000
4000
FF80
0000
0000
0800
0800
ENDCHAR
STARTCHAR 1E93
ENCODING 7827
SWIDTH 411 0
DWIDTH 8 0
BBX 6 14 1 -4
BITMAP
FC
08
08
10
10
20
40
40
80
FC
00
00
00
10
ENDCHAR
STARTCHAR 1E94
ENCODING 7828
SWIDTH 514 0
DWIDTH 10 0
BBX 9 16 1 -3
BITMAP
7F00
0100
0200
0200
0400
0800
0800
1000
2000
2000
4000
4000
FF80
0000
0000
3E00
ENDCHAR
STARTCHAR 1E95
ENCODING 7829
SWIDTH 411 0
DWIDTH 8 0
BBX 6 13 1 -3
BITMAP
FC
08
08
10
10
20
40
40
80
FC
00
00
7C
ENDCHAR
STARTCHAR 1E96
ENCODING 7830
SWIDTH 514 0
DWIDTH 10 0
BBX 7 17 2 -3
BITMAP
80
80
80
80
BC
C4
82
82
82
82
82
82
82
82
00
00
7C
ENDCHAR
STARTCHAR 1E97
ENCODING 7831
SWIDTH 308 0
DWIDTH 6 0
BBX 6 16 0 0
BITMAP
88
00
00
20
20
20
7C
20
20
20
20
20
20
20
20
1C
ENDCHAR
STARTCHAR 1E9E
ENCODING 7838
SWIDTH 668 0
DWIDTH 13 0
BBX 10 13 2 0
BITMAP
3E00
4100
8100
8100
8200
8400
8F00
8180
8080
8040
8040
9080
8F00
ENDCHAR
STARTCHAR 1EA0
ENCODING 7840
SWIDTH 514 0
DWIDTH 10 0
BBX 10 17 0 -4
BITMAP
0C00
0C00
0C00
1200
1200
1200
2100
2100
3F00
4080
4080
4040
8040
0000
0000
0000
0C00
ENDCHAR
STARTCHAR 1EA1
ENCODING 7841
SWIDTH 514 0
DWIDTH 10 0
BBX 7 14 1 -4
BITMAP
3C
42
02
02
1E
62
82
82
86
7A
00
00
10
10
ENDCHAR
STARTCHAR 1EA2
ENCODING 7842
SWIDTH 514 0
DWIDTH 10 0
BBX 10 17 0 0
BITMAP
0C00
0400
0400
0000
0C00
0C00
0C00
1200
1200
1200
2100
2100
3F00
4080
4080
4080
8040
ENDCHAR
STARTCHAR 1EA3
ENCODING 7843
SWIDTH 514 0
DWIDTH 10 0
BBX 7 15 1 0
BITMAP
18
08
08
10
00
3C
42
02
02
1E
62
82
82
86
7A
ENDCHAR
STARTCHAR 1EA4
ENCODING 7844
SWIDTH 514 0
DWIDTH 10 0
BBX 10 17 0 0
BITMAP
0080
0D00
1200
0000
0C00
0C00
0C00
1200
1200
1200
2100
2100
3F00
4080
4080
4040
8040
ENDCHAR
STARTCHAR 1EA5
ENCODING 7845
SWIDTH 514 0
DWIDTH 10 0
BBX 8 15 1 0
BITMAP
01
1A
24
00
00
3C
42
02
02
1E
62
82
82
86
7A
ENDCHAR
STARTCHAR 1EA6
ENCODING 7846
SWIDTH 514 0
DWIDTH 10 0
BBX 10 17 0 0
BITMAP
2000
2C00
1200
0000
0C00
0C00
0C00
1200
1200
1200
2100
2100
3F00
4080
4080
4040
8040
ENDCHAR
STARTCHAR 1EA7
ENCODING 7847
SWIDTH 514 0
DWIDTH 10 0
BBX 7 15 1 0
BITMAP
80
58
24
00
00
3C
42
02
02
1E
62
82
82
86
7A
ENDCHAR
STARTCHAR 1EA8
ENCODING 7848
SWIDTH 514 0
DWIDTH 10 0
BBX 10 17 0 1
BITMAP
0180
0D00
1200
0000
0C00
0C00
0C00
1200
1200
1200
2100
2100
3F00
4080
4080
4080
8040
ENDCHAR
STARTCHAR 1EA9
ENCODING 7849
SWIDTH 514 0
DWIDTH 10 0
BBX 7 16 1 0
BITMAP
04
02
1A
24
00
00
3C
42
02
02
1E
62
82
82
86
7A
ENDCHAR
STARTCHAR 1EAA
ENCODING 7850
SWIDTH 514 0
DWIDTH 10 0
BBX 10 18 0 0
BITMAP
1900
0600
0C00
1200
0000
0C00
0C00
0C00
1200
1200
1200
2100
2100
3F00
4080
4080
4040
8040
ENDCHAR
STARTCHAR 1EAB
ENCODING 7851
SWIDTH 514 0
DWIDTH 10 0
BBX 7 16 1 0
BITMAP
30
4C
18
24
00
00
3C
42
02
02
1E
62
82
82
86
7A
ENDCHAR
STARTCHAR 1EAC
ENCODING 7852
SWIDTH 514 0
DWIDTH 10 0
BBX 10 21 0 -4
BITMAP
0400
0A00
3100
0000
0C00
0C00
0C00
1200
1200
1200
2100
2100
3F00
4080
4080
4040
8040
0000
0000
0000
0C00
ENDCHAR
STARTCHAR 1EAD
ENCODING 7853
SWIDTH 514 0
DWIDTH 10 0
BBX 7 19 1 -4
BITMAP
18
28
24
00
00
3C
42
02
02
1E
62
82
82
86
7A
00
00
10
10
ENDCHAR
STARTCHAR 1EAE
ENCODING 7854
SWIDTH 514 0
DWIDTH 10 0
BBX 10 18 0 0
BITMAP
0200
0400
2100
1E00
0000
0C00
0C00
0C00
1200
1200
1200
2100
2100
3F00
4080
4080
4040
8040
ENDCHAR
STARTCHAR 1EAF
ENCODING 7855
SWIDTH 514 0
DWIDTH 10 0
BBX 7 15 1 1
BITMAP
08
52
44
38
00
3C
42
02
02
1E
62
82
82
86
7A
ENDCHAR
STARTCHAR 1EB0
ENCODING 7856
SWIDTH 514 0
DWIDTH 10 0
BBX 10 18 0 0
BITMAP
1000
0800
2100
1E00
0000
0C00
0C00
0C00
1200
1200
1200
2100
2100
3F00
4080
4080
4040
8040
ENDCHAR
STARTCHAR 1EB1
ENCODING 7857
SWIDTH 514 0
DWIDTH 10 0
BBX 7 15 1 1
BITMAP
10
4A
44
38
00
3C
42
02
02
1E
62
82
82
86
7A
ENDCHAR
STARTCHAR 1EB2
ENCODING 7858
SWIDTH 514 0
DWIDTH 10 0
BBX 10 19 0 0
BITMAP
0800
0400
0500
2200
1E00
0000
0C00
0C00
0C00
1200
1200
1200
2100
2100
3F00
4080
4080
4080
8040
ENDCHAR
STARTCHAR 1EB3
ENCODING 7859
SWIDTH 514 0
DWIDTH 10 0
BBX 7 17 1 0
BITMAP
10
08
48
42
24
18
00
3C
42
02
02
1E
62
82
82
86
7A
ENDCHAR
STARTCHAR 1EB4
ENCODING 7860
SWIDTH 514 0
DWIDTH 10 0
BBX 10 18 0 0
BITMAP
1900
2600
2100
1E00
0000
0C00
0C00
0C00
1200
1200
1200
2100
2100
3F00
4080
4080
4040
8040
ENDCHAR
STARTCHAR 1EB5
ENCODING 7861
SWIDTH 514 0
DWIDTH 10 0
BBX 7 16 1 0
BITMAP
30
4C
42
24
18
00
3C
42
02
02
1E
62
82
82
86
7A
ENDCHAR
STARTCHAR 1EB6
ENCODING 7862
SWIDTH 514 0
DWIDTH 10 0
BBX 10 20 0 -3
BITMAP
2100
1E00
0000
0C00
0C00
0C00
1200
1200
1200
2100
2100
3F00
4080
4080
4040
8040
0000
0000
0000
0C00
ENDCHAR
STARTCHAR 1EB7
ENCODING 7863
SWIDTH 514 0
DWIDTH 10 0
BBX 7 18 1 -4
BITMAP
42
24
18
00
3C
42
02
02
1E
62
82
82
86
7A
00
00
10
10
ENDCHAR
STARTCHAR 1EB8
ENCODING 7864
SWIDTH 514 0
DWIDTH 10 0
BBX 7 17 2 -4
BITMAP
FE
80
80
80
80
80
FC
80
80
80
80
80
FE
00
00
00
10
ENDCHAR
STARTCHAR 1EB9
ENCODING 7865
SWIDTH 462 0
DWIDTH 9 0
BBX 8 13 1 -4
BITMAP
3C
42
82
81
FF
80
80
80
40
3E
00
00
18
ENDCHAR
STARTCHAR 1EBA
ENCODING 7866
SWIDTH 514 0
DWIDTH 10 0
BBX 7 17 2 0
BITMAP
30
08
10
00
FE
80
80
80
80
80
FC
80
80
80
80
80
FE
ENDCHAR
STARTCHAR 1EBB
ENCODING 7867
SWIDTH 462 0
DWIDTH 9 0
BBX 8 15 1 0
BITMAP
18
08
08
00
00
3C
42
82
81
FF
80
80
80
40
3E
ENDCHAR
STARTCHAR 1EBC
ENCODING 7868
SWIDTH 514 0
DWIDTH 10 0
BBX 7 17 2 0
BITMAP
62
94
8C
00
FE
80
80
80
80
80
FC
80
80
80
80
80
FE
ENDCHAR
STARTCHAR 1EBD
ENCODING 7869
SWIDTH 462 0
DWIDTH 9 0
BBX 8 14 1 0
BITMAP
70
4E
00
00
3C
42
82
81
FF
80
80
80
40
3E
ENDCHAR
STARTCHAR 1EBE
ENCODING 7870
SWIDTH 514 0
DWIDTH 10 0
BBX 7 17 2 0
BITMAP
02
14
6C
00
FE
80
80
80
80
80
FC
80
80
80
80
80
FE
ENDCHAR
STARTCHAR 1EBF
ENCODING 7871
SWIDTH 462 0
DWIDTH 9 0
BBX 8 15 1 0
BITMAP
01
1A
24
00
00
3C
42
82
81
FF
80
80
80
40
3E
ENDCHAR
STARTCHAR 1EC0
ENCODING 7872
SWIDTH 514 0
DWIDTH 10 0
BBX 7 17 2 0
BITMAP
80
50
6C
00
FE
80
80
80
80
80
FC
80
80
80
80
80
FE
ENDCHAR
STARTCHAR 1EC1
ENCODING 7873
SWIDTH 462 0
DWIDTH 9 0
BBX 8 15 1 0
BITMAP
80
58
24
00
00
3C
42
82
81
FF
80
80
80
40
3E
ENDCHAR
STARTCHAR 1EC2
ENCODING 7874
SWIDTH 514 0
DWIDTH 10 0
BBX 7 18 2 0
BITMAP
04
02
16
6C
00
FE
80
80
80
80
80
FC
80
80
80
80
80
FE
ENDCHAR
STARTCHAR 1EC3
ENCODING 7875
SWIDTH 462 0
DWIDTH 9 0
BBX 8 15 1 1
BITMAP
03
1A
24
00
00
3C
42
82
81
FF
80
80
80
40
3E
ENDCHAR
STARTCHAR 1EC4
ENCODING 7876
SWIDTH 514 0
DWIDTH 10 0
BBX 7 18 2 0
BITMAP
74
08
10
6C
00
FE
80
80
80
80
80
FC
80
80
80
80
80
FE
ENDCHAR
STARTCHAR 1EC5
ENCODING 7877
SWIDTH 462 0
DWIDTH 9 0
BBX 8 16 1 0
BITMAP
32
0C
18
24
00
00
3C
42
82
81
FF
80
80
80
40
3E
ENDCHAR
STARTCHAR 1EC6
ENCODING 7878
SWIDTH 514 0
DWIDTH 10 0
BBX 7 21 2 -4
BITMAP
10
28
44
00
FE
80
80
80
80
80
FC
80
80
80
80
80
FE
00
00
00
10
ENDCHAR
STARTCHAR 1EC7
ENCODING 7879
SWIDTH 462 0
DWIDTH 9 0
BBX 8 18 1 -4
BITMAP
18
18
24
00
00
3C
42
82
81
FF
80
80
80
40
3E
00
00
18
ENDCHAR
STARTCHAR 1EC8
ENCODING 7880
SWIDTH 257 0
DWIDTH 5 0
BBX 3 17 1 0
BITMAP
80
60
20
40
40
40
40
40
40
40
40
40
40
40
40
40
40
ENDCHAR
STARTCHAR 1EC9
ENCODING 7881
SWIDTH 205 0
DWIDTH 4 0
BBX 3 15 1 0
BITMAP
80
60
40
00
00
40
40
40
40
40
40
40
40
40
40
ENDCHAR
STARTCHAR 1ECA
ENCODING 7882
SWIDTH 257 0
DWIDTH 5 0
BBX 1 17 2 -4
BITMAP
80
80
80
80
80
80
80
80
80
80
80
80
80
00
00
80
80
ENDCHAR
STARTCHAR 1ECB
ENCODING 7883
SWIDTH 205 0
DWIDTH 4 0
BBX 2 18 1 -4
BITMAP
C0
00
00
00
40
40
40
40
40
40
40
40
40
40
00
00
00
40
ENDCHAR
STARTCHAR 1ECC
ENCODING 7884
SWIDTH 668 0
DWIDTH 13 0
BBX 11 17 1 -4
BITMAP
1F00
2080
4040
4040
8040
8020
8020
8020
8040
4040
4040
2080
1F00
0000
0000
0400
0400
ENDCHAR
STARTCHAR 1ECD
ENCODING 7885
SWIDTH 514 0
DWIDTH 10 0
BBX 8 14 1 -4
BITMAP
3C
42
81
81
81
81
81
81
42
3C
00
00
08
08
ENDCHAR
STARTCHAR 1ECE
ENCODING 7886
SWIDTH 668 0
DWIDTH 13 0
BBX 11 17 1 0
BITMAP
0800
0600
0400
0000
1F00
2080
4040
4040
8040
8020
8020
8020
8040
4040
4040
2080
1F00
ENDCHAR
STARTCHAR 1ECF
ENCODING 7887
SWIDTH 514 0
DWIDTH 10 0
BBX 8 15 1 0
BITMAP
18
04
08
00
00
3C
42
81
81
81
81
81
81
42
3C
ENDCHAR
STARTCHAR 1ED0
ENCODING 7888
SWIDTH 668 0
DWIDTH 13 0
BBX 11 17 1 0
BITMAP
0080
0500
0A00
1000
1F00
2080
4040
4040
8040
8020
8020
8020
8040
4040
4040
2080
1F00
ENDCHAR
STARTCHAR 1ED1
ENCODING 7889
SWIDTH 514 0
DWIDTH 10 0
BBX 8 15 1 0
BITMAP
01
0A
34
00
00
3C
42
81
81
81
81
81
81
42
3C
ENDCHAR
STARTCHAR 1ED2
ENCODING 7890
SWIDTH 668 0
DWIDTH 13 0
BBX 11 17 1 0
BITMAP
2000
2400
0A00
1000
1F00
2080
4040
4040
8040
8020
8020
8020
8040
4040
4040
2080
1F00
ENDCHAR
STARTCHAR 1ED3
ENCODING 7891
SWIDTH 514 0
DWIDTH 10 0
BBX 8 15 1 0
BITMAP
80
48
34
00
00
3C
42
81
81
81
81
81
81
42
3C
ENDCHAR
STARTCHAR 1ED4
ENCODING 7892
SWIDTH 668 0
DWIDTH 13 0
BBX 11 18 1 0
BITMAP
0100
0080
0480
0B00
1000
1F00
2080
4040
4040
8040
8020
8020
8020
8040
4040
4040
2080
1F00
ENDCHAR
STARTCHAR 1ED5
ENCODING 7893
SWIDTH 514 0
DWIDTH 10 0
BBX 8 15 1 1
BITMAP
03
09
36
00
00
3C
42
81
81
81
81
81
81
42
3C
ENDCHAR
STARTCHAR 1ED6
ENCODING 7894
SWIDTH 668 0
DWIDTH 13 0
BBX 11 18 1 0
BITMAP
1900
0600
0400
0A00
1000
1F00
2080
4040
4040
8040
8020
8020
8020
8040
4040
4040
2080
1F00
ENDCHAR
STARTCHAR 1ED7
ENCODING 7895
SWIDTH 514 0
DWIDTH 10 0
BBX 8 16 1 0
BITMAP
32
0C
08
34
00
00
3C
42
81
81
81
81
81
81
42
3C
ENDCHAR
STARTCHAR 1ED8
ENCODING 7896
SWIDTH 668 0
DWIDTH 13 0
BBX 11 20 1 -4
BITMAP
0C00
1200
0000
1F00
2080
4040
4040
8040
8020
8020
8020
8040
4040
4040
2080
1F00
0000
0000
0400
0400
ENDCHAR
STARTCHAR 1ED9
ENCODING 7897
SWIDTH 514 0
DWIDTH 10 0
BBX 8 19 1 -4
BITMAP
08
14
24
00
00
3C
42
81
81
81
81
81
81
42
3C
00
00
08
08
ENDCHAR
STARTCHAR 1EDA
ENCODING 7898
SWIDTH 668 0
DWIDTH 13 0
BBX 11 16 1 1
BITMAP
0200
0420
0040
1FC0
2080
4040
4040
8040
8020
8020
8020
8040
4040
4040
2080
1F00
ENDCHAR
STARTCHAR 1EDB
ENCODING 7899
SWIDTH 514 0
DWIDTH 10 0
BBX 9 14 1 1
BITMAP
0400
0800
0080
0080
3F00
4200
8100
8100
8100
8100
8100
8100
4200
3C00
ENDCHAR
STARTCHAR 1EDC
ENCODING 7900
SWIDTH 668 0
DWIDTH 13 0
BBX 11 16 1 1
BITMAP
0800
0420
0040
1FC0
2080
4040
4040
8040
8020
8020
8020
8040
4040
4040
2080
1F00
ENDCHAR
STARTCHAR 1EDD
ENCODING 7901
SWIDTH 514 0
DWIDTH 10 0
BBX 9 14 1 1
BITMAP
3000
0800
0080
0080
3F00
4200
8100
8100
8100
8100
8100
8100
4200
3C00
ENDCHAR
STARTCHAR 1EDE
ENCODING 7902
SWIDTH 668 0
DWIDTH 13 0
BBX 11 17 1 0
BITMAP
0800
0600
0420
0040
1FC0
2080
4040
4040
8040
8020
8020
8020
8040
4040
4040
2080
1F00
ENDCHAR
STARTCHAR 1EDF
ENCODING 7903
SWIDTH 514 0
DWIDTH 10 0
BBX 9 15 1 0
BITMAP
1800
0400
0880
0080
0080
3F00
4200
8100
8100
8100
8100
8100
8100
4200
3C00
ENDCHAR
STARTCHAR 1EE0
ENCODING 7904
SWIDTH 668 0
DWIDTH 13 0
BBX 11 16 1 0
BITMAP
1800
2720
0040
1FC0
2080
4040
4040
8040
8020
8020
8020
8040
4040
4040
2080
1F00
ENDCHAR
STARTCHAR 1EE1
ENCODING 7905
SWIDTH 514 0
DWIDTH 10 0
BBX 9 14 1 0
BITMAP
7000
4E80
0080
0100
3F00
4200
8100
8100
8100
8100
8100
8100
4200
3C00
ENDCHAR
STARTCHAR 1EE2
ENCODING 7906
SWIDTH 668 0
DWIDTH 13 0
BBX 11 19 1 -3
BITMAP
0020
0040
1FC0
2080
4040
4040
8040
8020
8020
8020
8040
4040
4040
2080
1F00
0000
0000
0400
0400
ENDCHAR
STARTCHAR 1EE3
ENCODING 7907
SWIDTH 514 0
DWIDTH 10 0
BBX 9 17 1 -4
BITMAP
0080
0080
0080
3F00
4200
8100
8100
8100
8100
8100
8100
4200
3C00
0000
0000
0800
0800
ENDCHAR
STARTCHAR 1EE4
ENCODING 7908
SWIDTH 617 0
DWIDTH 12 0
BBX 8 16 2 -4
BITMAP
81
81
81
81
81
81
81
81
81
81
81
43
3C
00
00
18
ENDCHAR
STARTCHAR 1EE5
ENCODING 7909
SWIDTH 514 0
DWIDTH 10 0
BBX 6 14 2 -4
BITMAP
84
84
84
84
84
84
84
84
8C
74
00
00
10
10
ENDCHAR
STARTCHAR 1EE6
ENCODING 7910
SWIDTH 617 0
DWIDTH 12 0
BBX 8 17 2 0
BITMAP
18
04
08
00
81
81
81
81
81
81
81
81
81
81
81
43
3C
ENDCHAR
STARTCHAR 1EE7
ENCODING 7911
SWIDTH 514 0
DWIDTH 10 0
BBX 6 15 2 0
BITMAP
20
10
10
00
00
80
84
84
84
84
84
84
84
8C
70
ENDCHAR
STARTCHAR 1EE8
ENCODING 7912
SWIDTH 668 0
DWIDTH 13 0
BBX 11 16 2 1
BITMAP
0C40
1020
0040
8080
8100
8100
8100
8100
8100
8100
8100
8100
8100
8100
4300
3C00
ENDCHAR
STARTCHAR 1EE9
ENCODING 7913
SWIDTH 514 0
DWIDTH 10 0
BBX 8 14 2 1
BITMAP
08
11
21
01
86
84
84
84
84
84
84
84
8C
74
ENDCHAR
STARTCHAR 1EEA
ENCODING 7914
SWIDTH 668 0
DWIDTH 13 0
BBX 11 17 2 0
BITMAP
2000
1040
0820
0040
8080
8100
8100
8100
8100
8100
8100
8100
8100
8100
8100
4300
3C00
ENDCHAR
STARTCHAR 1EEB
ENCODING 7915
SWIDTH 514 0
DWIDTH 10 0
BBX 8 15 2 0
BITMAP
40
60
11
01
01
86
84
84
84
84
84
84
84
8C
74
ENDCHAR
STARTCHAR 1EEC
ENCODING 7916
SWIDTH 668 0
DWIDTH 13 0
BBX 11 17 2 0
BITMAP
1800
0840
0820
0040
8180
8100
8100
8100
8100
8100
8100
8100
8100
8100
8100
4300
3C00
ENDCHAR
STARTCHAR 1EED
ENCODING 7917
SWIDTH 514 0
DWIDTH 10 0
BBX 8 15 2 0
BITMAP
20
10
11
01
01
82
84
84
84
84
84
84
84
8C
70
ENDCHAR
STARTCHAR 1EEE
ENCODING 7918
SWIDTH 668 0
DWIDTH 13 0
BBX 11 17 2 0
BITMAP
3000
4A40
4420
0040
8080
8100
8100
8100
8100
8100
8100
8100
8100
8100
8100
4300
3C00
ENDCHAR
STARTCHAR 1EEF
ENCODING 7919
SWIDTH 514 0
DWIDTH 10 0
BBX 8 15 2 0
BITMAP
40
A4
9D
01
01
86
84
84
84
84
84
84
84
8C
74
ENDCHAR
STARTCHAR 1EF0
ENCODING 7920
SWIDTH 668 0
DWIDTH 13 0
BBX 11 19 2 -4
BITMAP
0040
0020
0040
8080
8100
8100
8100
8100
8100
8100
8100
8100
8100
8100
4300
3C00
0000
0000
1800
ENDCHAR
STARTCHAR 1EF1
ENCODING 7921
SWIDTH 514 0
DWIDTH 10 0
BBX 8 17 2 -4
BITMAP
01
01
01
86
84
84
84
84
84
84
84
8C
74
00
00
10
10
ENDCHAR
STARTCHAR 1EF2
ENCODING 7922
SWIDTH 462 0
DWIDTH 9 0
BBX 8 17 0 0
BITMAP
20
10
08
00
81
41
42
22
24
14
18
08
08
08
08
08
08
ENDCHAR
STARTCHAR 1EF3
ENCODING 7923
SWIDTH 411 0
DWIDTH 8 0
BBX 8 18 0 -3
BITMAP
10
08
00
00
81
41
42
42
22
24
14
14
18
08
08
10
10
60
ENDCHAR
STARTCHAR 1EF4
ENCODING 7924
SWIDTH 462 0
DWIDTH 9 0
BBX 8 17 0 -4
BITMAP
81
41
42
22
24
14
18
08
08
08
08
08
08
00
00
08
08
ENDCHAR
STARTCHAR 1EF5
ENCODING 7925
SWIDTH 411 0
DWIDTH 8 0
BBX 8 14 0 -4
BITMAP
81
41
42
42
22
24
14
14
18
08
08
10
13
60
ENDCHAR
STARTCHAR 1EF6
ENCODING 7926
SWIDTH 462 0
DWIDTH 9 0
BBX 9 17 0 0
BITMAP
1000
0C00
0400
0800
8080
4100
4100
2200
2200
2400
1400
0800
0800
0800
0800
0800
0800
ENDCHAR
STARTCHAR 1EF7
ENCODING 7927
SWIDTH 411 0
DWIDTH 8 0
BBX 8 19 0 -4
BITMAP
18
04
04
08
00
81
41
41
42
22
24
24
14
18
08
08
10
10
60
ENDCHAR
STARTCHAR 1EF8
ENCODING 7928
SWIDTH 462 0
DWIDTH 9 0
BBX 8 17 0 0
BITMAP
31
4A
46
00
81
41
42
22
24
14
18
08
08
08
08
08
08
ENDCHAR
STARTCHAR 1EF9
ENCODING 7929
SWIDTH 411 0
DWIDTH 8 0
BBX 8 19 0 -4
BITMAP
31
4A
46
00
00
81
41
42
42
22
24
14
14
18
08
08
10
10
60
ENDCHAR
STARTCHAR 1F00
ENCODING 7936
SWIDTH 565 0
DWIDTH 11 0
BBX 9 15 1 0
BITMAP
1800
0400
0800
0000
0000
3D00
4300
4300
8100
8100
8100
8200
8200
4600
3980
ENDCHAR
STARTCHAR 1F01
ENCODING 7937
SWIDTH 565 0
DWIDTH 11 0
BBX 9 15 1 0
BITMAP
0800
1000
1000
0000
0000
3D00
4300
4300
8100
8100
8100
8200
8200
4600
3980
ENDCHAR
STARTCHAR 1F02
ENCODING 7938
SWIDTH 565 0
DWIDTH 11 0
BBX 9 15 1 0
BITMAP
3400
1400
1400
2000
0000
3D00
4300
4300
8100
8100
8100
8200
8200
4600
3980
ENDCHAR
STARTCHAR 1F03
ENCODING 7939
SWIDTH 565 0
DWIDTH 11 0
BBX 9 15 1 0
BITMAP
3800
4400
2400
0400
0000
3D00
4300
4300
8100
8100
8100
8200
8200
4600
3980
ENDCHAR
STARTCHAR 1F04
ENCODING 7940
SWIDTH 565 0
DWIDTH 11 0
BBX 9 15 1 0
BITMAP
3400
1400
1400
2000
0000
3D00
4300
4300
8100
8100
8100
8200
8200
4600
3980
ENDCHAR
STARTCHAR 1F05
ENCODING 7941
SWIDTH 565 0
DWIDTH 11 0
BBX 9 15 1 0
BITMAP
3400
2400
2800
0000
0000
3D00
4300
4300
8100
8100
8100
8200
8200
4600
3980
ENDCHAR
STARTCHAR 1F06
ENCODING 7942
SWIDTH 565 0
DWIDTH 11 0
BBX 9 16 1 0
BITMAP
3A00
0400
1000
0800
0800
0000
3D00
4300
4300
8100
8100
8100
8200
8200
4600
3980
ENDCHAR
STARTCHAR 1F07
ENCODING 7943
SWIDTH 565 0
DWIDTH 11 0
BBX 9 16 1 0
BITMAP
3A00
0400
0000
1800
0800
0000
3D00
4300
4300
8100
8100
8100
8200
8200
4600
3980
ENDCHAR
STARTCHAR 1F08
ENCODING 7944
SWIDTH 514 0
DWIDTH 10 0
BBX 10 13 0 0
BITMAP
C400
4C00
4A00
9200
1200
1100
1100
2100
3F80
4080
4080
4040
8040
ENDCHAR
STARTCHAR 1F09
ENCODING 7945
SWIDTH 514 0
DWIDTH 10 0
BBX 10 13 0 0
BITMAP
C400
8C00
8A00
5200
1200
1100
2100
2100
3F80
4080
4080
4040
8040
ENDCHAR
STARTCHAR 1F0A
ENCODING 7946
SWIDTH 668 0
DWIDTH 13 0
BBX 12 13 0 0
BITMAP
9100
5300
5280
9280
0440
0440
0440
0820
0FE0
0820
1010
1010
1010
ENDCHAR
STARTCHAR 1F0B
ENCODING 7947
SWIDTH 668 0
DWIDTH 13 0
BBX 12 13 0 0
BITMAP
C100
9300
9280
1280
0480
0440
0440
0840
0FE0
0820
1020
1010
1010
ENDCHAR
STARTCHAR 1F0C
ENCODING 7948
SWIDTH 668 0
DWIDTH 13 0
BBX 12 13 0 0
BITMAP
9100
5300
6280
8280
0480
0440
0440
0820
0FE0
0820
1010
1010
1010
ENDCHAR
STARTCHAR 1F0D
ENCODING 7949
SWIDTH 668 0
DWIDTH 13 0
BBX 12 13 0 0
BITMAP
D100
9300
A280
2280
0480
0440
0440
0840
0FE0
0820
1020
1010
2010
ENDCHAR
STARTCHAR 1F0E
ENCODING 7950
SWIDTH 565 0
DWIDTH 11 0
BBX 11 13 0 0
BITMAP
F600
0600
6600
4900
0900
0900
1080
1080
1F80
2040
2040
2040
4020
ENDCHAR
STARTCHAR 1F0F
ENCODING 7951
SWIDTH 565 0
DWIDTH 11 0
BBX 11 13 0 0
BITMAP
F600
2600
C600
4900
0900
0900
1080
1080
1F80
2040
2040
2040
4020
ENDCHAR
STARTCHAR 1F10
ENCODING 7952
SWIDTH 411 0
DWIDTH 8 0
BBX 7 15 1 0
BITMAP
10
08
08
10
00
3C
40
80
40
38
40
80
80
82
7C
ENDCHAR
STARTCHAR 1F11
ENCODING 7953
SWIDTH 411 0
DWIDTH 8 0
BBX 7 15 1 0
BITMAP
18
20
10
00
00
3C
40
80
40
38
40
80
80
82
7C
ENDCHAR
STARTCHAR 1F12
ENCODING 7954
SWIDTH 411 0
DWIDTH 8 0
BBX 7 15 1 0
BITMAP
68
28
28
00
00
3C
40
80
40
38
40
80
80
82
7C
ENDCHAR
STARTCHAR 1F13
ENCODING 7955
SWIDTH 411 0
DWIDTH 8 0
BBX 7 15 1 0
BITMAP
68
48
48
00
00
3C
40
80
40
38
40
80
80
82
7C
ENDCHAR
STARTCHAR 1F14
ENCODING 7956
SWIDTH 411 0
DWIDTH 8 0
BBX 7 15 1 0
BITMAP
64
28
28
08
00
3C
40
80
40
38
40
80
80
82
7C
ENDCHAR
STARTCHAR 1F15
ENCODING 7957
SWIDTH 411 0
DWIDTH 8 0
BBX 7 15 1 0
BITMAP
28
48
48
00
00
3C
40
80
40
38
40
80
80
82
7C
ENDCHAR
STARTCHAR 1F18
ENCODING 7960
SWIDTH 617 0
DWIDTH 12 0
BBX 11 13 0 0
BITMAP
CFE0
4800
4800
8800
0800
0800
0FC0
0800
0800
0800
0800
0800
0FE0
ENDCHAR
STARTCHAR 1F19
ENCODING 7961
SWIDTH 617 0
DWIDTH 12 0
BBX 11 13 0 0
BITMAP
CFE0
8800
8800
4800
0800
0800
0FC0
0800
0800
0800
0800
0800
0FE0
ENDCHAR
STARTCHAR 1F1A
ENCODING 7962
SWIDTH 720 0
DWIDTH 14 0
BBX 13 13 0 0
BITMAP
97F0
5400
5400
9400
0400
0400
07F0
0400
0400
0400
0400
0400
07F8
ENDCHAR
STARTCHAR 1F1B
ENCODING 7963
SWIDTH 720 0
DWIDTH 14 0
BBX 13 13 0 0
BITMAP
C7F0
9400
9400
1400
0400
0400
07E0
0400
0400
0400
0400
0400
07F8
ENDCHAR
STARTCHAR 1F1C
ENCODING 7964
SWIDTH 720 0
DWIDTH 14 0
BBX 13 13 0 0
BITMAP
97F0
5400
6400
8400
0400
0400
07E0
0400
0400
0400
0400
0400
07F8
ENDCHAR
STARTCHAR 1F1D
ENCODING 7965
SWIDTH 668 0
DWIDTH 13 0
BBX 13 13 0 0
BITMAP
D7F0
9400
A400
2400
0400
0400
07E0
0400
0400
0400
0400
0400
07F8
ENDCHAR
STARTCHAR 1F20
ENCODING 7968
SWIDTH 514 0
DWIDTH 10 0
BBX 7 18 2 -3
BITMAP
30
08
10
00
00
BC
C4
82
82
82
82
82
82
82
82
02
02
02
ENDCHAR
STARTCHAR 1F21
ENCODING 7969
SWIDTH 514 0
DWIDTH 10 0
BBX 7 18 2 -3
BITMAP
18
20
20
00
00
BC
C4
82
82
82
82
82
82
82
82
02
02
02
ENDCHAR
STARTCHAR 1F22
ENCODING 7970
SWIDTH 514 0
DWIDTH 10 0
BBX 7 18 2 -3
BITMAP
68
28
28
40
00
BC
C4
82
82
82
82
82
82
82
82
02
02
02
ENDCHAR
STARTCHAR 1F23
ENCODING 7971
SWIDTH 514 0
DWIDTH 10 0
BBX 7 18 2 -3
BITMAP
70
88
48
08
00
BC
C4
82
82
82
82
82
82
82
82
02
02
02
ENDCHAR
STARTCHAR 1F24
ENCODING 7972
SWIDTH 514 0
DWIDTH 10 0
BBX 7 18 2 -3
BITMAP
68
28
28
40
00
BC
C4
82
82
82
82
82
82
82
82
02
02
02
ENDCHAR
STARTCHAR 1F25
ENCODING 7973
SWIDTH 514 0
DWIDTH 10 0
BBX 7 18 2 -3
BITMAP
68
48
48
00
00
BC
C4
82
82
82
82
82
82
82
82
02
02
02
ENDCHAR
STARTCHAR 1F26
ENCODING 7974
SWIDTH 514 0
DWIDTH 10 0
BBX 7 19 2 -3
BITMAP
74
48
00
18
10
00
BC
C4
82
82
82
82
82
82
82
82
02
02
02
ENDCHAR
STARTCHAR 1F27
ENCODING 7975
SWIDTH 514 0
DWIDTH 10 0
BBX 7 19 2 -3
BITMAP
74
48
00
30
10
00
BC
C4
82
82
82
82
82
82
82
82
02
02
02
ENDCHAR
STARTCHAR 1F28
ENCODING 7976
SWIDTH 720 0
DWIDTH 14 0
BBX 12 13 0 0
BITMAP
C810
4810
4810
8810
0810
0810
0FF0
0810
0810
0810
0810
0810
0810
ENDCHAR
STARTCHAR 1F29
ENCODING 7977
SWIDTH 720 0
DWIDTH 14 0
BBX 12 13 0 0
BITMAP
C810
8810
8810
4810
0810
0810
0FF0
0810
0810
0810
0810
0810
0810
ENDCHAR
STARTCHAR 1F2A
ENCODING 7978
SWIDTH 822 0
DWIDTH 16 0
BBX 14 13 0 0
BITMAP
9404
5404
5404
9404
0404
0404
07FC
0404
0404
0404
0404
0404
0404
ENDCHAR
STARTCHAR 1F2B
ENCODING 7979
SWIDTH 822 0
DWIDTH 16 0
BBX 14 13 0 0
BITMAP
C404
9404
9404
1404
0404
0404
07FC
0404
0404
0404
0404
0404
0404
ENDCHAR
STARTCHAR 1F2C
ENCODING 7980
SWIDTH 822 0
DWIDTH 16 0
BBX 14 13 0 0
BITMAP
9404
5404
6404
8404
0404
0404
07FC
0404
0404
0404
0404
0404
0404
ENDCHAR
STARTCHAR 1F2D
ENCODING 7981
SWIDTH 822 0
DWIDTH 16 0
BBX 14 13 0 0
BITMAP
D404
9404
A404
2404
0404
0404
07FC
0404
0404
0404
0404
0404
0404
ENDCHAR
STARTCHAR 1F2E
ENCODING 7982
SWIDTH 822 0
DWIDTH 16 0
BBX 14 13 0 0
BITMAP
F404
0404
6404
4404
0404
0404
07FC
0404
0404
0404
0404
0404
0404
ENDCHAR
STARTCHAR 1F2F
ENCODING 7983
SWIDTH 822 0
DWIDTH 16 0
BBX 14 13 0 0
BITMAP
F404
2404
C404
4404
0404
0404
07FC
0404
0404
0404
0404
0404
0404
ENDCHAR
STARTCHAR 1F30
ENCODING 7984
SWIDTH 257 0
DWIDTH 5 0
BBX 3 15 1 0
BITMAP
C0
20
40
00
00
40
40
40
40
40
40
40
40
40
60
ENDCHAR
STARTCHAR 1F31
ENCODING 7985
SWIDTH 257 0
DWIDTH 5 0
BBX 3 15 1 0
BITMAP
C0
80
80
00
00
40
40
40
40
40
40
40
40
40
60
ENDCHAR
STARTCHAR 1F32
ENCODING 7986
SWIDTH 257 0
DWIDTH 5 0
BBX 4 15 0 0
BITMAP
A0
50
90
00
00
20
20
20
20
20
20
20
20
20
30
ENDCHAR
STARTCHAR 1F33
ENCODING 7987
SWIDTH 257 0
DWIDTH 5 0
BBX 5 15 -1 0
BITMAP
70
90
48
00
00
10
10
10
10
10
10
10
10
10
18
ENDCHAR
STARTCHAR 1F34
ENCODING 7988
SWIDTH 257 0
DWIDTH 5 0
BBX 4 15 0 0
BITMAP
90
50
A0
00
00
20
20
20
20
20
20
20
20
20
30
ENDCHAR
STARTCHAR 1F35
ENCODING 7989
SWIDTH 257 0
DWIDTH 5 0
BBX 4 15 0 0
BITMAP
D0
90
A0
00
00
20
20
20
20
20
20
20
20
20
30
ENDCHAR
STARTCHAR 1F36
ENCODING 7990
SWIDTH 257 0
DWIDTH 5 0
BBX 5 16 0 0
BITMAP
C8
30
60
20
00
00
20
20
20
20
20
20
20
20
20
30
ENDCHAR
STARTCHAR 1F37
ENCODING 7991
SWIDTH 257 0
DWIDTH 5 0
BBX 5 16 0 0
BITMAP
C8
30
60
40
00
00
20
20
20
20
20
20
20
20
20
30
ENDCHAR
STARTCHAR 1F38
ENCODING 7992
SWIDTH 308 0
DWIDTH 6 0
BBX 5 13 0 0
BITMAP
C8
48
48
88
08
08
08
08
08
08
08
08
08
ENDCHAR
STARTCHAR 1F39
ENCODING 7993
SWIDTH 308 0
DWIDTH 6 0
BBX 5 13 0 0
BITMAP
C8
88
88
48
08
08
08
08
08
08
08
08
08
ENDCHAR
STARTCHAR 1F3A
ENCODING 7994
SWIDTH 411 0
DWIDTH 8 0
BBX 6 13 0 0
BITMAP
94
54
54
94
04
04
04
04
04
04
04
04
04
ENDCHAR
STARTCHAR 1F3B
ENCODING 7995
SWIDTH 411 0
DWIDTH 8 0
BBX 6 13 0 0
BITMAP
C4
94
94
14
04
04
04
04
04
04
04
04
04
ENDCHAR
STARTCHAR 1F3C
ENCODING 7996
SWIDTH 411 0
DWIDTH 8 0
BBX 6 13 0 0
BITMAP
94
54
64
84
04
04
04
04
04
04
04
04
04
ENDCHAR
STARTCHAR 1F3D
ENCODING 7997
SWIDTH 411 0
DWIDTH 8 0
BBX 6 13 0 0
BITMAP
D4
94
A4
04
04
04
04
04
04
04
04
04
04
ENDCHAR
STARTCHAR 1F3E
ENCODING 7998
SWIDTH 411 0
DWIDTH 8 0
BBX 6 13 0 0
BITMAP
F4
04
64
44
04
04
04
04
04
04
04
04
04
ENDCHAR
STARTCHAR 1F3F
ENCODING 7999
SWIDTH 411 0
DWIDTH 8 0
BBX 6 13 0 0
BITMAP
F4
24
C4
44
04
04
04
04
04
04
04
04
04
ENDCHAR
STARTCHAR 1F40
ENCODING 8000
SWIDTH 514 0
DWIDTH 10 0
BBX 8 15 1 0
BITMAP
18
08
08
00
00
3C
42
81
81
81
81
81
81
42
3C
ENDCHAR
STARTCHAR 1F41
ENCODING 8001
SWIDTH 514 0
DWIDTH 10 0
BBX 8 15 1 0
BITMAP
18
10
10
00
00
3C
42
81
81
81
81
81
81
42
3C
ENDCHAR
STARTCHAR 1F42
ENCODING 8002
SWIDTH 514 0
DWIDTH 10 0
BBX 8 15 1 0
BITMAP
68
18
24
04
00
3C
42
81
81
81
81
81
81
42
3C
ENDCHAR
STARTCHAR 1F43
ENCODING 8003
SWIDTH 514 0
DWIDTH 10 0
BBX 8 15 1 0
BITMAP
28
48
24
04
00
3C
42
81
81
81
81
81
81
42
3C
ENDCHAR
STARTCHAR 1F44
ENCODING 8004
SWIDTH 514 0
DWIDTH 10 0
BBX 8 15 1 0
BITMAP
64
14
28
08
00
3C
42
81
81
81
81
81
81
42
3C
ENDCHAR
STARTCHAR 1F45
ENCODING 8005
SWIDTH 514 0
DWIDTH 10 0
BBX 8 15 1 0
BITMAP
34
48
28
08
00
3C
42
81
81
81
81
81
81
42
3C
ENDCHAR
STARTCHAR 1F48
ENCODING 8008
SWIDTH 720 0
DWIDTH 14 0
BBX 13 13 0 0
BITMAP
C7C0
4820
5010
9010
1008
2008
2008
2008
1008
1010
1010
0820
07C0
ENDCHAR
STARTCHAR 1F49
ENCODING 8009
SWIDTH 720 0
DWIDTH 14 0
BBX 13 13 0 0
BITMAP
C7C0
8820
9010
5010
2008
2008
2008
2008
2008
1010
1010
0820
07C0
ENDCHAR
STARTCHAR 1F4A
ENCODING 8010
SWIDTH 822 0
DWIDTH 16 0
BBX 15 13 0 0
BITMAP
90F0
5308
5404
9402
0402
0802
0802
0802
0402
0402
0404
0208
01F0
ENDCHAR
STARTCHAR 1F4B
ENCODING 8011
SWIDTH 822 0
DWIDTH 16 0
BBX 15 13 0 0
BITMAP
C1F0
9208
9404
1404
0402
0802
0802
0802
0402
0404
0404
0208
01F0
ENDCHAR
STARTCHAR 1F4C
ENCODING 8012
SWIDTH 822 0
DWIDTH 16 0
BBX 15 13 0 0
BITMAP
91F0
5208
6404
8404
0402
0802
0802
0802
0402
0404
0404
0208
01F0
ENDCHAR
STARTCHAR 1F4D
ENCODING 8013
SWIDTH 822 0
DWIDTH 16 0
BBX 15 13 0 0
BITMAP
D1F0
9208
A404
2404
0802
0802
0802
0802
0802
0404
0404
0208
01F0
ENDCHAR
STARTCHAR 1F50
ENCODING 8016
SWIDTH 514 0
DWIDTH 10 0
BBX 7 15 1 0
BITMAP
30
08
10
00
00
82
82
82
82
82
82
82
82
42
3C
ENDCHAR
STARTCHAR 1F51
ENCODING 8017
SWIDTH 514 0
DWIDTH 10 0
BBX 7 15 1 0
BITMAP
18
20
10
00
00
82
82
82
82
82
82
82
82
42
3C
ENDCHAR
STARTCHAR 1F52
ENCODING 8018
SWIDTH 514 0
DWIDTH 10 0
BBX 7 15 1 0
BITMAP
68
28
28
40
00
82
82
82
82
82
82
82
82
42
3C
ENDCHAR
STARTCHAR 1F53
ENCODING 8019
SWIDTH 514 0
DWIDTH 10 0
BBX 7 15 1 0
BITMAP
68
88
48
00
00
82
82
82
82
82
82
82
82
42
3C
ENDCHAR
STARTCHAR 1F54
ENCODING 8020
SWIDTH 514 0
DWIDTH 10 0
BBX 7 15 1 0
BITMAP
68
28
28
40
00
82
82
82
82
82
82
82
82
42
3C
ENDCHAR
STARTCHAR 1F55
ENCODING 8021
SWIDTH 514 0
DWIDTH 10 0
BBX 7 15 1 0
BITMAP
68
48
48
00
00
82
82
82
82
82
82
82
82
42
3C
ENDCHAR
STARTCHAR 1F56
ENCODING 8022
SWIDTH 514 0
DWIDTH 10 0
BBX 7 16 1 0
BITMAP
74
48
00
18
10
00
82
82
82
82
82
82
82
82
42
3C
ENDCHAR
STARTCHAR 1F57
ENCODING 8023
SWIDTH 514 0
DWIDTH 10 0
BBX 7 16 1 0
BITMAP
74
48
00
30
10
00
82
82
82
82
82
82
82
82
42
3C
ENDCHAR
STARTCHAR 1F59
ENCODING 8025
SWIDTH 617 0
DWIDTH 12 0
BBX 11 13 0 0
BITMAP
D020
8820
8840
4440
0480
0480
0300
0100
0100
0100
0100
0100
0100
ENDCHAR
STARTCHAR 1F5B
ENCODING 8027
SWIDTH 668 0
DWIDTH 13 0
BBX 13 13 0 0
BITMAP
C408
9408
9210
1210
0120
0120
00C0
00C0
0080
0080
0080
0080
0080
ENDCHAR
STARTCHAR 1F5D
ENCODING 8029
SWIDTH 668 0
DWIDTH 13 0
BBX 13 13 0 0
BITMAP
D408
9408
A210
0210
0120
0120
00C0
00C0
0080
0080
0080
0080
0080
ENDCHAR
STARTCHAR 1F5F
ENCODING 8031
SWIDTH 668 0
DWIDTH 13 0
BBX 13 13 0 0
BITMAP
F408
2410
C210
4220
0120
0140
00C0
0080
0080
0080
0080
0080
0080
ENDCHAR
STARTCHAR 1F60
ENCODING 8032
SWIDTH 668 0
DWIDTH 13 0
BBX 11 15 1 0
BITMAP
0C00
0200
0400
0000
0000
2080
4040
4040
8020
8420
8420
8420
8420
4C40
3BC0
ENDCHAR
STARTCHAR 1F61
ENCODING 8033
SWIDTH 668 0
DWIDTH 13 0
BBX 11 15 1 0
BITMAP
0600
0800
0400
0000
0000
2080
4040
4040
8020
8420
8420
8420
8420
4C40
3BC0
ENDCHAR
STARTCHAR 1F62
ENCODING 8034
SWIDTH 668 0
DWIDTH 13 0
BBX 11 15 1 0
BITMAP
1A00
0A00
0A00
0000
0000
2080
4040
4040
8020
8420
8420
8420
8420
4C40
3BC0
ENDCHAR
STARTCHAR 1F63
ENCODING 8035
SWIDTH 668 0
DWIDTH 13 0
BBX 11 15 1 0
BITMAP
1A00
1200
1200
0000
0000
2080
4040
4040
8020
8420
8420
8420
8420
4C40
3BC0
ENDCHAR
STARTCHAR 1F64
ENCODING 8036
SWIDTH 668 0
DWIDTH 13 0
BBX 11 15 1 0
BITMAP
1A00
0A00
0A00
0000
0000
2080
4040
4040
8020
8420
8420
8420
8420
4C40
3BC0
ENDCHAR
STARTCHAR 1F65
ENCODING 8037
SWIDTH 668 0
DWIDTH 13 0
BBX 11 15 1 0
BITMAP
1A00
1200
1200
0000
0000
2080
4040
4040
8020
8420
8420
8420
8420
4C40
3BC0
ENDCHAR
STARTCHAR 1F66
ENCODING 8038
SWIDTH 668 0
DWIDTH 13 0
BBX 11 16 1 0
BITMAP
1D00
1200
0000
0600
0400
0000
2080
4040
4040
8020
8420
8420
8420
8420
4C40
3BC0
ENDCHAR
STARTCHAR 1F67
ENCODING 8039
SWIDTH 668 0
DWIDTH 13 0
BBX 11 16 1 0
BITMAP
1D00
1200
0000
0C00
0400
0000
2080
4040
4040
8020
8420
8420
8420
8420
4C40
3BC0
ENDCHAR
STARTCHAR 1F68
ENCODING 8040
SWIDTH 720 0
DWIDTH 14 0
BBX 13 13 0 0
BITMAP
C3C0
4C20
5010
9008
1008
2008
2008
2008
1008
1010
0810
0820
3C78
ENDCHAR
STARTCHAR 1F69
ENCODING 8041
SWIDTH 720 0
DWIDTH 14 0
BBX 13 13 0 0
BITMAP
C7C0
8820
9010
5010
2008
2008
2008
2008
2008
1010
1010
0820
3C78
ENDCHAR
STARTCHAR 1F6A
ENCODING 8042
SWIDTH 822 0
DWIDTH 16 0
BBX 15 13 0 0
BITMAP
90F0
5308
5604
9402
0402
0802
0802
0402
0402
0404
0204
0208
0F1E
ENDCHAR
STARTCHAR 1F6B
ENCODING 8043
SWIDTH 822 0
DWIDTH 16 0
BBX 15 13 0 0
BITMAP
C1F0
9208
9404
1404
0402
0802
0802
0802
0402
0404
0204
0208
0F1E
ENDCHAR
STARTCHAR 1F6C
ENCODING 8044
SWIDTH 822 0
DWIDTH 16 0
BBX 15 13 0 0
BITMAP
90F0
5308
6404
8402
0402
0802
0802
0402
0402
0404
0204
0208
0F1E
ENDCHAR
STARTCHAR 1F6D
ENCODING 8045
SWIDTH 822 0
DWIDTH 16 0
BBX 15 13 0 0
BITMAP
D1F0
9208
A404
2404
0402
0802
0802
0802
0402
0404
0404
0208
0F1E
ENDCHAR
STARTCHAR 1F6E
ENCODING 8046
SWIDTH 771 0
DWIDTH 15 0
BBX 14 13 0 0
BITMAP
F1E0
0618
6C08
4804
0804
0804
0804
0804
0804
0808
0408
0610
1E3C
ENDCHAR
STARTCHAR 1F6F
ENCODING 8047
SWIDTH 771 0
DWIDTH 15 0
BBX 14 13 0 0
BITMAP
F1E0
2618
CC08
4804
0804
0804
0804
0804
0804
0808
0408
0610
1E3C
ENDCHAR
STARTCHAR 1F70
ENCODING 8048
SWIDTH 565 0
DWIDTH 11 0
BBX 9 14 1 1
BITMAP
1000
0800
0000
0000
3D00
4300
4300
8100
8100
8100
8200
8200
4600
3980
ENDCHAR
STARTCHAR 1F71
ENCODING 8049
SWIDTH 565 0
DWIDTH 11 0
BBX 9 14 1 1
BITMAP
0400
0800
0000
0000
3D00
4300
4300
8100
8100
8100
8200
8200
4600
3980
ENDCHAR
STARTCHAR 1F72
ENCODING 8050
SWIDTH 411 0
DWIDTH 8 0
BBX 7 14 1 1
BITMAP
20
10
00
00
3C
40
80
40
38
40
80
80
82
7C
ENDCHAR
STARTCHAR 1F73
ENCODING 8051
SWIDTH 411 0
DWIDTH 8 0
BBX 7 14 1 1
BITMAP
08
10
00
00
3C
40
80
40
38
40
80
80
82
7C
ENDCHAR
STARTCHAR 1F74
ENCODING 8052
SWIDTH 514 0
DWIDTH 10 0
BBX 7 17 2 -2
BITMAP
20
10
00
00
BC
C4
82
82
82
82
82
82
82
82
02
02
02
ENDCHAR
STARTCHAR 1F75
ENCODING 8053
SWIDTH 514 0
DWIDTH 10 0
BBX 7 17 2 -2
BITMAP
08
10
00
00
BC
C4
82
82
82
82
82
82
82
82
02
02
02
ENDCHAR
STARTCHAR 1F76
ENCODING 8054
SWIDTH 257 0
DWIDTH 5 0
BBX 4 14 0 1
BITMAP
C0
20
00
00
20
20
20
20
20
20
20
20
20
30
ENDCHAR
STARTCHAR 1F77
ENCODING 8055
SWIDTH 257 0
DWIDTH 5 0
BBX 2 14 2 1
BITMAP
40
80
00
00
80
80
80
80
80
80
80
80
80
C0
ENDCHAR
STARTCHAR 1F78
ENCODING 8056
SWIDTH 514 0
DWIDTH 10 0
BBX 8 15 1 0
BITMAP
20
30
10
00
00
3C
42
81
81
81
81
81
81
42
3C
ENDCHAR
STARTCHAR 1F79
ENCODING 8057
SWIDTH 514 0
DWIDTH 10 0
BBX 8 14 1 1
BITMAP
04
08
10
00
3C
42
81
81
81
81
81
81
42
3C
ENDCHAR
STARTCHAR 1F7A
ENCODING 8058
SWIDTH 514 0
DWIDTH 10 0
BBX 7 14 1 1
BITMAP
20
10
00
00
82
82
82
82
82
82
82
82
42
3C
ENDCHAR
STARTCHAR 1F7B
ENCODING 8059
SWIDTH 514 0
DWIDTH 10 0
BBX 7 14 1 1
BITMAP
08
10
00
00
82
82
82
82
82
82
82
82
42
3C
ENDCHAR
STARTCHAR 1F7C
ENCODING 8060
SWIDTH 668 0
DWIDTH 13 0
BBX 11 14 1 1
BITMAP
0800
0400
0000
0000
2080
4040
4040
8020
8420
8420
8420
8420
4C40
3BC0
ENDCHAR
STARTCHAR 1F7D
ENCODING 8061
SWIDTH 668 0
DWIDTH 13 0
BBX 11 14 1 1
BITMAP
0200
0400
0000
0000
2080
4040
4040
8020
8420
8420
8420
8420
4C40
3BC0
ENDCHAR
STARTCHAR 1F80
ENCODING 8064
SWIDTH 565 0
DWIDTH 11 0
BBX 9 19 1 -4
BITMAP
1800
0400
0800
0000
0000
3D00
4300
4300
8100
8100
8100
8200
8200
4600
3980
0000
0800
0800
0C00
ENDCHAR
STARTCHAR 1F81
ENCODING 8065
SWIDTH 565 0
DWIDTH 11 0
BBX 9 19 1 -4
BITMAP
0800
1000
1000
0000
0000
3D00
4300
4300
8100
8100
8100
8200
8200
4600
3980
0000
0800
0800
0C00
ENDCHAR
STARTCHAR 1F82
ENCODING 8066
SWIDTH 565 0
DWIDTH 11 0
BBX 9 19 1 -4
BITMAP
3400
1400
1400
2000
0000
3D00
4300
4300
8100
8100
8100
8200
8200
4600
3980
0000
0800
0800
0C00
ENDCHAR
STARTCHAR 1F83
ENCODING 8067
SWIDTH 565 0
DWIDTH 11 0
BBX 9 19 1 -4
BITMAP
3800
4400
2400
0400
0000
3D00
4300
4300
8100
8100
8100
8200
8200
4600
3980
0000
0800
0800
0C00
ENDCHAR
STARTCHAR 1F84
ENCODING 8068
SWIDTH 565 0
DWIDTH 11 0
BBX 9 19 1 -4
BITMAP
3400
1400
1400
2000
0000
3D00
4300
4300
8100
8100
8100
8200
8200
4600
3980
0000
0800
0800
0C00
ENDCHAR
STARTCHAR 1F85
ENCODING 8069
SWIDTH 565 0
DWIDTH 11 0
BBX 9 19 1 -4
BITMAP
3400
2400
2800
0000
0000
3D00
4300
4300
8100
8100
8100
8200
8200
4600
3980
0000
0800
0800
0C00
ENDCHAR
STARTCHAR 1F86
ENCODING 8070
SWIDTH 565 0
DWIDTH 11 0
BBX 9 20 1 -4
BITMAP
3A00
0400
1000
0800
0800
0000
3D00
4300
4300
8100
8100
8100
8200
8200
4600
3980
0000
0800
0800
0C00
ENDCHAR
STARTCHAR 1F87
ENCODING 8071
SWIDTH 565 0
DWIDTH 11 0
BBX 9 20 1 -4
BITMAP
3A00
0400
0000
1800
0800
0000
3D00
4300
4300
8100
8100
8100
8200
8200
4600
3980
0000
0800
0800
0C00
ENDCHAR
STARTCHAR 1F88
ENCODING 8072
SWIDTH 771 0
DWIDTH 15 0
BBX 14 13 0 0
BITMAP
C400
4C00
4A00
9200
1200
1108
1108
2108
3F88
4088
4088
4048
804C
ENDCHAR
STARTCHAR 1F89
ENCODING 8073
SWIDTH 771 0
DWIDTH 15 0
BBX 14 13 0 0
BITMAP
C400
8C00
8A00
5200
1200
1108
2108
2108
3F88
4088
4088
4048
804C
ENDCHAR
STARTCHAR 1F8A
ENCODING 8074
SWIDTH 874 0
DWIDTH 17 0
BBX 16 13 0 0
BITMAP
9100
5300
5280
9280
0440
0442
0442
0822
0FE2
0822
1012
1012
1011
ENDCHAR
STARTCHAR 1F8B
ENCODING 8075
SWIDTH 874 0
DWIDTH 17 0
BBX 16 13 0 0
BITMAP
C100
9300
9280
1280
0480
0442
0442
0842
0FE2
0822
1022
1012
1011
ENDCHAR
STARTCHAR 1F8C
ENCODING 8076
SWIDTH 874 0
DWIDTH 17 0
BBX 16 13 0 0
BITMAP
9100
5300
6280
8280
0480
0442
0442
0822
0FE2
0822
1012
1012
1011
ENDCHAR
STARTCHAR 1F8D
ENCODING 8077
SWIDTH 874 0
DWIDTH 17 0
BBX 16 13 0 0
BITMAP
D100
9300
A280
2280
0480
0442
0442
0842
0FE2
0822
1022
1012
2011
ENDCHAR
STARTCHAR 1F8E
ENCODING 8078
SWIDTH 822 0
DWIDTH 16 0
BBX 15 13 0 0
BITMAP
F600
0600
6600
4900
0900
0904
1084
1084
1F84
2044
2044
2044
4026
ENDCHAR
STARTCHAR 1F8F
ENCODING 8079
SWIDTH 822 0
DWIDTH 16 0
BBX 15 13 0 0
BITMAP
F600
2600
C600
4900
0900
0904
1084
1084
1F84
2044
2044
2044
4026
ENDCHAR
STARTCHAR 1F90
ENCODING 8080
SWIDTH 514 0
DWIDTH 10 0
BBX 7 19 2 -4
BITMAP
30
08
10
00
00
BC
C4
82
82
82
82
82
82
82
82
02
02
82
C0
ENDCHAR
STARTCHAR 1F91
ENCODING 8081
SWIDTH 514 0
DWIDTH 10 0
BBX 7 19 2 -4
BITMAP
18
20
20
00
00
BC
C4
82
82
82
82
82
82
82
82
02
02
82
C0
ENDCHAR
STARTCHAR 1F92
ENCODING 8082
SWIDTH 514 0
DWIDTH 10 0
BBX 7 19 2 -4
BITMAP
68
28
28
40
00
BC
C4
82
82
82
82
82
82
82
82
02
02
82
C0
ENDCHAR
STARTCHAR 1F93
ENCODING 8083
SWIDTH 514 0
DWIDTH 10 0
BBX 7 19 2 -4
BITMAP
70
88
48
08
00
BC
C4
82
82
82
82
82
82
82
82
02
02
82
C0
ENDCHAR
STARTCHAR 1F94
ENCODING 8084
SWIDTH 514 0
DWIDTH 10 0
BBX 7 19 2 -4
BITMAP
68
28
28
40
00
BC
C4
82
82
82
82
82
82
82
82
02
02
82
C0
ENDCHAR
STARTCHAR 1F95
ENCODING 8085
SWIDTH 514 0
DWIDTH 10 0
BBX 7 19 2 -4
BITMAP
68
48
48
00
00
BC
C4
82
82
82
82
82
82
82
82
02
02
82
C0
ENDCHAR
STARTCHAR 1F96
ENCODING 8086
SWIDTH 514 0
DWIDTH 10 0
BBX 7 20 2 -4
BITMAP
74
48
00
18
10
00
BC
C4
82
82
82
82
82
82
82
82
02
02
82
C0
ENDCHAR
STARTCHAR 1F97
ENCODING 8087
SWIDTH 514 0
DWIDTH 10 0
BBX 7 20 2 -4
BITMAP
74
48
00
30
10
00
BC
C4
82
82
82
82
82
82
82
82
02
02
82
C0
ENDCHAR
STARTCHAR 1F98
ENCODING 8088
SWIDTH 977 0
DWIDTH 19 0
BBX 18 13 0 0
BITMAP
C81000
481000
481000
881000
081000
081080
0FF080
081080
081080
081080
081080
081080
0810C0
ENDCHAR
STARTCHAR 1F99
ENCODING 8089
SWIDTH 977 0
DWIDTH 19 0
BBX 18 13 0 0
BITMAP
C81000
881000
881000
481000
081000
081080
0FF080
081080
081080
081080
081080
081080
0810C0
ENDCHAR
STARTCHAR 1F9A
ENCODING 8090
SWIDTH 1080 0
DWIDTH 21 0
BBX 20 13 0 0
BITMAP
940400
540400
940400
040400
040400
07FC20
040420
040420
040420
040420
040420
040420
040430
ENDCHAR
STARTCHAR 1F9B
ENCODING 8091
SWIDTH 1080 0
DWIDTH 21 0
BBX 20 13 0 0
BITMAP
C40400
940400
940400
040400
040400
07FC20
040420
040420
040420
040420
040420
040420
040430
ENDCHAR
STARTCHAR 1F9C
ENCODING 8092
SWIDTH 1080 0
DWIDTH 21 0
BBX 20 13 0 0
BITMAP
940400
540400
A40400
040400
040400
07FC20
040420
040420
040420
040420
040420
040420
040430
ENDCHAR
STARTCHAR 1F9D
ENCODING 8093
SWIDTH 1080 0
DWIDTH 21 0
BBX 20 13 0 0
BITMAP
D40400
940400
A40400
040400
040400
07FC20
040420
040440
040440
040440
040440
040440
040430
ENDCHAR
STARTCHAR 1F9E
ENCODING 8094
SWIDTH 1028 0
DWIDTH 20 0
BBX 19 13 0 0
BITMAP
F40400
040400
640400
440400
040400
07FC40
040440
040440
040440
040440
040440
040440
040420
ENDCHAR
STARTCHAR 1F9F
ENCODING 8095
SWIDTH 1028 0
DWIDTH 20 0
BBX 19 13 0 0
BITMAP
F40400
240400
C40400
440400
040400
07FC40
040440
040440
040440
040440
040440
040440
040420
ENDCHAR
STARTCHAR 1FA0
ENCODING 8096
SWIDTH 668 0
DWIDTH 13 0
BBX 11 19 1 -4
BITMAP
0C00
0200
0400
0000
0000
2080
4040
4040
8020
8420
8420
8420
8420
4C40
3BC0
0000
0400
0400
0600
ENDCHAR
STARTCHAR 1FA1
ENCODING 8097
SWIDTH 668 0
DWIDTH 13 0
BBX 11 19 1 -4
BITMAP
0600
0800
0400
0000
0000
2080
4040
4040
8020
8420
8420
8420
8420
4C40
3BC0
0000
0400
0400
0600
ENDCHAR
STARTCHAR 1FA2
ENCODING 8098
SWIDTH 668 0
DWIDTH 13 0
BBX 11 19 1 -4
BITMAP
1A00
0A00
0A00
0000
0000
2080
4040
4040
8020
8420
8420
8420
8420
4C40
3BC0
0000
0400
0400
0600
ENDCHAR
STARTCHAR 1FA3
ENCODING 8099
SWIDTH 668 0
DWIDTH 13 0
BBX 11 19 1 -4
BITMAP
1A00
1200
1200
0000
0000
2080
4040
4040
8020
8420
8420
8420
8420
4C40
3BC0
0000
0400
0400
0600
ENDCHAR
STARTCHAR 1FA4
ENCODING 8100
SWIDTH 668 0
DWIDTH 13 0
BBX 11 19 1 -4
BITMAP
1A00
0A00
0A00
0000
0000
2080
4040
4040
8020
8420
8420
8420
8420
4C40
3BC0
0000
0400
0400
0600
ENDCHAR
STARTCHAR 1FA5
ENCODING 8101
SWIDTH 668 0
DWIDTH 13 0
BBX 11 19 1 -4
BITMAP
1A00
1200
1200
0000
0000
2080
4040
4040
8020
8420
8420
8420
8420
4C40
3BC0
0000
0400
0400
0600
ENDCHAR
STARTCHAR 1FA6
ENCODING 8102
SWIDTH 668 0
DWIDTH 13 0
BBX 11 20 1 -4
BITMAP
1D00
1200
0000
0600
0400
0000
2080
4040
4040
8020
8420
8420
8420
8420
4C40
3BC0
0000
0400
0400
0600
ENDCHAR
STARTCHAR 1FA7
ENCODING 8103
SWIDTH 668 0
DWIDTH 13 0
BBX 11 20 1 -4
BITMAP
1D00
1200
0000
0C00
0400
0000
2080
4040
4040
8020
8420
8420
8420
8420
4C40
3BC0
0000
0400
0400
0600
ENDCHAR
STARTCHAR 1FA8
ENCODING 8104
SWIDTH 977 0
DWIDTH 19 0
BBX 18 13 0 0
BITMAP
C3C000
4C2000
501000
900800
100800
200880
200880
200880
100880
101080
081080
082080
3C78C0
ENDCHAR
STARTCHAR 1FA9
ENCODING 8105
SWIDTH 977 0
DWIDTH 19 0
BBX 18 13 0 0
BITMAP
C7C000
882000
901000
501000
200800
200880
200880
200900
200900
101100
101100
082100
3C78C0
ENDCHAR
STARTCHAR 1FAA
ENCODING 8106
SWIDTH 1080 0
DWIDTH 21 0
BBX 20 13 0 0
BITMAP
90F000
530800
560400
940200
040200
080220
080220
040220
040220
040420
020420
020820
0F1E30
ENDCHAR
STARTCHAR 1FAB
ENCODING 8107
SWIDTH 1080 0
DWIDTH 21 0
BBX 20 13 0 0
BITMAP
C1F000
920800
940400
140400
040200
080220
080220
080220
040220
040420
020420
020820
0F1E30
ENDCHAR
STARTCHAR 1FAC
ENCODING 8108
SWIDTH 1080 0
DWIDTH 21 0
BBX 20 13 0 0
BITMAP
90F000
530800
640400
840200
040200
080220
080220
040220
040220
040420
020420
020820
0F1E30
ENDCHAR
STARTCHAR 1FAD
ENCODING 8109
SWIDTH 1080 0
DWIDTH 21 0
BBX 20 13 0 0
BITMAP
D1F000
920800
A40400
240400
040200
080220
080220
080220
040220
040420
040420
020820
0F1E30
ENDCHAR
STARTCHAR 1FAE
ENCODING 8110
SWIDTH 1028 0
DWIDTH 20 0
BBX 19 13 0 0
BITMAP
F1E000
061800
6C0800
480400
080400
080440
080440
080440
080440
080840
040840
061040
1E3C60
ENDCHAR
STARTCHAR 1FAF
ENCODING 8111
SWIDTH 1028 0
DWIDTH 20 0
BBX 19 13 0 0
BITMAP
F1E000
261800
CC0800
480400
080400
080440
080440
080440
080440
080840
040840
061040
1E3C60
ENDCHAR
STARTCHAR 1FB0
ENCODING 8112
SWIDTH 565 0
DWIDTH 11 0
BBX 9 14 1 0
BITMAP
4200
2200
1C00
0000
3D00
4300
4300
8100
8100
8100
8200
8200
4600
3980
ENDCHAR
STARTCHAR 1FB1
ENCODING 8113
SWIDTH 565 0
DWIDTH 11 0
BBX 9 13 1 0
BITMAP
3E00
0000
0000
3D00
4300
4300
8100
8100
8100
8200
8200
4600
3980
ENDCHAR
STARTCHAR 1FB2
ENCODING 8114
SWIDTH 565 0
DWIDTH 11 0
BBX 9 18 1 -3
BITMAP
1000
0800
0000
0000
3D00
4300
4300
8100
8100
8100
8200
8200
4600
3980
0000
0800
0800
0C00
ENDCHAR
STARTCHAR 1FB3
ENCODING 8115
SWIDTH 565 0
DWIDTH 11 0
BBX 9 14 1 -4
BITMAP
3D00
4300
4300
8100
8100
8100
8200
8200
4600
3980
0000
0800
0800
0C00
ENDCHAR
STARTCHAR 1FB4
ENCODING 8116
SWIDTH 565 0
DWIDTH 11 0
BBX 9 18 1 -3
BITMAP
0400
0800
0000
0000
3D00
4300
4300
8100
8100
8100
8200
8200
4600
3980
0000
0800
0800
0C00
ENDCHAR
STARTCHAR 1FB6
ENCODING 8118
SWIDTH 565 0
DWIDTH 11 0
BBX 9 14 1 0
BITMAP
3100
4E00
0000
0000
3D00
4300
4300
8100
8100
8100
8200
8200
4600
3980
ENDCHAR
STARTCHAR 1FB7
ENCODING 8119
SWIDTH 565 0
DWIDTH 11 0
BBX 9 18 1 -4
BITMAP
3100
4E00
0000
0000
3D00
4300
4300
8100
8100
8100
8200
8200
4600
3980
0000
0800
0800
0C00
ENDCHAR
STARTCHAR 1FB8
ENCODING 8120
SWIDTH 514 0
DWIDTH 10 0
BBX 10 16 0 1
BITMAP
2100
1E00
0000
0C00
0C00
0C00
1200
1200
1200
2100
2100
3F00
4080
4080
4040
8040
ENDCHAR
STARTCHAR 1FB9
ENCODING 8121
SWIDTH 514 0
DWIDTH 10 0
BBX 10 15 0 0
BITMAP
1F00
0000
0C00
0C00
0C00
1200
1200
1200
2100
2100
3F00
4080
4080
4040
8040
ENDCHAR
STARTCHAR 1FBA
ENCODING 8122
SWIDTH 514 0
DWIDTH 10 0
BBX 10 13 0 0
BITMAP
8400
8C00
4A00
5200
1200
1100
2100
2100
3F80
4080
4080
4040
8040
ENDCHAR
STARTCHAR 1FBB
ENCODING 8123
SWIDTH 514 0
DWIDTH 10 0
BBX 10 13 0 0
BITMAP
4400
8C00
8A00
9200
1200
1100
2100
2100
3F80
4080
4080
4040
8040
ENDCHAR
STARTCHAR 1FBC
ENCODING 8124
SWIDTH 771 0
DWIDTH 15 0
BBX 14 13 0 0
BITMAP
0C00
0C00
0C00
1200
1200
1208
2108
2108
3F08
4088
4088
4048
804C
ENDCHAR
STARTCHAR 1FBD
ENCODING 8125
SWIDTH 514 0
DWIDTH 10 0
BBX 2 3 4 11
BITMAP
80
40
40
ENDCHAR
STARTCHAR 1FBE
ENCODING 8126
SWIDTH 257 0
DWIDTH 5 0
BBX 2 8 2 0
BITMAP
80
80
80
80
80
80
80
C0
ENDCHAR
STARTCHAR 1FBF
ENCODING 8127
SWIDTH 514 0
DWIDTH 10 0
BBX 2 3 4 11
BITMAP
80
40
40
ENDCHAR
STARTCHAR 1FC0
ENCODING 8128
SWIDTH 514 0
DWIDTH 10 0
BBX 6 3 2 11
BITMAP
40
B4
88
ENDCHAR
STARTCHAR 1FC1
ENCODING 8129
SWIDTH 514 0
DWIDTH 10 0
BBX 6 3 2 12
BITMAP
64
98
4C
ENDCHAR
STARTCHAR 1FC2
ENCODING 8130
SWIDTH 514 0
DWIDTH 10 0
BBX 7 18 2 -3
BITMAP
20
10
00
00
BC
C4
82
82
82
82
82
82
82
82
02
02
82
C0
ENDCHAR
STARTCHAR 1FC3
ENCODING 8131
SWIDTH 514 0
DWIDTH 10 0
BBX 7 14 2 -4
BITMAP
BC
C4
82
82
82
82
82
82
82
82
02
02
82
C0
ENDCHAR
STARTCHAR 1FC4
ENCODING 8132
SWIDTH 514 0
DWIDTH 10 0
BBX 7 18 2 -3
BITMAP
08
10
00
00
BC
C4
82
82
82
82
82
82
82
82
02
02
82
C0
ENDCHAR
STARTCHAR 1FC6
ENCODING 8134
SWIDTH 514 0
DWIDTH 10 0
BBX 7 17 2 -3
BITMAP
62
9C
00
00
BC
C4
82
82
82
82
82
82
82
82
02
02
02
ENDCHAR
STARTCHAR 1FC7
ENCODING 8135
SWIDTH 514 0
DWIDTH 10 0
BBX 7 18 2 -4
BITMAP
62
9C
00
00
BC
C4
82
82
82
82
82
82
82
82
02
02
82
C0
ENDCHAR
STARTCHAR 1FC8
ENCODING 8136
SWIDTH 565 0
DWIDTH 11 0
BBX 10 13 0 0
BITMAP
BFC0
A000
A000
A000
2000
2000
3F80
2000
2000
2000
2000
2000
3FC0
ENDCHAR
STARTCHAR 1FC9
ENCODING 8137
SWIDTH 565 0
DWIDTH 11 0
BBX 10 13 0 0
BITMAP
BFC0
A000
A000
2000
2000
2000
3F80
2000
2000
2000
2000
2000
3FC0
ENDCHAR
STARTCHAR 1FCA
ENCODING 8138
SWIDTH 668 0
DWIDTH 13 0
BBX 11 13 0 0
BITMAP
A020
A020
A020
A020
2020
2020
3FE0
2020
2020
2020
2020
2020
2020
ENDCHAR
STARTCHAR 1FCB
ENCODING 8139
SWIDTH 668 0
DWIDTH 13 0
BBX 11 13 0 0
BITMAP
A020
A020
A020
2020
2020
2020
3FE0
2020
2020
2020
2020
2020
2020
ENDCHAR
STARTCHAR 1FCC
ENCODING 8140
SWIDTH 874 0
DWIDTH 17 0
BBX 14 13 2 0
BITMAP
8080
8080
8080
8080
8080
FF88
8088
8088
8088
8088
8088
8088
808C
ENDCHAR
STARTCHAR 1FCD
ENCODING 8141
SWIDTH 514 0
DWIDTH 10 0
BBX 4 4 3 11
BITMAP
A0
50
50
90
ENDCHAR
STARTCHAR 1FCE
ENCODING 8142
SWIDTH 514 0
DWIDTH 10 0
BBX 4 4 3 11
BITMAP
90
50
50
A0
ENDCHAR
STARTCHAR 1FCF
ENCODING 8143
SWIDTH 514 0
DWIDTH 10 0
BBX 5 5 3 11
BITMAP
80
E8
10
60
20
ENDCHAR
STARTCHAR 1FD0
ENCODING 8144
SWIDTH 257 0
DWIDTH 5 0
BBX 6 14 -1 0
BITMAP
84
44
38
00
10
10
10
10
10
10
10
10
10
18
ENDCHAR
STARTCHAR 1FD1
ENCODING 8145
SWIDTH 257 0
DWIDTH 5 0
BBX 5 13 0 0
BITMAP
F8
00
00
20
20
20
20
20
20
20
20
20
30
ENDCHAR
STARTCHAR 1FD2
ENCODING 8146
SWIDTH 257 0
DWIDTH 5 0
BBX 5 15 0 0
BITMAP
40
40
A8
20
00
20
20
20
20
20
20
20
20
20
30
ENDCHAR
STARTCHAR 1FD3
ENCODING 8147
SWIDTH 257 0
DWIDTH 5 0
BBX 5 15 0 0
BITMAP
20
20
A8
00
00
20
20
20
20
20
20
20
20
20
30
ENDCHAR
STARTCHAR 1FD6
ENCODING 8150
SWIDTH 257 0
DWIDTH 5 0
BBX 6 15 -1 0
BITMAP
40
B4
8C
00
00
10
10
10
10
10
10
10
10
10
18
ENDCHAR
STARTCHAR 1FD7
ENCODING 8151
SWIDTH 257 0
DWIDTH 5 0
BBX 5 15 0 0
BITMAP
C8
30
98
00
00
20
20
20
20
20
20
20
20
20
30
ENDCHAR
STARTCHAR 1FD8
ENCODING 8152
SWIDTH 257 0
DWIDTH 5 0
BBX 5 16 0 1
BITMAP
88
70
00
20
20
20
20
20
20
20
20
20
20
20
20
20
ENDCHAR
STARTCHAR 1FD9
ENCODING 8153
SWIDTH 257 0
DWIDTH 5 0
BBX 5 15 0 0
BITMAP
F8
00
20
20
20
20
20
20
20
20
20
20
20
20
20
ENDCHAR
STARTCHAR 1FDA
ENCODING 8154
SWIDTH 257 0
DWIDTH 5 0
BBX 3 13 0 0
BITMAP
A0
A0
A0
A0
20
20
20
20
20
20
20
20
20
ENDCHAR
STARTCHAR 1FDB
ENCODING 8155
SWIDTH 257 0
DWIDTH 5 0
BBX 3 13 0 0
BITMAP
A0
A0
A0
20
20
20
20
20
20
20
20
20
20
ENDCHAR
STARTCHAR 1FDD
ENCODING 8157
SWIDTH 514 0
DWIDTH 10 0
BBX 5 4 2 11
BITMAP
30
D0
88
48
ENDCHAR
STARTCHAR 1FDE
ENCODING 8158
SWIDTH 514 0
DWIDTH 10 0
BBX 4 4 3 11
BITMAP
50
90
A0
20
ENDCHAR
STARTCHAR 1FDF
ENCODING 8159
SWIDTH 514 0
DWIDTH 10 0
BBX 5 5 3 11
BITMAP
C0
A8
10
60
40
ENDCHAR
STARTCHAR 1FE0
ENCODING 8160
SWIDTH 514 0
DWIDTH 10 0
BBX 7 14 1 0
BITMAP
84
44
38
00
82
82
82
82
82
82
82
82
42
3C
ENDCHAR
STARTCHAR 1FE1
ENCODING 8161
SWIDTH 514 0
DWIDTH 10 0
BBX 7 13 1 0
BITMAP
7C
00
00
82
82
82
82
82
82
82
82
42
3C
ENDCHAR
STARTCHAR 1FE2
ENCODING 8162
SWIDTH 514 0
DWIDTH 10 0
BBX 7 15 1 0
BITMAP
20
10
54
10
00
82
82
82
82
82
82
82
82
42
3C
ENDCHAR
STARTCHAR 1FE3
ENCODING 8163
SWIDTH 514 0
DWIDTH 10 0
BBX 7 15 1 0
BITMAP
08
10
54
10
00
82
82
82
82
82
82
82
82
42
3C
ENDCHAR
STARTCHAR 1FE4
ENCODING 8164
SWIDTH 514 0
DWIDTH 10 0
BBX 7 18 2 -3
BITMAP
10
08
18
00
00
3C
42
82
82
82
82
82
82
84
F8
80
80
80
ENDCHAR
STARTCHAR 1FE5
ENCODING 8165
SWIDTH 514 0
DWIDTH 10 0
BBX 7 18 2 -3
BITMAP
18
20
10
00
00
3C
42
82
82
82
82
82
82
84
F8
80
80
80
ENDCHAR
STARTCHAR 1FE6
ENCODING 8166
SWIDTH 514 0
DWIDTH 10 0
BBX 7 14 1 0
BITMAP
62
9C
00
00
82
82
82
82
82
82
82
82
42
3C
ENDCHAR
STARTCHAR 1FE7
ENCODING 8167
SWIDTH 514 0
DWIDTH 10 0
BBX 7 15 1 0
BITMAP
70
0C
44
00
00
82
82
82
82
82
82
82
82
42
3C
ENDCHAR
STARTCHAR 1FE8
ENCODING 8168
SWIDTH 462 0
DWIDTH 9 0
BBX 8 16 0 1
BITMAP
22
1C
00
81
41
42
22
24
14
18
08
08
08
08
08
08
ENDCHAR
STARTCHAR 1FE9
ENCODING 8169
SWIDTH 462 0
DWIDTH 9 0
BBX 8 15 0 0
BITMAP
3E
00
81
41
42
22
24
14
18
08
08
08
08
08
08
ENDCHAR
STARTCHAR 1FEA
ENCODING 8170
SWIDTH 514 0
DWIDTH 10 0
BBX 10 13 0 0
BITMAP
A040
9040
9080
9080
0900
0900
0600
0200
0200
0200
0200
0200
0200
ENDCHAR
STARTCHAR 1FEB
ENCODING 8171
SWIDTH 514 0
DWIDTH 10 0
BBX 10 13 0 0
BITMAP
A040
9040
9080
1080
0900
0900
0600
0200
0200
0200
0200
0200
0200
ENDCHAR
STARTCHAR 1FEC
ENCODING 8172
SWIDTH 617 0
DWIDTH 12 0
BBX 12 13 0 0
BITMAP
CFC0
8820
8820
4810
0810
0820
0860
0F80
0800
0800
0800
0800
0800
ENDCHAR
STARTCHAR 1FED
ENCODING 8173
SWIDTH 514 0
DWIDTH 10 0
BBX 5 4 3 11
BITMAP
40
40
C8
20
ENDCHAR
STARTCHAR 1FEE
ENCODING 8174
SWIDTH 514 0
DWIDTH 10 0
BBX 5 4 3 11
BITMAP
20
20
A8
40
ENDCHAR
STARTCHAR 1FEF
ENCODING 8175
SWIDTH 514 0
DWIDTH 10 0
BBX 2 4 4 11
BITMAP
80
80
80
40
ENDCHAR
STARTCHAR 1FF2
ENCODING 8178
SWIDTH 668 0
DWIDTH 13 0
BBX 11 18 1 -3
BITMAP
0800
0400
0000
0000
2080
4040
4040
8020
8420
8420
8420
8420
4C40
3BC0
0000
0400
0400
0600
ENDCHAR
STARTCHAR 1FF3
ENCODING 8179
SWIDTH 668 0
DWIDTH 13 0
BBX 11 14 1 -4
BITMAP
2080
4040
4040
8020
8420
8420
8420
8420
4C40
3BC0
0000
0400
0400
0600
ENDCHAR
STARTCHAR 1FF4
ENCODING 8180
SWIDTH 668 0
DWIDTH 13 0
BBX 11 18 1 -3
BITMAP
0200
0400
0000
0000
2080
4040
4040
8020
8420
8420
8420
8420
4C40
3BC0
0000
0400
0400
0600
ENDCHAR
STARTCHAR 1FF6
ENCODING 8182
SWIDTH 668 0
DWIDTH 13 0
BBX 11 14 1 0
BITMAP
1880
2700
0000
0000
2080
4040
4040
8020
8420
8420
8420
8420
4C40
3BC0
ENDCHAR
STARTCHAR 1FF7
ENCODING 8183
SWIDTH 668 0
DWIDTH 13 0
BBX 11 18 1 -4
BITMAP
1880
2700
0000
0000
2080
4040
4040
8020
8420
8420
8420
8420
4C40
3BC0
0000
0400
0400
0600
ENDCHAR
STARTCHAR 1FF8
ENCODING 8184
SWIDTH 668 0
DWIDTH 13 0
BBX 12 13 0 0
BITMAP
8780
9840
A020
A010
2010
4010
4010
4010
2010
2010
3020
1840
0780
ENDCHAR
STARTCHAR 1FF9
ENCODING 8185
SWIDTH 668 0
DWIDTH 13 0
BBX 12 13 0 0
BITMAP
8780
9840
A020
2010
2010
4010
4010
4010
2010
2020
2020
1040
0F80
ENDCHAR
STARTCHAR 1FFA
ENCODING 8186
SWIDTH 668 0
DWIDTH 13 0
BBX 12 13 0 0
BITMAP
8780
9840
B020
A010
2010
2010
4010
2010
2010
2020
1020
1040
78F0
ENDCHAR
STARTCHAR 1FFB
ENCODING 8187
SWIDTH 668 0
DWIDTH 13 0
BBX 12 13 0 0
BITMAP
8780
9840
B020
2010
2010
4010
4010
2010
2010
2020
1020
1040
78F0
ENDCHAR
STARTCHAR 1FFC
ENCODING 8188
SWIDTH 874 0
DWIDTH 17 0
BBX 16 13 1 0
BITMAP
1F00
2080
4040
4040
8040
8020
8024
8024
8044
4044
4044
2084
F1E3
ENDCHAR
STARTCHAR 1FFD
ENCODING 8189
SWIDTH 514 0
DWIDTH 10 0
BBX 2 4 5 11
BITMAP
40
80
80
80
ENDCHAR
STARTCHAR 1FFE
ENCODING 8190
SWIDTH 514 0
DWIDTH 10 0
BBX 2 3 4 11
BITMAP
40
80
80
ENDCHAR
STARTCHAR 2007
ENCODING 8199
SWIDTH 462 0
DWIDTH 9 0
BBX 0 0 0 0
BITMAP
ENDCHAR
STARTCHAR 2012
ENCODING 8210
SWIDTH 462 0
DWIDTH 9 0
BBX 8 1 1 4
BITMAP
FF
ENDCHAR
STARTCHAR 2013
ENCODING 8211
SWIDTH 462 0
DWIDTH 9 0
BBX 8 1 1 4
BITMAP
FF
ENDCHAR
STARTCHAR 2014
ENCODING 8212
SWIDTH 822 0
DWIDTH 16 0
BBX 14 1 1 4
BITMAP
FFFC
ENDCHAR
STARTCHAR 2015
ENCODING 8213
SWIDTH 822 0
DWIDTH 16 0
BBX 14 1 1 4
BITMAP
FFFC
ENDCHAR
STARTCHAR 2016
ENCODING 8214
SWIDTH 360 0
DWIDTH 7 0
BBX 3 19 2 -5
BITMAP
A0
A0
A0
A0
A0
A0
A0
A0
A0
A0
A0
A0
A0
A0
A0
A0
A0
A0
A0
ENDCHAR
STARTCHAR 2018
ENCODING 8216
SWIDTH 205 0
DWIDTH 4 0
BBX 2 4 1 10
BITMAP
40
80
80
C0
ENDCHAR
STARTCHAR 2019
ENCODING 8217
SWIDTH 205 0
DWIDTH 4 0
BBX 2 4 1 9
BITMAP
40
40
40
80
ENDCHAR
STARTCHAR 201A
ENCODING 8218
SWIDTH 205 0
DWIDTH 4 0
BBX 2 4 1 -2
BITMAP
40
40
40
80
ENDCHAR
STARTCHAR 201C
ENCODING 8220
SWIDTH 360 0
DWIDTH 7 0
BBX 5 4 1 10
BITMAP
48
90
90
D0
ENDCHAR
STARTCHAR 201D
ENCODING 8221
SWIDTH 360 0
DWIDTH 7 0
BBX 5 4 1 9
BITMAP
58
48
50
90
ENDCHAR
STARTCHAR 201E
ENCODING 8222
SWIDTH 360 0
DWIDTH 7 0
BBX 5 4 1 -2
BITMAP
58
48
48
90
ENDCHAR
STARTCHAR 2020
ENCODING 8224
SWIDTH 411 0
DWIDTH 8 0
BBX 6 14 1 0
BITMAP
20
20
FC
20
20
20
20
20
20
20
20
20
20
20
ENDCHAR
STARTCHAR 2021
ENCODING 8225
SWIDTH 411 0
DWIDTH 8 0
BBX 6 14 1 -1
BITMAP
20
20
FC
20
20
20
20
20
20
20
20
FC
20
20
ENDCHAR
STARTCHAR 2022
ENCODING 8226
SWIDTH 257 0
DWIDTH 5 0
BBX 4 4 1 3
BITMAP
E0
F0
F0
E0
ENDCHAR
STARTCHAR 2026
ENCODING 8230
SWIDTH 925 0
DWIDTH 18 0
BBX 15 2 2 0
BITMAP
8106
C106
ENDCHAR
STARTCHAR 202F
ENCODING 8239
SWIDTH 102 0
DWIDTH 2 0
BBX 0 0 0 0
BITMAP
ENDCHAR
STARTCHAR 2030
ENCODING 8240
SWIDTH 1182 0
DWIDTH 23 0
BBX 21 13 1 0
BITMAP
704000
884000
888000
888000
890000
893870
8A4890
728508
048508
088508
088508
104890
103870
ENDCHAR
STARTCHAR 2032
ENCODING 8242
SWIDTH 205 0
DWIDTH 4 0
BBX 1 4 2 9
BITMAP
80
80
80
80
ENDCHAR
STARTCHAR 2033
ENCODING 8243
SWIDTH 360 0
DWIDTH 7 0
BBX 4 4 2 9
BITMAP
90
A0
A0
A0
ENDCHAR
STARTCHAR 2035
ENCODING 8245
SWIDTH 205 0
DWIDTH 4 0
BBX 2 4 1 9
BITMAP
80
80
80
40
ENDCHAR
STARTCHAR 2039
ENCODING 8249
SWIDTH 257 0
DWIDTH 5 0
BBX 3 7 1 1
BITMAP
20
40
80
80
80
40
20
ENDCHAR
STARTCHAR 203A
ENCODING 8250
SWIDTH 257 0
DWIDTH 5 0
BBX 3 7 1 1
BITMAP
80
40
20
20
20
40
80
ENDCHAR
STARTCHAR 203C
ENCODING 8252
SWIDTH 514 0
DWIDTH 10 0
BBX 6 13 2 0
BITMAP
84
84
84
84
84
84
84
84
84
00
00
84
84
ENDCHAR
STARTCHAR 203D
ENCODING 8253
SWIDTH 411 0
DWIDTH 8 0
BBX 6 14 1 0
BITMAP
70
88
04
24
24
28
30
30
20
20
00
00
20
20
ENDCHAR
STARTCHAR 203E
ENCODING 8254
SWIDTH 514 0
DWIDTH 10 0
BBX 9 1 0 11
BITMAP
FF80
ENDCHAR
STARTCHAR 203F
ENCODING 8255
SWIDTH 0 0
DWIDTH 0 0
BBX 16 3 -8 -5
BITMAP
8001
700E
0FF0
ENDCHAR
STARTCHAR 2044
ENCODING 8260
SWIDTH 102 0
DWIDTH 2 0
BBX 7 13 -3 0
BITMAP
02
02
04
04
08
08
10
10
20
40
40
80
80
ENDCHAR
STARTCHAR 2047
ENCODING 8263
SWIDTH 771 0
DWIDTH 15 0
BBX 13 14 1 0
BITMAP
7060
8998
0408
0408
0408
0810
1010
1020
2040
2040
0000
0000
2060
2060
ENDCHAR
STARTCHAR 2048
ENCODING 8264
SWIDTH 617 0
DWIDTH 12 0
BBX 10 14 1 0
BITMAP
7080
8880
0480
0480
0480
0880
1080
1080
2080
2080
0000
0000
2080
20C0
ENDCHAR
STARTCHAR 2049
ENCODING 8265
SWIDTH 617 0
DWIDTH 12 0
BBX 9 14 2 0
BITMAP
8700
8880
8080
8080
8080
8080
8100
8200
8200
8400
0000
0000
8200
8600
ENDCHAR
STARTCHAR 2070
ENCODING 8304
SWIDTH 360 0
DWIDTH 7 0
BBX 5 9 1 7
BITMAP
20
D8
88
88
88
88
88
88
70
ENDCHAR
STARTCHAR 2071
ENCODING 8305
SWIDTH 154 0
DWIDTH 3 0
BBX 1 9 1 8
BITMAP
80
00
00
80
80
80
80
80
80
ENDCHAR
STARTCHAR 2074
ENCODING 8308
SWIDTH 360 0
DWIDTH 7 0
BBX 5 7 1 8
BITMAP
10
30
50
90
F8
10
10
ENDCHAR
STARTCHAR 2075
ENCODING 8309
SWIDTH 360 0
DWIDTH 7 0
BBX 5 8 1 8
BITMAP
78
80
80
F0
08
08
88
70
ENDCHAR
STARTCHAR 2076
ENCODING 8310
SWIDTH 360 0
DWIDTH 7 0
BBX 5 8 1 8
BITMAP
78
80
80
F0
88
88
88
70
ENDCHAR
STARTCHAR 2077
ENCODING 8311
SWIDTH 360 0
DWIDTH 7 0
BBX 5 7 1 8
BITMAP
F8
08
10
20
20
20
20
ENDCHAR
STARTCHAR 2078
ENCODING 8312
SWIDTH 360 0
DWIDTH 7 0
BBX 5 9 1 7
BITMAP
20
D8
88
50
70
88
88
88
70
ENDCHAR
STARTCHAR 2079
ENCODING 8313
SWIDTH 360 0
DWIDTH 7 0
BBX 5 9 1 7
BITMAP
60
90
88
88
78
08
08
10
60
ENDCHAR
STARTCHAR 207D
ENCODING 8317
SWIDTH 205 0
DWIDTH 4 0
BBX 2 10 1 7
BITMAP
40
40
80
80
80
80
80
80
40
40
ENDCHAR
STARTCHAR 207E
ENCODING 8318
SWIDTH 205 0
DWIDTH 4 0
BBX 2 10 1 7
BITMAP
80
80
40
40
40
40
40
40
80
80
ENDCHAR
STARTCHAR 207F
ENCODING 8319
SWIDTH 360 0
DWIDTH 7 0
BBX 5 6 1 8
BITMAP
B0
C8
88
88
88
88
ENDCHAR
STARTCHAR 2080
ENCODING 8320
SWIDTH 360 0
DWIDTH 7 0
BBX 5 9 1 -4
BITMAP
20
D8
88
88
88
88
88
88
70
ENDCHAR
STARTCHAR 2081
ENCODING 8321
SWIDTH 360 0
DWIDTH 7 0
BBX 2 7 2 -3
BITMAP
C0
40
40
40
40
40
40
ENDCHAR
STARTCHAR 2082
ENCODING 8322
SWIDTH 360 0
DWIDTH 7 0
BBX 5 9 1 -4
BITMAP
60
90
08
08
10
10
20
40
F8
ENDCHAR
STARTCHAR 2083
ENCODING 8323
SWIDTH 360 0
DWIDTH 7 0
BBX 5 9 1 -4
BITMAP
20
D0
08
10
30
08
08
88
70
ENDCHAR
STARTCHAR 2084
ENCODING 8324
SWIDTH 360 0
DWIDTH 7 0
BBX 5 7 1 -3
BITMAP
10
30
50
90
F8
10
10
ENDCHAR
STARTCHAR 2085
ENCODING 8325
SWIDTH 360 0
DWIDTH 7 0
BBX 5 8 1 -4
BITMAP
78
80
A0
58
08
08
88
70
ENDCHAR
STARTCHAR 2086
ENCODING 8326
SWIDTH 360 0
DWIDTH 7 0
BBX 5 9 1 -4
BITMAP
30
40
80
B0
C8
88
88
48
30
ENDCHAR
STARTCHAR 2087
ENCODING 8327
SWIDTH 360 0
DWIDTH 7 0
BBX 5 7 1 -4
BITMAP
F8
10
10
20
20
20
20
ENDCHAR
STARTCHAR 2088
ENCODING 8328
SWIDTH 360 0
DWIDTH 7 0
BBX 5 9 1 -4
BITMAP
20
D8
88
50
70
88
88
88
70
ENDCHAR
STARTCHAR 2089
ENCODING 8329
SWIDTH 360 0
DWIDTH 7 0
BBX 5 9 1 -4
BITMAP
60
90
88
88
88
78
08
10
60
ENDCHAR
STARTCHAR 208D
ENCODING 8333
SWIDTH 205 0
DWIDTH 4 0
BBX 2 10 1 -5
BITMAP
40
40
80
80
80
80
80
80
40
40
ENDCHAR
STARTCHAR 208E
ENCODING 8334
SWIDTH 205 0
DWIDTH 4 0
BBX 2 10 1 -5
BITMAP
80
80
40
40
40
40
40
40
80
80
ENDCHAR
STARTCHAR 2094
ENCODING 8340
SWIDTH 308 0
DWIDTH 6 0
BBX 5 6 1 8
BITMAP
F0
08
F8
88
90
60
ENDCHAR
STARTCHAR 20A1
ENCODING 8353
SWIDTH 462 0
DWIDTH 9 0
BBX 8 17 1 -2
BITMAP
08
14
1E
35
54
54
94
94
94
98
A8
68
68
29
3E
28
28
ENDCHAR
STARTCHAR 20A4
ENCODING 8356
SWIDTH 462 0
DWIDTH 9 0
BBX 7 13 1 0
BITMAP
1C
22
40
40
40
FC
20
FC
20
20
20
40
FE
ENDCHAR
STARTCHAR 20A6
ENCODING 8358
SWIDTH 462 0
DWIDTH 9 0
BBX 9 13 0 0
BITMAP
2100
6100
5100
3100
3100
FF80
2900
FF80
2500
2500
2500
2300
2300
ENDCHAR
STARTCHAR 20A7
ENCODING 8359
SWIDTH 462 0
DWIDTH 9 0
BBX 9 13 0 0
BITMAP
3C00
2200
2100
FF80
2100
2200
2200
3C00
2000
2000
2000
2000
2000
ENDCHAR
STARTCHAR 20A9
ENCODING 8361
SWIDTH 462 0
DWIDTH 9 0
BBX 9 13 0 0
BITMAP
8080
8880
8880
5880
5480
5500
FF80
5500
5500
5500
6300
6300
2200
ENDCHAR
STARTCHAR 20AB
ENCODING 8363
SWIDTH 462 0
DWIDTH 9 0
BBX 8 13 1 0
BITMAP
04
1F
04
04
3C
44
84
84
84
44
38
00
7E
ENDCHAR
STARTCHAR 20AC
ENCODING 8364
SWIDTH 462 0
DWIDTH 9 0
BBX 9 13 0 0
BITMAP
0F00
1080
2000
2000
2000
FF00
2000
FE00
2000
2000
2000
1080
0F00
ENDCHAR
STARTCHAR 20AE
ENCODING 8366
SWIDTH 462 0
DWIDTH 9 0
BBX 8 12 1 1
BITMAP
FF
10
10
12
1C
30
D4
18
70
10
10
10
ENDCHAR
STARTCHAR 20B1
ENCODING 8369
SWIDTH 462 0
DWIDTH 9 0
BBX 9 13 0 0
BITMAP
3C00
2200
FF80
2100
FF80
2200
2200
3C00
2000
2000
2000
2000
2000
ENDCHAR
STARTCHAR 20B2
ENCODING 8370
SWIDTH 462 0
DWIDTH 9 0
BBX 8 17 1 -2
BITMAP
08
08
1C
22
40
80
80
80
80
8F
81
81
41
41
3E
08
08
ENDCHAR
STARTCHAR 20B4
ENCODING 8372
SWIDTH 462 0
DWIDTH 9 0
BBX 9 13 0 0
BITMAP
1C00
2200
0100
0200
0200
FF80
0800
FF80
2000
2000
2000
2100
1E00
ENDCHAR
STARTCHAR 20B5
ENCODING 8373
SWIDTH 462 0
DWIDTH 9 0
BBX 8 17 1 -2
BITMAP
08
08
1E
29
48
48
88
88
88
88
88
48
48
29
1E
08
08
ENDCHAR
STARTCHAR 20B8
ENCODING 8376
SWIDTH 462 0
DWIDTH 9 0
BBX 8 13 1 0
BITMAP
FF
00
FF
10
10
10
10
10
10
10
10
10
10
ENDCHAR
STARTCHAR 20B9
ENCODING 8377
SWIDTH 462 0
DWIDTH 9 0
BBX 8 13 1 0
BITMAP
FF
04
04
FF
04
04
F8
20
10
08
08
04
02
ENDCHAR
STARTCHAR 20BA
ENCODING 8378
SWIDTH 462 0
DWIDTH 9 0
BBX 8 13 1 0
BITMAP
40
40
4C
30
44
D8
60
C1
41
41
42
44
38
ENDCHAR
STARTCHAR 20BD
ENCODING 8381
SWIDTH 462 0
DWIDTH 9 0
BBX 8 13 0 0
BITMAP
3C
22
21
21
21
22
FC
20
20
FE
20
20
20
ENDCHAR
STARTCHAR 2113
ENCODING 8467
SWIDTH 360 0
DWIDTH 7 0
BBX 6 14 1 0
BITMAP
38
48
44
44
48
48
50
50
60
40
C0
40
44
38
ENDCHAR
STARTCHAR 2116
ENCODING 8470
SWIDTH 874 0
DWIDTH 17 0
BBX 15 13 1 0
BITMAP
4100
611C
6122
5142
5142
5122
491C
4900
4500
453E
4500
4300
C100
ENDCHAR
STARTCHAR 2117
ENCODING 8471
SWIDTH 720 0
DWIDTH 14 0
BBX 12 13 1 0
BITMAP
0F80
3040
4020
8F10
8890
8890
8890
8F10
8810
8810
4020
2040
1F80
ENDCHAR
STARTCHAR 2120
ENCODING 8480
SWIDTH 617 0
DWIDTH 12 0
BBX 10 6 1 7
BITMAP
E440
86C0
C6C0
2540
1440
E400
ENDCHAR
STARTCHAR 2122
ENCODING 8482
SWIDTH 617 0
DWIDTH 12 0
BBX 11 6 0 7
BITMAP
FA20
2360
2360
2360
22A0
2200
ENDCHAR
STARTCHAR 2126
ENCODING 8486
SWIDTH 668 0
DWIDTH 13 0
BBX 11 13 1 0
BITMAP
1F00
2080
4040
4040
8040
8020
8020
8020
8040
4040
4040
2080
F1E0
ENDCHAR
STARTCHAR 212E
ENCODING 8494
SWIDTH 822 0
DWIDTH 16 0
BBX 14 13 1 0
BITMAP
0F80
3060
4010
4018
C018
C01C
FFE0
C000
C000
4000
6010
3020
0FC0
ENDCHAR
STARTCHAR 2150
ENCODING 8528
SWIDTH 771 0
DWIDTH 15 0
BBX 12 13 2 0
BITMAP
C100
4100
4200
4200
4400
45F0
4810
4820
1020
1040
2040
2040
4040
ENDCHAR
STARTCHAR 2151
ENCODING 8529
SWIDTH 771 0
DWIDTH 15 0
BBX 12 13 2 0
BITMAP
C080
4100
4200
4200
4400
44E0
4910
4910
1110
10F0
2010
2010
40E0
ENDCHAR
STARTCHAR 2152
ENCODING 8530
SWIDTH 1028 0
DWIDTH 20 0
BBX 18 13 2 0
BITMAP
C08000
410000
420000
420000
440000
444700
48C480
484840
104840
104840
204840
204480
404700
ENDCHAR
STARTCHAR 2153
ENCODING 8531
SWIDTH 771 0
DWIDTH 15 0
BBX 12 13 2 0
BITMAP
C100
4100
4200
4200
4400
44E0
4810
0810
1060
1010
2010
4110
40E0
ENDCHAR
STARTCHAR 2154
ENCODING 8532
SWIDTH 822 0
DWIDTH 16 0
BBX 14 13 1 0
BITMAP
7040
9040
0880
1080
1100
2178
4208
FA08
0430
0408
0804
1088
1078
ENDCHAR
STARTCHAR 2155
ENCODING 8533
SWIDTH 771 0
DWIDTH 15 0
BBX 12 13 2 0
BITMAP
C100
4100
4200
4200
4400
44F0
4880
4880
10E0
1010
2010
4110
40E0
ENDCHAR
STARTCHAR 2156
ENCODING 8534
SWIDTH 822 0
DWIDTH 16 0
BBX 14 13 1 0
BITMAP
7040
9040
0880
1080
1100
2178
4240
FA40
0478
0404
0804
1088
1078
ENDCHAR
STARTCHAR 2157
ENCODING 8535
SWIDTH 822 0
DWIDTH 16 0
BBX 14 13 1 0
BITMAP
7040
0840
1080
3080
0900
0978
8A40
7250
0468
0404
0804
1088
1078
ENDCHAR
STARTCHAR 2158
ENCODING 8536
SWIDTH 822 0
DWIDTH 16 0
BBX 14 13 1 0
BITMAP
1020
3040
5040
5080
9100
F93C
1240
1240
0478
0404
0804
0804
1078
ENDCHAR
STARTCHAR 2159
ENCODING 8537
SWIDTH 771 0
DWIDTH 15 0
BBX 12 13 2 0
BITMAP
C080
4100
4200
4200
4400
44F0
4900
4900
11E0
1110
2110
2110
40E0
ENDCHAR
STARTCHAR 215A
ENCODING 8538
SWIDTH 822 0
DWIDTH 16 0
BBX 14 13 1 0
BITMAP
7840
8040
8080
F080
0900
0910
8A68
7280
04B0
08C8
0884
1048
1038
ENDCHAR
STARTCHAR 215B
ENCODING 8539
SWIDTH 771 0
DWIDTH 15 0
BBX 12 13 2 0
BITMAP
C080
4100
4200
4200
4400
44E0
4910
4910
10E0
10B0
2110
2110
40E0
ENDCHAR
STARTCHAR 215C
ENCODING 8540
SWIDTH 822 0
DWIDTH 16 0
BBX 14 13 1 0
BITMAP
7040
0840
1080
3080
0930
0948
8A48
7248
0430
0448
0884
1088
1078
ENDCHAR
STARTCHAR 215D
ENCODING 8541
SWIDTH 822 0
DWIDTH 16 0
BBX 14 13 1 0
BITMAP
7840
8040
8080
F080
0900
0930
8A48
7248
0428
0858
0884
1084
1078
ENDCHAR
STARTCHAR 215E
ENCODING 8542
SWIDTH 771 0
DWIDTH 15 0
BBX 13 13 1 0
BITMAP
F880
1080
2100
2100
2200
4270
4488
4488
0870
1098
1088
2088
2070
ENDCHAR
STARTCHAR 2189
ENCODING 8585
SWIDTH 822 0
DWIDTH 16 0
BBX 14 13 1 0
BITMAP
7040
8840
8880
8880
8900
8978
8A08
7208
0430
0408
0804
1088
1078
ENDCHAR
STARTCHAR 2190
ENCODING 8592
SWIDTH 617 0
DWIDTH 12 0
BBX 10 10 1 -1
BITMAP
0800
1000
2000
4000
8000
FFC0
4000
2000
1000
0800
ENDCHAR
STARTCHAR 2191
ENCODING 8593
SWIDTH 617 0
DWIDTH 12 0
BBX 10 10 1 -1
BITMAP
0C00
1A00
2900
6900
4880
8840
0800
0800
0800
0800
ENDCHAR
STARTCHAR 2192
ENCODING 8594
SWIDTH 617 0
DWIDTH 12 0
BBX 10 10 1 -1
BITMAP
0400
0200
0100
0080
0040
FFC0
0080
0100
0200
0400
ENDCHAR
STARTCHAR 2193
ENCODING 8595
SWIDTH 617 0
DWIDTH 12 0
BBX 10 10 1 -1
BITMAP
0800
0800
0800
0800
0800
8840
4880
2900
1A00
0C00
ENDCHAR
STARTCHAR 2202
ENCODING 8706
SWIDTH 514 0
DWIDTH 10 0
BBX 8 13 1 0
BITMAP
3C
02
02
01
01
39
47
81
81
82
82
84
78
ENDCHAR
STARTCHAR 2206
ENCODING 8710
SWIDTH 565 0
DWIDTH 11 0
BBX 9 13 1 0
BITMAP
0800
1800
1400
1400
2400
2200
4200
4100
4100
8100
8080
8080
FF80
ENDCHAR
STARTCHAR 220F
ENCODING 8719
SWIDTH 668 0
DWIDTH 13 0
BBX 9 15 2 -2
BITMAP
FF80
8080
8080
8080
8080
8080
8080
8080
8080
8080
8080
8080
8080
8080
8080
ENDCHAR
STARTCHAR 2211
ENCODING 8721
SWIDTH 462 0
DWIDTH 9 0
BBX 9 15 0 -2
BITMAP
7F80
4000
2000
1000
1000
0800
0400
0400
0400
0800
1000
2000
2000
4000
FF80
ENDCHAR
STARTCHAR 2212
ENCODING 8722
SWIDTH 462 0
DWIDTH 9 0
BBX 8 1 1 6
BITMAP
FF
ENDCHAR
STARTCHAR 2215
ENCODING 8725
SWIDTH 102 0
DWIDTH 2 0
BBX 7 13 -3 0
BITMAP
02
02
04
04
08
08
10
10
20
40
40
80
80
ENDCHAR
STARTCHAR 2219
ENCODING 8729
SWIDTH 462 0
DWIDTH 9 0
BBX 1 2 4 5
BITMAP
80
80
ENDCHAR
STARTCHAR 221A
ENCODING 8730
SWIDTH 514 0
DWIDTH 10 0
BBX 9 17 1 -1
BITMAP
0080
0080
0080
0100
0100
0100
0100
0100
C200
2200
2200
2200
1400
1400
1400
0C00
0800
ENDCHAR
STARTCHAR 221E
ENCODING 8734
SWIDTH 771 0
DWIDTH 15 0
BBX 13 7 1 3
BITMAP
0060
7190
8E08
8608
8608
8910
70E0
ENDCHAR
STARTCHAR 222B
ENCODING 8747
SWIDTH 308 0
DWIDTH 6 0
BBX 4 18 1 -3
BITMAP
30
20
40
40
40
40
40
40
20
20
20
20
20
20
20
20
20
C0
ENDCHAR
STARTCHAR 2248
ENCODING 8776
SWIDTH 462 0
DWIDTH 9 0
BBX 7 7 1 3
BITMAP
60
92
0C
00
60
92
0C
ENDCHAR
STARTCHAR 2260
ENCODING 8800
SWIDTH 462 0
DWIDTH 9 0
BBX 8 10 1 1
BITMAP
02
04
FF
08
10
10
FF
40
40
80
ENDCHAR
STARTCHAR 2264
ENCODING 8804
SWIDTH 462 0
DWIDTH 9 0
BBX 8 10 1 0
BITMAP
03
0C
70
80
60
1C
03
00
00
FF
ENDCHAR
STARTCHAR 2265
ENCODING 8805
SWIDTH 462 0
DWIDTH 9 0
BBX 8 10 1 0
BITMAP
80
70
0C
03
0E
30
C0
00
00
FF
ENDCHAR
STARTCHAR 231C
ENCODING 8988
SWIDTH 257 0
DWIDTH 5 0
BBX 3 14 2 0
BITMAP
E0
80
80
80
80
80
80
80
80
80
80
80
80
80
ENDCHAR
STARTCHAR 231D
ENCODING 8989
SWIDTH 257 0
DWIDTH 5 0
BBX 4 14 0 0
BITMAP
F0
10
10
10
10
10
10
10
10
10
10
10
10
10
ENDCHAR
STARTCHAR 231E
ENCODING 8990
SWIDTH 257 0
DWIDTH 5 0
BBX 3 13 2 -1
BITMAP
80
80
80
80
80
80
80
80
80
80
80
80
E0
ENDCHAR
STARTCHAR 231F
ENCODING 8991
SWIDTH 257 0
DWIDTH 5 0
BBX 4 13 0 -1
BITMAP
10
10
10
10
10
10
10
10
10
10
10
10
F0
ENDCHAR
STARTCHAR 25A0
ENCODING 9632
SWIDTH 925 0
DWIDTH 18 0
BBX 16 16 1 -1
BITMAP
FFFF
FFFF
FFFF
FFFF
FFFF
FFFF
FFFF
FFFF
FFFF
FFFF
FFFF
FFFF
FFFF
FFFF
FFFF
FFFF
ENDCHAR
STARTCHAR 25B2
ENCODING 9650
SWIDTH 925 0
DWIDTH 18 0
BBX 15 16 1 -1
BITMAP
0100
0180
0180
03C0
03C0
07C0
07E0
0FE0
0FF0
1FF0
1FF8
3FF8
3FFC
7FFC
7FFE
FFFE
ENDCHAR
STARTCHAR 25B3
ENCODING 9651
SWIDTH 925 0
DWIDTH 18 0
BBX 15 16 1 -1
BITMAP
0100
0180
0280
0240
0440
0420
0820
0810
1010
1010
2008
2008
2004
4004
4002
FFFE
ENDCHAR
STARTCHAR 25B6
ENCODING 9654
SWIDTH 925 0
DWIDTH 18 0
BBX 16 15 1 0
BITMAP
C000
F000
FC00
FF00
FFC0
FFF8
FFFE
FFFF
FFFC
FFE0
FF80
FE00
F800
E000
8000
ENDCHAR
STARTCHAR 25B7
ENCODING 9655
SWIDTH 925 0
DWIDTH 18 0
BBX 16 15 1 0
BITMAP
C000
B000
8C00
8300
80C0
8038
8006
8003
800C
8030
80C0
8300
9C00
E000
8000
ENDCHAR
STARTCHAR 25BC
ENCODING 9660
SWIDTH 925 0
DWIDTH 18 0
BBX 15 16 1 -1
BITMAP
FFFE
7FFE
7FFC
3FFC
3FF8
1FF8
1FF0
0FF0
0FF0
07E0
07E0
07C0
03C0
0380
0180
0100
ENDCHAR
STARTCHAR 25BD
ENCODING 9661
SWIDTH 925 0
DWIDTH 18 0
BBX 15 16 1 -2
BITMAP
FFFE
8002
4002
4004
2004
2008
1008
1010
0810
0820
0420
0440
0240
0280
0180
0100
ENDCHAR
STARTCHAR 25C0
ENCODING 9664
SWIDTH 925 0
DWIDTH 18 0
BBX 16 15 1 0
BITMAP
0003
001F
007F
01FF
07FF
1FFF
7FFF
FFFF
3FFF
0FFF
03FF
00FF
003F
0007
0001
ENDCHAR
STARTCHAR 25C1
ENCODING 9665
SWIDTH 925 0
DWIDTH 18 0
BBX 16 15 1 0
BITMAP
0003
001D
0061
0181
0601
1801
6001
C001
3001
0C01
0301
00C1
0031
000D
0003
ENDCHAR
STARTCHAR 25C6
ENCODING 9670
SWIDTH 925 0
DWIDTH 18 0
BBX 16 16 1 -2
BITMAP
0100
0380
07C0
0FE0
1FF0
3FF8
7FFC
FFFE
FFFF
7FFE
3FFC
1FF8
0FF0
07E0
03C0
0180
ENDCHAR
STARTCHAR 25C9
ENCODING 9673
SWIDTH 925 0
DWIDTH 18 0
BBX 16 17 1 -2
BITMAP
07E0
1818
2004
47E2
8FF2
9FF1
9FF9
BFF9
BFF9
9FF9
9FF9
9FF2
4FF2
43C4
200C
1810
07E0
ENDCHAR
STARTCHAR 25CA
ENCODING 9674
SWIDTH 514 0
DWIDTH 10 0
BBX 8 13 1 0
BITMAP
18
28
24
44
42
82
81
82
42
44
24
28
18
ENDCHAR
STARTCHAR 25CC
ENCODING 9676
SWIDTH 565 0
DWIDTH 11 0
BBX 9 10 1 0
BITMAP
0800
2200
4080
0000
8080
0000
0000
4080
2200
0800
ENDCHAR
STARTCHAR 2610
ENCODING 9744
SWIDTH 771 0
DWIDTH 15 0
BBX 13 13 1 0
BITMAP
7FF8
8008
8008
8008
8008
8008
8008
8008
8008
8008
8008
8008
FFF8
ENDCHAR
STARTCHAR 2611
ENCODING 9745
SWIDTH 771 0
DWIDTH 15 0
BBX 14 15 1 0
BITMAP
0004
000C
7FF8
8018
8028
8048
8048
9088
8888
8908
8508
8608
8208
8008
FFF8
ENDCHAR
STARTCHAR 266A
ENCODING 9834
SWIDTH 462 0
DWIDTH 9 0
BBX 8 13 1 0
BITMAP
08
0C
0E
09
09
09
09
08
08
08
78
F0
F0
ENDCHAR
STARTCHAR 2713
ENCODING 10003
SWIDTH 617 0
DWIDTH 12 0
BBX 11 13 0 1
BITMAP
0020
0040
0080
0080
0100
0200
0200
8400
4400
4800
2800
3000
1000
ENDCHAR
STARTCHAR 2752
ENCODING 10066
SWIDTH 925 0
DWIDTH 18 0
BBX 16 16 1 -1
BITMAP
FFFF
8003
8003
8003
8003
8003
8003
8003
8003
8003
8003
8003
8003
8003
8003
FFFE
ENDCHAR
STARTCHAR 27E6
ENCODING 10214
SWIDTH 360 0
DWIDTH 7 0
BBX 4 17 2 -3
BITMAP
F0
C0
C0
C0
C0
C0
C0
C0
C0
C0
C0
C0
C0
C0
C0
C0
F0
ENDCHAR
STARTCHAR 27E7
ENCODING 10215
SWIDTH 360 0
DWIDTH 7 0
BBX 5 17 0 -3
BITMAP
F8
28
28
28
28
28
28
28
28
28
28
28
28
28
28
28
F8
ENDCHAR
STARTCHAR 2E22
ENCODING 11810
SWIDTH 257 0
DWIDTH 5 0
BBX 3 9 2 5
BITMAP
E0
80
80
80
80
80
80
80
80
ENDCHAR
STARTCHAR 2E23
ENCODING 11811
SWIDTH 257 0
DWIDTH 5 0
BBX 4 9 0 5
BITMAP
F0
10
10
10
10
10
10
10
10
ENDCHAR
STARTCHAR 2E24
ENCODING 11812
SWIDTH 257 0
DWIDTH 5 0
BBX 3 8 2 -3
BITMAP
80
80
80
80
80
80
80
E0
ENDCHAR
STARTCHAR 2E25
ENCODING 11813
SWIDTH 257 0
DWIDTH 5 0
BBX 4 8 0 -3
BITMAP
10
10
10
10
10
10
10
F0
ENDCHAR
STARTCHAR 2E3A
ENCODING 11834
SWIDTH 1491 0
DWIDTH 29 0
BBX 27 1 1 4
BITMAP
FFFFFFE0
ENDCHAR
STARTCHAR 2E3B
ENCODING 11835
SWIDTH 2211 0
DWIDTH 43 0
BBX 41 1 1 4
BITMAP
FFFFFFFFFF80
ENDCHAR
STARTCHAR FB00
ENCODING 64256
SWIDTH 514 0
DWIDTH 10 0
BBX 10 14 1 0
BITMAP
39C0
4200
4200
4200
FF80
4200
4200
4200
4200
4200
4200
4200
4200
4200
ENDCHAR
STARTCHAR FB01
ENCODING 64257
SWIDTH 514 0
DWIDTH 10 0
BBX 7 14 1 0
BITMAP
38
42
42
40
F2
42
42
42
42
42
42
42
42
42
ENDCHAR
STARTCHAR FB02
ENCODING 64258
SWIDTH 514 0
DWIDTH 10 0
BBX 8 14 1 0
BITMAP
3A
42
42
42
F2
42
42
42
42
42
42
42
42
43
ENDCHAR
STARTCHAR FB03
ENCODING 64259
SWIDTH 771 0
DWIDTH 15 0
BBX 12 13 1 1
BITMAP
39C0
4210
4200
4200
FF90
4210
4210
4210
4210
4210
4210
4210
4210
ENDCHAR
STARTCHAR FB04
ENCODING 64260
SWIDTH 771 0
DWIDTH 15 0
BBX 13 14 1 0
BITMAP
39D0
4210
4210
4210
FF90
4210
4210
4210
4210
4210
4210
4210
4210
4218
ENDCHAR
STARTCHAR FEFF
ENCODING 65279
SWIDTH 0 0
DWIDTH 0 0
BBX 0 0 0 0
BITMAP
ENDCHAR
ENDFONT
